<svg width="72" height="11" viewBox="0 0 72 11" fill="none" xmlns="http://www.w3.org/2000/svg">
<path d="M0 10.1027V0H1.41453V8.94814H6.1102V10.1027H0Z" fill="#013D5B"/>
<path d="M12.9274 9.82853C12.2566 10.1557 11.5081 10.3192 10.6817 10.3192C9.47618 10.3192 8.55746 9.98728 7.92554 9.32339C7.29362 8.65949 6.97765 7.68771 6.97765 6.40803C6.97765 5.61905 7.11862 4.93591 7.40056 4.35861C7.68249 3.77169 8.07623 3.32428 8.58177 3.01639C9.0873 2.7085 9.66576 2.55455 10.3171 2.55455C11.231 2.55455 11.9504 2.82396 12.4754 3.36277C13.0004 3.90158 13.2629 4.64726 13.2629 5.59981C13.2629 5.97505 13.2288 6.34549 13.1608 6.71111H8.33386C8.36302 8.41414 9.19911 9.26566 10.8421 9.26566C11.5518 9.26566 12.2469 9.11171 12.9274 8.80382V9.82853ZM10.3171 3.55039C9.75325 3.55039 9.29146 3.74764 8.93175 4.14212C8.58177 4.53661 8.38247 5.07061 8.33386 5.74413H11.9941C12.0039 5.69602 12.0087 5.64791 12.0087 5.59981C12.0087 5.5517 12.0087 5.50359 12.0087 5.45548C12.0087 4.85894 11.858 4.39229 11.5567 4.05553C11.265 3.71877 10.8518 3.55039 10.3171 3.55039Z" fill="#013D5B"/>
<path d="M19.6128 10.1316L19.5253 9.62647C18.7086 10.0883 17.9163 10.3192 17.1483 10.3192C16.3802 10.3192 15.7678 10.1172 15.3108 9.71307C14.8636 9.29934 14.64 8.74609 14.64 8.05333C14.64 7.33171 14.8928 6.77365 15.3983 6.37916C15.9039 5.97505 16.6136 5.773 17.5274 5.773C18.0621 5.773 18.6795 5.83554 19.3794 5.96062V5.1957C19.3794 4.66651 19.2239 4.27202 18.9128 4.01223C18.6114 3.75245 18.1448 3.62256 17.5128 3.62256C16.774 3.62256 15.9671 3.79093 15.0921 4.12769V3.07412C15.5004 2.91055 15.9428 2.78547 16.4191 2.69888C16.8955 2.60266 17.3476 2.55455 17.7753 2.55455C18.7378 2.55455 19.4669 2.77585 19.9627 3.21845C20.4683 3.66104 20.7211 4.3105 20.7211 5.16683V10.0161L19.6128 10.1316ZM17.4983 9.26566C17.7802 9.26566 18.0961 9.21755 18.4461 9.12134C18.7961 9.02512 19.1072 8.90004 19.3794 8.74609V6.89873C18.9225 6.78327 18.3829 6.72554 17.7607 6.72554C17.1774 6.72554 16.7448 6.83619 16.4629 7.05749C16.1907 7.26916 16.0546 7.59149 16.0546 8.02447C16.0546 8.85193 16.5358 9.26566 17.4983 9.26566Z" fill="#013D5B"/>
<path d="M22.8524 10.1027V2.85763L23.9607 2.74217L24.0774 3.40607C24.719 2.86725 25.4044 2.59785 26.1336 2.59785C26.3572 2.59785 26.5808 2.63152 26.8044 2.69888V3.81018C26.5711 3.75245 26.3329 3.72358 26.0898 3.72358C25.3898 3.72358 24.7676 3.94007 24.2232 4.37304V10.1027H22.8524Z" fill="#013D5B"/>
<path d="M32.918 10.1027V5.16683C32.918 4.13731 32.4027 3.62256 31.3722 3.62256C31.1 3.62256 30.7938 3.67066 30.4535 3.76688C30.123 3.85348 29.8216 3.97375 29.5494 4.12769V10.1027H28.1786V2.85763L29.2869 2.74217L29.3744 3.24731C30.1716 2.78547 30.9639 2.55455 31.7514 2.55455C32.5583 2.55455 33.1805 2.76623 33.618 3.18958C34.0652 3.60331 34.2888 4.19504 34.2888 4.96478V10.1027H32.918Z" fill="#013D5B"/>
<path d="M44.678 9.22236L41.8344 1.97725L41.2802 10.1027H39.9386L40.7407 0H42.3302L45.2613 7.47603L48.1925 0H49.782L50.5841 10.1027H49.2279L48.6591 1.97725L45.8301 9.22236H44.678Z" fill="#013D5B"/>
<path d="M55.6043 9.25123C56.2849 9.25123 56.7758 9.02993 57.0772 8.58733C57.3883 8.14474 57.5438 7.42792 57.5438 6.43689C57.5438 5.44586 57.3883 4.72905 57.0772 4.28645C56.7758 3.84385 56.2849 3.62256 55.6043 3.62256C54.9238 3.62256 54.428 3.84385 54.1169 4.28645C53.8155 4.72905 53.6648 5.44586 53.6648 6.43689C53.6648 7.42792 53.8155 8.14474 54.1169 8.58733C54.428 9.02993 54.9238 9.25123 55.6043 9.25123ZM55.6043 10.3192C54.496 10.3192 53.6551 9.99209 53.0815 9.33782C52.5176 8.67393 52.2357 7.70695 52.2357 6.43689C52.2357 5.16683 52.5176 4.20467 53.0815 3.55039C53.6551 2.8865 54.496 2.55455 55.6043 2.55455C56.7126 2.55455 57.5487 2.8865 58.1126 3.55039C58.6862 4.20467 58.973 5.16683 58.973 6.43689C58.973 7.70695 58.6862 8.67393 58.1126 9.33782C57.5487 9.99209 56.7126 10.3192 55.6043 10.3192Z" fill="#013D5B"/>
<path d="M60.7478 10.1027V2.85763L61.8561 2.74217L61.9728 3.40607C62.6144 2.86725 63.2998 2.59785 64.029 2.59785C64.2526 2.59785 64.4762 2.63152 64.6998 2.69888V3.81018C64.4665 3.75245 64.2283 3.72358 63.9852 3.72358C63.2853 3.72358 62.6631 3.94007 62.1186 4.37304V10.1027H60.7478Z" fill="#013D5B"/>
<path d="M71.4439 9.82853C70.7731 10.1557 70.0245 10.3192 69.1981 10.3192C67.9926 10.3192 67.0739 9.98728 66.442 9.32339C65.8101 8.65949 65.4941 7.68771 65.4941 6.40803C65.4941 5.61905 65.6351 4.93591 65.917 4.35861C66.1989 3.77169 66.5927 3.32428 67.0982 3.01639C67.6037 2.7085 68.1822 2.55455 68.8336 2.55455C69.7474 2.55455 70.4668 2.82396 70.9918 3.36277C71.5168 3.90158 71.7793 4.64726 71.7793 5.59981C71.7793 5.97505 71.7453 6.34549 71.6772 6.71111H66.8503C66.8795 8.41414 67.7155 9.26566 69.3586 9.26566C70.0682 9.26566 70.7634 9.11171 71.4439 8.80382V9.82853ZM68.8336 3.55039C68.2697 3.55039 67.8079 3.74764 67.4482 4.14212C67.0982 4.53661 66.8989 5.07061 66.8503 5.74413H70.5106C70.5203 5.69602 70.5252 5.64791 70.5252 5.59981C70.5252 5.5517 70.5252 5.50359 70.5252 5.45548C70.5252 4.85894 70.3745 4.39229 70.0731 4.05553C69.7814 3.71877 69.3683 3.55039 68.8336 3.55039Z" fill="#013D5B"/>
</svg>
