<svg width="262" height="47" viewBox="0 0 262 47" fill="none" xmlns="http://www.w3.org/2000/svg">
<path d="M260.325 43.166C260.325 42.5476 260.093 42.0297 259.629 41.6123C259.165 41.1794 258.346 40.7388 257.171 40.2905C255.764 39.7494 254.767 39.2083 254.18 38.6672C253.592 38.1107 253.298 37.4614 253.298 36.7193C253.298 35.8381 253.654 35.1347 254.365 34.609C255.076 34.0679 256.019 33.7974 257.194 33.7974C257.751 33.7974 258.346 33.867 258.98 34.0061C259.629 34.1298 260.232 34.3076 260.789 34.5395L261.229 37.4382L260.881 37.5309C260.448 36.4333 259.931 35.6448 259.328 35.1656C258.74 34.6709 257.99 34.4235 257.078 34.4235C256.274 34.4235 255.648 34.5936 255.2 34.9337C254.752 35.2583 254.527 35.7221 254.527 36.3251C254.527 36.8971 254.767 37.3841 255.246 37.786C255.725 38.1725 256.576 38.6054 257.797 39.0846C258.756 39.4557 259.505 39.8112 260.046 40.1513C260.588 40.4915 260.974 40.8548 261.206 41.2413C261.438 41.6277 261.554 42.0761 261.554 42.5863C261.554 43.6066 261.175 44.4337 260.418 45.0675C259.675 45.7014 258.694 46.0183 257.472 46.0183C256.854 46.0183 256.189 45.9256 255.478 45.74C254.782 45.57 254.133 45.3304 253.53 45.0212L253.09 42.0761L253.437 41.9833C254.288 44.2559 255.679 45.3922 257.612 45.3922C258.462 45.3922 259.127 45.1989 259.606 44.8125C260.085 44.4105 260.325 43.8617 260.325 43.166Z" fill="#013D5B"/>
<path d="M249.409 43.166C249.409 42.5476 249.178 42.0297 248.714 41.6123C248.25 41.1794 247.431 40.7388 246.256 40.2905C244.849 39.7494 243.852 39.2083 243.264 38.6672C242.677 38.1107 242.383 37.4614 242.383 36.7193C242.383 35.8381 242.739 35.1347 243.45 34.609C244.161 34.0679 245.104 33.7974 246.279 33.7974C246.835 33.7974 247.431 33.867 248.064 34.0061C248.714 34.1298 249.317 34.3076 249.873 34.5395L250.314 37.4382L249.966 37.5309C249.533 36.4333 249.015 35.6448 248.412 35.1656C247.825 34.6709 247.075 34.4235 246.163 34.4235C245.359 34.4235 244.733 34.5936 244.285 34.9337C243.836 35.2583 243.612 35.7221 243.612 36.3251C243.612 36.8971 243.852 37.3841 244.331 37.786C244.81 38.1725 245.66 38.6054 246.882 39.0846C247.84 39.4557 248.59 39.8112 249.131 40.1513C249.672 40.4915 250.059 40.8548 250.291 41.2413C250.523 41.6277 250.639 42.0761 250.639 42.5863C250.639 43.6066 250.26 44.4337 249.502 45.0675C248.76 45.7014 247.778 46.0183 246.557 46.0183C245.939 46.0183 245.274 45.9256 244.563 45.74C243.867 45.57 243.218 45.3304 242.615 45.0212L242.174 42.0761L242.522 41.9833C243.372 44.2559 244.764 45.3922 246.696 45.3922C247.547 45.3922 248.211 45.1989 248.691 44.8125C249.17 44.4105 249.409 43.8617 249.409 43.166Z" fill="#013D5B"/>
<path d="M230.006 39.9194C230.006 38.7136 230.223 37.6546 230.656 36.7425C231.104 35.8149 231.722 35.096 232.511 34.5858C233.299 34.0602 234.211 33.7974 235.247 33.7974C236.608 33.7974 237.713 34.2535 238.563 35.1656C239.429 36.0622 239.924 37.2913 240.047 38.8527H231.305C231.289 39.0382 231.282 39.2238 231.282 39.4093C231.282 41.0944 231.691 42.4317 232.511 43.4211C233.346 44.4105 234.474 44.9052 235.896 44.9052C237.489 44.9052 238.687 44.2791 239.491 43.0269L239.839 43.2124C238.957 45.083 237.481 46.0183 235.409 46.0183C234.327 46.0183 233.376 45.7632 232.557 45.2531C231.753 44.7429 231.127 44.0317 230.679 43.1196C230.23 42.192 230.006 41.1253 230.006 39.9194ZM232.557 35.467C231.923 36.1473 231.521 37.0671 231.351 38.2266H238.54C238.385 37.0207 237.999 36.0932 237.381 35.4439C236.778 34.7791 235.997 34.4467 235.038 34.4467C234.033 34.4467 233.206 34.7868 232.557 35.467Z" fill="#013D5B"/>
<path d="M215.449 45.2994C216.098 45.1912 216.531 45.0212 216.748 44.7893C216.964 44.5574 217.072 44.1709 217.072 43.6298V36.4874C217.072 35.8999 216.964 35.498 216.748 35.2815C216.547 35.0496 216.114 34.8796 215.449 34.7714V34.4235L217.954 34.0293C218.093 34.3076 218.185 34.5781 218.232 34.8409C218.294 35.0883 218.325 35.4129 218.325 35.8149C219.345 34.4699 220.713 33.7974 222.429 33.7974C223.759 33.7974 224.787 34.1839 225.513 34.9569C226.255 35.7144 226.626 36.7966 226.626 38.2034V43.6298C226.626 44.1709 226.727 44.5574 226.928 44.7893C227.144 45.0212 227.585 45.1912 228.25 45.2994V45.6473H223.681V45.2994C224.346 45.1912 224.787 45.0212 225.003 44.7893C225.22 44.5574 225.328 44.1709 225.328 43.6298V38.273C225.328 37.0362 225.057 36.1009 224.516 35.467C223.975 34.8177 223.187 34.4931 222.151 34.4931C220.976 34.4931 220.048 34.895 219.368 35.6989C218.703 36.5028 218.371 37.5696 218.371 38.8991V43.6298C218.371 44.1709 218.471 44.5574 218.672 44.7893C218.889 45.0212 219.329 45.1912 219.994 45.2994V45.6473H215.449V45.2994Z" fill="#013D5B"/>
<path d="M208.95 45.2994C209.599 45.1912 210.032 45.0212 210.248 44.7893C210.465 44.5574 210.573 44.1709 210.573 43.6298V36.3714C210.573 35.8303 210.457 35.4516 210.225 35.2351C210.009 35.0032 209.584 34.8564 208.95 34.7945V34.4699L211.756 34.0293L211.964 34.238C211.903 34.7327 211.872 35.2429 211.872 35.7685V43.6298C211.872 44.1709 211.972 44.5574 212.173 44.7893C212.39 45.0212 212.83 45.1912 213.495 45.2994V45.6473H208.95V45.2994ZM209.993 30.1334C209.993 29.8242 210.094 29.5692 210.295 29.3682C210.511 29.1672 210.766 29.0667 211.06 29.0667C211.369 29.0667 211.617 29.1672 211.802 29.3682C212.003 29.5692 212.104 29.8242 212.104 30.1334C212.104 30.4426 212.003 30.6977 211.802 30.8987C211.617 31.0842 211.369 31.177 211.06 31.177C210.766 31.177 210.511 31.0842 210.295 30.8987C210.094 30.6977 209.993 30.4426 209.993 30.1334Z" fill="#013D5B"/>
<path d="M205.385 43.166C205.385 42.5476 205.154 42.0297 204.69 41.6123C204.226 41.1794 203.407 40.7388 202.232 40.2905C200.825 39.7494 199.828 39.2083 199.24 38.6672C198.653 38.1107 198.359 37.4614 198.359 36.7193C198.359 35.8381 198.715 35.1347 199.426 34.609C200.137 34.0679 201.08 33.7974 202.255 33.7974C202.811 33.7974 203.407 33.867 204.04 34.0061C204.69 34.1298 205.293 34.3076 205.849 34.5395L206.29 37.4382L205.942 37.5309C205.509 36.4333 204.991 35.6448 204.388 35.1656C203.801 34.6709 203.051 34.4235 202.139 34.4235C201.335 34.4235 200.709 34.5936 200.261 34.9337C199.812 35.2583 199.588 35.7221 199.588 36.3251C199.588 36.8971 199.828 37.3841 200.307 37.786C200.786 38.1725 201.636 38.6054 202.858 39.0846C203.816 39.4557 204.566 39.8112 205.107 40.1513C205.648 40.4915 206.035 40.8548 206.267 41.2413C206.499 41.6277 206.614 42.0761 206.614 42.5863C206.614 43.6066 206.236 44.4337 205.478 45.0675C204.736 45.7014 203.754 46.0183 202.533 46.0183C201.915 46.0183 201.25 45.9256 200.539 45.74C199.843 45.57 199.194 45.3304 198.591 45.0212L198.15 42.0761L198.498 41.9833C199.348 44.2559 200.74 45.3922 202.672 45.3922C203.523 45.3922 204.187 45.1989 204.667 44.8125C205.146 44.4105 205.385 43.8617 205.385 43.166Z" fill="#013D5B"/>
<path d="M185.044 41.6123V36.3714C185.044 35.8613 184.943 35.4902 184.742 35.2583C184.541 35.011 184.108 34.8564 183.444 34.7946V34.4467L186.226 34.0293L186.458 34.2612C186.397 34.7404 186.366 35.2506 186.366 35.7917V41.5427C186.366 42.764 186.621 43.6994 187.131 44.3487C187.657 44.998 188.422 45.3226 189.427 45.3226C190.555 45.3226 191.46 44.9361 192.14 44.1632C192.82 43.3747 193.16 42.3234 193.16 41.0094V36.0004C193.16 35.583 193.067 35.2893 192.882 35.1192C192.712 34.9337 192.302 34.8177 191.653 34.7714V34.4235L194.366 34.0293L194.552 34.238C194.49 34.7327 194.459 35.2583 194.459 35.8149V43.5138C194.459 44.0859 194.567 44.4955 194.783 44.7429C195.015 44.9902 195.448 45.1758 196.082 45.2994V45.6473L193.578 45.856C193.33 45.4231 193.207 44.8666 193.207 44.1863V43.9313C192.202 45.3226 190.841 46.0183 189.125 46.0183C187.827 46.0183 186.822 45.6396 186.111 44.882C185.399 44.109 185.044 43.0191 185.044 41.6123Z" fill="#013D5B"/>
<path d="M169.684 45.253C170.38 45.1448 170.836 44.9748 171.052 44.7429C171.284 44.4955 171.4 44.0781 171.4 43.4906V31.5712C171.4 30.9837 171.284 30.574 171.052 30.3421C170.836 30.0948 170.38 29.917 169.684 29.8088V29.4146H174.786C176.826 29.4146 178.396 29.7547 179.493 30.4349C180.606 31.0997 181.163 32.0659 181.163 33.3336C181.163 35.2042 179.973 36.441 177.592 37.0439C179.045 37.2604 180.158 37.7242 180.931 38.4353C181.719 39.1465 182.114 40.074 182.114 41.2181C182.114 42.6403 181.495 43.738 180.259 44.511C179.037 45.2685 177.29 45.6473 175.018 45.6473H169.684V45.253ZM172.791 43.4443C172.791 44.0008 172.892 44.395 173.093 44.6269C173.309 44.8588 173.704 44.9748 174.276 44.9748H175.018C178.759 44.9748 180.63 43.7844 180.63 41.4036C180.63 40.1977 180.166 39.2547 179.238 38.5744C178.326 37.8942 177.043 37.5541 175.389 37.5541H172.791V43.4443ZM179.725 33.5887C179.725 32.522 179.277 31.6717 178.38 31.0378C177.484 30.404 176.231 30.0871 174.623 30.0871H172.791V36.8816H174.09C175.976 36.8816 177.383 36.5956 178.311 36.0236C179.254 35.4516 179.725 34.6399 179.725 33.5887Z" fill="#013D5B"/>
<path d="M157.436 45.2762C158.271 45.1989 158.742 45.0211 158.85 44.7429C158.974 44.4491 158.866 44.0395 158.526 43.5138L154.885 37.9715L151.151 43.5138C150.811 44.0395 150.711 44.4491 150.85 44.7429C150.989 45.0211 151.414 45.1989 152.125 45.2762V45.6473H147.928V45.2762C148.469 45.1989 148.887 45.0521 149.18 44.8356C149.49 44.6037 149.806 44.2559 150.131 43.7921L154.491 37.3686L150.456 31.2001C150.162 30.7518 149.876 30.4272 149.598 30.2262C149.335 30.0098 148.925 29.8629 148.369 29.7856V29.4146H153.401V29.7856C152.504 29.8474 152.009 30.0252 151.917 30.3189C151.824 30.5972 151.948 31.0069 152.288 31.548L155.511 36.4642L158.804 31.548C159.175 30.9914 159.283 30.574 159.129 30.2958C158.99 30.002 158.526 29.832 157.737 29.7856V29.4146H162.051V29.7856C161.68 29.832 161.378 29.9015 161.146 29.9943C160.914 30.087 160.698 30.2339 160.497 30.4349C160.311 30.6204 160.087 30.8987 159.824 31.2697L155.905 37.0671L160.381 43.8617C160.69 44.31 160.976 44.6347 161.239 44.8356C161.502 45.0212 161.911 45.168 162.468 45.2762V45.6473H157.436V45.2762Z" fill="#013D5B"/>
<path d="M130.998 39.9194C130.998 38.7136 131.214 37.6546 131.647 36.7425C132.095 35.8149 132.714 35.096 133.502 34.5858C134.29 34.0602 135.203 33.7974 136.238 33.7974C137.599 33.7974 138.704 34.2535 139.555 35.1656C140.42 36.0622 140.915 37.2913 141.039 38.8527H132.296C132.281 39.0382 132.273 39.2238 132.273 39.4093C132.273 41.0944 132.683 42.4317 133.502 43.4211C134.337 44.4105 135.465 44.9052 136.888 44.9052C138.48 44.9052 139.678 44.2791 140.482 43.0269L140.83 43.2124C139.949 45.083 138.472 46.0183 136.401 46.0183C135.319 46.0183 134.368 45.7632 133.548 45.2531C132.745 44.7429 132.118 44.0317 131.67 43.1196C131.222 42.192 130.998 41.1253 130.998 39.9194ZM133.548 35.467C132.915 36.1473 132.513 37.0671 132.343 38.2266H139.531C139.377 37.0207 138.99 36.0932 138.372 35.4439C137.769 34.7791 136.988 34.4467 136.03 34.4467C135.025 34.4467 134.198 34.7868 133.548 35.467Z" fill="#013D5B"/>
<path d="M120.947 45.2994C121.596 45.2067 122.029 45.0444 122.246 44.8125C122.462 44.5806 122.57 44.1863 122.57 43.6298V36.4642C122.57 35.8922 122.47 35.498 122.269 35.2815C122.068 35.0496 121.627 34.8796 120.947 34.7714V34.4235L123.451 34.0293C123.591 34.323 123.683 34.5936 123.73 34.8409C123.792 35.0728 123.823 35.3743 123.823 35.7453C124.178 35.1269 124.626 34.6477 125.168 34.3076C125.724 33.9675 126.335 33.7974 127 33.7974C127.834 33.7974 128.623 34.0757 129.365 34.6322L129.597 37.5309L129.249 37.6005C128.924 36.5492 128.545 35.784 128.113 35.3047C127.68 34.81 127.146 34.5627 126.513 34.5627C125.709 34.5627 125.067 34.9337 124.588 35.6758C124.109 36.4024 123.869 37.3918 123.869 38.644V43.6298C123.869 44.1863 124.008 44.5806 124.286 44.8125C124.58 45.0444 125.137 45.2067 125.956 45.2994V45.6473H120.947V45.2994Z" fill="#013D5B"/>
<path d="M107.957 41.6123V36.3714C107.957 35.8613 107.856 35.4902 107.655 35.2583C107.454 35.011 107.021 34.8564 106.356 34.7946V34.4467L109.139 34.0293L109.371 34.2612C109.309 34.7404 109.278 35.2506 109.278 35.7917V41.5427C109.278 42.764 109.533 43.6994 110.044 44.3487C110.569 44.998 111.334 45.3226 112.339 45.3226C113.468 45.3226 114.372 44.9361 115.053 44.1632C115.733 43.3747 116.073 42.3234 116.073 41.0094V36.0004C116.073 35.583 115.98 35.2893 115.795 35.1192C115.625 34.9337 115.215 34.8177 114.566 34.7714V34.4235L117.279 34.0293L117.464 34.238C117.402 34.7327 117.372 35.2583 117.372 35.8149V43.5138C117.372 44.0859 117.48 44.4955 117.696 44.7429C117.928 44.9902 118.361 45.1758 118.995 45.2994V45.6473L116.49 45.856C116.243 45.4231 116.119 44.8666 116.119 44.1863V43.9313C115.114 45.3226 113.754 46.0183 112.038 46.0183C110.739 46.0183 109.734 45.6396 109.023 44.882C108.312 44.109 107.957 43.0191 107.957 41.6123Z" fill="#013D5B"/>
<path d="M97.6134 34.1684H99.2367V31.7567L100.419 31.5712L100.628 31.7799C100.566 32.2746 100.535 32.7848 100.535 33.3104V34.1684H104.222V34.7946H100.535V43.0269C100.535 43.6916 100.682 44.2018 100.976 44.5574C101.285 44.9129 101.71 45.0907 102.251 45.0907C102.978 45.0907 103.596 44.7197 104.106 43.9776L104.431 44.1631C103.828 45.3999 102.939 46.0183 101.764 46.0183C100.96 46.0183 100.334 45.7632 99.886 45.2531C99.4531 44.7274 99.2367 43.9776 99.2367 43.0037V34.7946H97.6134V34.1684Z" fill="#013D5B"/>
<path d="M83.2186 45.2994C83.8679 45.1912 84.3008 45.0212 84.5173 44.7893C84.7337 44.5574 84.8419 44.1709 84.8419 43.6298V36.4874C84.8419 35.8999 84.7337 35.498 84.5173 35.2815C84.3163 35.0496 83.8834 34.8796 83.2186 34.7714V34.4235L85.7231 34.0293C85.8622 34.3076 85.955 34.5781 86.0014 34.8409C86.0632 35.0883 86.0941 35.4129 86.0941 35.8149C87.1145 34.4699 88.4827 33.7974 90.1987 33.7974C91.5282 33.7974 92.5563 34.1839 93.2829 34.9569C94.025 35.7144 94.396 36.7966 94.396 38.2034V43.6298C94.396 44.1709 94.4965 44.5574 94.6975 44.7893C94.9139 45.0212 95.3545 45.1912 96.0193 45.2994V45.6473H91.4509V45.2994C92.1157 45.1912 92.5563 45.0212 92.7727 44.7893C92.9892 44.5574 93.0974 44.1709 93.0974 43.6298V38.273C93.0974 37.0362 92.8268 36.1009 92.2858 35.467C91.7447 34.8177 90.9562 34.4931 89.9204 34.4931C88.7455 34.4931 87.8179 34.895 87.1377 35.6989C86.4729 36.5028 86.1405 37.5696 86.1405 38.8991V43.6298C86.1405 44.1709 86.241 44.5574 86.442 44.7893C86.6584 45.0212 87.099 45.1912 87.7638 45.2994V45.6473H83.2186V45.2994Z" fill="#013D5B"/>
<path d="M71.1665 39.9194C71.1665 38.7136 71.3829 37.6546 71.8158 36.7425C72.2641 35.8149 72.8825 35.096 73.671 34.5858C74.4594 34.0602 75.3716 33.7974 76.4074 33.7974C77.7678 33.7974 78.8732 34.2535 79.7235 35.1656C80.5892 36.0622 81.0839 37.2913 81.2076 38.8527H72.4651C72.4497 39.0382 72.4419 39.2238 72.4419 39.4093C72.4419 41.0944 72.8516 42.4317 73.671 43.4211C74.5058 44.4105 75.6344 44.9052 77.0567 44.9052C78.649 44.9052 79.8471 44.2791 80.6511 43.0269L80.9989 43.2124C80.1177 45.083 78.6413 46.0183 76.5697 46.0183C75.4875 46.0183 74.5367 45.7632 73.7174 45.2531C72.9135 44.7429 72.2873 44.0317 71.839 43.1196C71.3907 42.192 71.1665 41.1253 71.1665 39.9194ZM73.7174 35.467C73.0835 36.1473 72.6816 37.0671 72.5115 38.2266H79.7003C79.5457 37.0207 79.1592 36.0932 78.5408 35.4439C77.9379 34.7791 77.1571 34.4467 76.1986 34.4467C75.1938 34.4467 74.3667 34.7868 73.7174 35.467Z" fill="#013D5B"/>
<path d="M55.7811 29.4146H60.7901V29.7856C59.9862 29.8474 59.476 30.0175 59.2596 30.2958C59.0431 30.574 59.0354 30.9605 59.2364 31.4552L64.083 43.7225L68.9064 31.548C69.1229 31.0069 69.1074 30.5895 68.8601 30.2958C68.6282 30.002 68.118 29.832 67.3295 29.7856V29.4146H71.6196V29.7856C71.0785 29.8474 70.6843 30.002 70.437 30.2494C70.1896 30.4813 69.95 30.891 69.7181 31.4784L63.8975 45.8792H63.4801L57.6827 31.4784C57.4353 30.891 57.1957 30.4813 56.9638 30.2494C56.7319 30.0175 56.3377 29.8629 55.7811 29.7856V29.4146Z" fill="#013D5B"/>
<path d="M36.1573 45.2994C36.8067 45.1912 37.2395 45.0212 37.456 44.7893C37.6724 44.5574 37.7806 44.1631 37.7806 43.6066V30.3653C37.7806 29.8242 37.6647 29.4455 37.4328 29.229C37.2163 28.9972 36.7912 28.8503 36.1573 28.7884V28.4406L38.9633 28L39.172 28.2087C39.1102 28.7034 39.0792 29.2213 39.0792 29.7624V35.7453C40.0841 34.4467 41.4368 33.7974 43.1374 33.7974C44.467 33.7974 45.495 34.1839 46.2216 34.9569C46.9637 35.7144 47.3347 36.7966 47.3347 38.2034V43.6298C47.3347 44.1709 47.4352 44.5574 47.6362 44.7893C47.8526 45.0212 48.2932 45.1912 48.958 45.2994V45.6473H44.3897V45.2994C45.0544 45.1912 45.495 45.0212 45.7115 44.7893C45.9279 44.5574 46.0361 44.1709 46.0361 43.6298V38.273C46.0361 37.0362 45.7656 36.1009 45.2245 35.467C44.6834 34.8177 43.8949 34.4931 42.8591 34.4931C41.6842 34.4931 40.7566 34.895 40.0764 35.6989C39.4116 36.5029 39.0792 37.5696 39.0792 38.8991V43.6762C39.0792 44.2173 39.1797 44.6038 39.3807 44.8356C39.5971 45.0521 40.0377 45.2067 40.7025 45.2994V45.6473H36.1573V45.2994Z" fill="#013D5B"/>
<path d="M27.252 34.1684H28.8752V31.7567L30.0579 31.5712L30.2666 31.7799C30.2048 32.2746 30.1738 32.7848 30.1738 33.3104V34.1684H33.861V34.7946H30.1738V43.0269C30.1738 43.6916 30.3207 44.2018 30.6144 44.5574C30.9236 44.9129 31.3488 45.0907 31.8899 45.0907C32.6165 45.0907 33.2349 44.7197 33.745 43.9776L34.0697 44.1631C33.4668 45.3999 32.5778 46.0183 31.4029 46.0183C30.599 46.0183 29.9729 45.7632 29.5245 45.2531C29.0917 44.7274 28.8752 43.9776 28.8752 43.0037V34.7946H27.252V34.1684Z" fill="#013D5B"/>
<path d="M21.1005 45.2994C21.7498 45.1912 22.1826 45.0212 22.3991 44.7893C22.6155 44.5574 22.7237 44.1709 22.7237 43.6298V36.3714C22.7237 35.8303 22.6078 35.4516 22.3759 35.2351C22.1595 35.0032 21.7343 34.8564 21.1005 34.7945V34.4699L23.9064 34.0293L24.1151 34.238C24.0533 34.7327 24.0224 35.2429 24.0224 35.7685V43.6298C24.0224 44.1709 24.1228 44.5574 24.3238 44.7893C24.5403 45.0212 24.9809 45.1912 25.6456 45.2994V45.6473H21.1005V45.2994ZM22.144 30.1334C22.144 29.8242 22.2445 29.5692 22.4455 29.3682C22.6619 29.1672 22.917 29.0667 23.2107 29.0667C23.5199 29.0667 23.7673 29.1672 23.9528 29.3682C24.1538 29.5692 24.2542 29.8242 24.2542 30.1334C24.2542 30.4426 24.1538 30.6977 23.9528 30.8987C23.7673 31.0842 23.5199 31.177 23.2107 31.177C22.917 31.177 22.6619 31.0842 22.4455 30.8987C22.2445 30.6977 22.144 30.4426 22.144 30.1334Z" fill="#013D5B"/>
<path d="M0 34.1684H4.63792V34.5163C3.89585 34.5781 3.43979 34.725 3.26973 34.9569C3.11514 35.1733 3.13833 35.5521 3.3393 36.0932L6.35395 43.8617L9.43817 36.0004L9.29903 35.6294C9.14443 35.2583 8.95118 34.9955 8.71929 34.8409C8.48739 34.6863 8.11636 34.5781 7.60619 34.5163V34.1684H12.2441V34.5163C11.502 34.5781 11.046 34.725 10.8759 34.9569C10.7213 35.1733 10.7445 35.5521 10.9455 36.0932L13.9833 43.8849L17.0212 36.0932C17.2376 35.5521 17.2608 35.1733 17.0907 34.9569C16.9207 34.725 16.4646 34.5781 15.7225 34.5163V34.1684H19.5952V34.5163C19.1005 34.5781 18.7372 34.6863 18.5053 34.8409C18.2734 34.9955 18.0802 35.2583 17.9256 35.6294L13.7978 45.8792H13.4036L9.8092 36.8816L6.19162 45.8792H5.7974L1.66965 35.6294C1.53051 35.2583 1.345 34.9955 1.1131 34.8409C0.881205 34.6863 0.510171 34.5781 0 34.5163V34.1684Z" fill="#013D5B"/>
<path d="M256.753 15.166C256.753 14.5476 256.521 14.0297 256.058 13.6123C255.594 13.1794 254.775 12.7388 253.6 12.2905C252.193 11.7494 251.196 11.2083 250.608 10.6672C250.021 10.1107 249.727 9.46135 249.727 8.71928C249.727 7.83808 250.082 7.13466 250.794 6.60903C251.505 6.06794 252.448 5.79739 253.623 5.79739C254.179 5.79739 254.774 5.86696 255.408 6.0061C256.058 6.12978 256.661 6.30757 257.217 6.53946L257.658 9.43816L257.31 9.53092C256.877 8.43328 256.359 7.64483 255.756 7.16558C255.169 6.67087 254.419 6.42351 253.507 6.42351C252.703 6.42351 252.077 6.59357 251.628 6.93368C251.18 7.25834 250.956 7.72213 250.956 8.32506C250.956 8.89707 251.196 9.38405 251.675 9.786C252.154 10.1725 253.004 10.6054 254.226 11.0846C255.184 11.4557 255.934 11.8112 256.475 12.1513C257.016 12.4915 257.403 12.8548 257.635 13.2413C257.866 13.6277 257.982 14.0761 257.982 14.5863C257.982 15.6066 257.604 16.4337 256.846 17.0675C256.104 17.7014 255.122 18.0183 253.901 18.0183C253.283 18.0183 252.618 17.9256 251.907 17.74C251.211 17.57 250.562 17.3304 249.959 17.0212L249.518 14.0761L249.866 13.9833C250.716 16.2559 252.108 17.3922 254.04 17.3922C254.89 17.3922 255.555 17.1989 256.034 16.8125C256.514 16.4105 256.753 15.8617 256.753 15.166Z" fill="#013D5B"/>
<path d="M237.35 11.9194C237.35 10.7136 237.567 9.6546 238 8.74247C238.448 7.81489 239.066 7.09601 239.855 6.58584C240.643 6.06021 241.555 5.79739 242.591 5.79739C243.952 5.79739 245.057 6.25346 245.907 7.16558C246.773 8.06224 247.268 9.29129 247.391 10.8527H238.649C238.633 11.0382 238.626 11.2238 238.626 11.4093C238.626 13.0944 239.035 14.4317 239.855 15.4211C240.69 16.4105 241.818 16.9052 243.24 16.9052C244.833 16.9052 246.031 16.2791 246.835 15.0269L247.183 15.2124C246.301 17.083 244.825 18.0183 242.753 18.0183C241.671 18.0183 240.72 17.7632 239.901 17.2531C239.097 16.7429 238.471 16.0317 238.023 15.1196C237.574 14.192 237.35 13.1253 237.35 11.9194ZM239.901 7.46705C239.267 8.14727 238.865 9.06713 238.695 10.2266H245.884C245.729 9.02075 245.343 8.09316 244.725 7.44386C244.122 6.77909 243.341 6.4467 242.382 6.4467C241.377 6.4467 240.55 6.78682 239.901 7.46705Z" fill="#013D5B"/>
<path d="M231.034 17.2994C231.698 17.1912 232.131 17.0212 232.332 16.7893C232.549 16.5574 232.657 16.1709 232.657 15.6298V2.36534C232.657 1.82425 232.541 1.44549 232.309 1.22905C232.093 0.997153 231.667 0.850285 231.034 0.788446V0.440602L233.84 0L234.048 0.208706C233.986 0.687958 233.955 1.19813 233.955 1.73922V15.6298C233.955 16.1709 234.056 16.5574 234.257 16.7893C234.473 17.0212 234.914 17.1912 235.579 17.2994V17.6473H231.034V17.2994Z" fill="#013D5B"/>
<path d="M224.65 17.2994C225.299 17.1912 225.732 17.0212 225.949 16.7893C226.165 16.5574 226.273 16.1709 226.273 15.6298V8.37143C226.273 7.83034 226.157 7.45158 225.926 7.23514C225.709 7.00325 225.284 6.85638 224.65 6.79454V6.46989L227.456 6.02928L227.665 6.23799C227.603 6.7327 227.572 7.24287 227.572 7.7685V15.6298C227.572 16.1709 227.673 16.5574 227.874 16.7893C228.09 17.0212 228.531 17.1912 229.195 17.2994V17.6473H224.65V17.2994ZM225.694 2.13343C225.694 1.82424 225.794 1.56915 225.995 1.36818C226.212 1.1672 226.467 1.06671 226.76 1.06671C227.07 1.06671 227.317 1.1672 227.502 1.36818C227.703 1.56915 227.804 1.82424 227.804 2.13343C227.804 2.44263 227.703 2.69771 227.502 2.89869C227.317 3.08421 227.07 3.17696 226.76 3.17696C226.467 3.17696 226.212 3.08421 225.995 2.89869C225.794 2.69771 225.694 2.44263 225.694 2.13343Z" fill="#013D5B"/>
<path d="M202.321 17.2994C202.97 17.1912 203.403 17.0212 203.62 16.7893C203.836 16.5574 203.944 16.1709 203.944 15.6298V8.48739C203.944 7.89992 203.836 7.49796 203.62 7.28153C203.419 7.04963 202.986 6.87958 202.321 6.77136V6.42351L204.826 6.02929C204.965 6.29211 205.057 6.54719 205.104 6.79455C205.166 7.0419 205.197 7.36656 205.197 7.76851C206.155 6.45443 207.454 5.79739 209.092 5.79739C210.035 5.79739 210.824 6.01383 211.458 6.4467C212.107 6.87958 212.555 7.49023 212.803 8.27868C213.777 6.62449 215.184 5.79739 217.023 5.79739C218.322 5.79739 219.319 6.18389 220.015 6.95687C220.726 7.7144 221.081 8.79658 221.081 10.2034V15.6298C221.081 16.1709 221.19 16.5574 221.406 16.7893C221.623 17.0212 222.055 17.1912 222.705 17.2994V17.6473H218.16V17.2994C218.824 17.1912 219.257 17.0212 219.458 16.7893C219.675 16.5574 219.783 16.1709 219.783 15.6298V10.273C219.783 9.03621 219.52 8.10089 218.994 7.46705C218.484 6.81774 217.727 6.49308 216.722 6.49308C215.609 6.49308 214.735 6.89503 214.101 7.69894C213.483 8.50285 213.174 9.56957 213.174 10.8991V15.6066C213.174 16.1631 213.274 16.5574 213.475 16.7893C213.692 17.0212 214.132 17.1912 214.797 17.2994V17.6473H210.229V17.2994C210.893 17.1912 211.326 17.0212 211.527 16.7893C211.744 16.5574 211.852 16.1709 211.852 15.6298V10.273C211.852 9.03621 211.589 8.10089 211.064 7.46705C210.553 6.81774 209.796 6.49308 208.791 6.49308C207.693 6.49308 206.828 6.89503 206.194 7.69894C205.56 8.50285 205.243 9.56957 205.243 10.8991V15.6066C205.243 16.1631 205.343 16.5574 205.544 16.7893C205.761 17.0212 206.201 17.1912 206.866 17.2994V17.6473H202.321V17.2994Z" fill="#013D5B"/>
<path d="M190.189 17.2762C191.024 17.1989 191.495 17.0211 191.603 16.7429C191.727 16.4491 191.619 16.0395 191.279 15.5138L187.638 9.97151L183.904 15.5138C183.564 16.0395 183.464 16.4491 183.603 16.7429C183.742 17.0211 184.167 17.1989 184.878 17.2762V17.6473H180.681V17.2762C181.222 17.1989 181.64 17.0521 181.933 16.8356C182.242 16.6037 182.559 16.2559 182.884 15.7921L187.244 9.36858L183.209 3.20015C182.915 2.75182 182.629 2.42716 182.351 2.22619C182.088 2.00975 181.678 1.86288 181.122 1.78559V1.41455H186.154V1.78559C185.257 1.84742 184.762 2.02521 184.67 2.31895C184.577 2.59722 184.701 3.0069 185.041 3.54799L188.264 8.46419L191.557 3.54799C191.928 2.99144 192.036 2.57403 191.882 2.29576C191.742 2.00202 191.279 1.83196 190.49 1.78559V1.41455H194.803V1.78559C194.432 1.83196 194.131 1.90153 193.899 1.99429C193.667 2.08705 193.451 2.23392 193.25 2.43489C193.064 2.62041 192.84 2.89869 192.577 3.26972L188.658 9.06712L193.134 15.8617C193.443 16.31 193.729 16.6347 193.992 16.8356C194.255 17.0211 194.664 17.168 195.221 17.2762V17.6473H190.189V17.2762Z" fill="#013D5B"/>
<path d="M176.551 5.00894C176.551 4.05043 176.265 3.3161 175.693 2.80593C175.121 2.2803 174.402 2.01748 173.537 2.01748C172.516 2.01748 171.681 2.34214 171.032 2.99144C170.398 3.62529 169.873 4.64564 169.455 6.05247L169.084 5.9829L169.571 2.43489C170.251 2.11024 170.955 1.86288 171.681 1.69283C172.408 1.50731 173.104 1.41455 173.769 1.41455C175.098 1.41455 176.142 1.73921 176.899 2.38851C177.657 3.03782 178.035 3.95768 178.035 5.14808C178.035 5.72009 177.865 6.3462 177.525 7.02643C177.185 7.6912 176.644 8.47965 175.902 9.39177C175.16 10.2884 174.186 11.4015 172.98 12.7311L169.71 16.4182H176.041C176.629 16.4182 177.085 16.3564 177.409 16.2327C177.749 16.109 178.028 15.8617 178.244 15.4906C178.461 15.1196 178.685 14.5708 178.917 13.8442L179.288 13.9137L178.731 17.6473H168.412L168.249 17.2762L172.424 12.1977C173.413 11.0073 174.209 10.0102 174.812 9.20625C175.415 8.38689 175.856 7.65255 176.134 7.00324C176.412 6.35393 176.551 5.68917 176.551 5.00894Z" fill="#013D5B"/>
<path d="M149.189 12.0818C149.189 10.845 149.421 9.75509 149.885 8.81205C150.348 7.869 150.99 7.13467 151.809 6.60904C152.644 6.06794 153.595 5.7974 154.662 5.7974C155.373 5.7974 156.061 5.92108 156.726 6.16843C157.39 6.41579 157.97 6.7559 158.465 7.18877V2.34215C158.465 1.80106 158.349 1.42229 158.117 1.20586C157.901 0.973963 157.475 0.827096 156.842 0.765256V0.417413L159.647 0L159.856 0.208706C159.794 0.687958 159.763 1.19813 159.763 1.73922V15.5138C159.763 16.0858 159.872 16.4955 160.088 16.7429C160.32 16.9902 160.753 17.1758 161.387 17.2994V17.6473L158.882 17.856C158.635 17.4231 158.511 16.8666 158.511 16.1863V16.024C157.506 17.3535 156.154 18.0183 154.453 18.0183C153.386 18.0183 152.459 17.771 151.67 17.2762C150.882 16.7661 150.271 16.0704 149.838 15.1892C149.405 14.2925 149.189 13.2567 149.189 12.0818ZM150.557 11.6412C150.557 12.7697 150.735 13.7592 151.091 14.6094C151.446 15.4597 151.941 16.1245 152.575 16.6038C153.208 17.083 153.943 17.3226 154.778 17.3226C155.875 17.3226 156.764 16.9207 157.444 16.1168C158.125 15.3129 158.465 14.2539 158.465 12.9398V10.2266C158.465 9.51546 158.287 8.88162 157.931 8.32507C157.591 7.75306 157.12 7.29699 156.517 6.95688C155.914 6.61677 155.241 6.44671 154.499 6.44671C153.294 6.44671 152.335 6.9105 151.624 7.83808C150.913 8.76567 150.557 10.0334 150.557 11.6412Z" fill="#013D5B"/>
<path d="M137.322 11.9194C137.322 10.7136 137.539 9.6546 137.972 8.74247C138.42 7.81489 139.038 7.09601 139.827 6.58584C140.615 6.06021 141.527 5.79739 142.563 5.79739C143.924 5.79739 145.029 6.25346 145.879 7.16558C146.745 8.06224 147.24 9.29129 147.363 10.8527H138.621C138.606 11.0382 138.598 11.2238 138.598 11.4093C138.598 13.0944 139.007 14.4317 139.827 15.4211C140.662 16.4105 141.79 16.9052 143.213 16.9052C144.805 16.9052 146.003 16.2791 146.807 15.0269L147.155 15.2124C146.274 17.083 144.797 18.0183 142.726 18.0183C141.643 18.0183 140.693 17.7632 139.873 17.2531C139.069 16.7429 138.443 16.0317 137.995 15.1196C137.547 14.192 137.322 13.1253 137.322 11.9194ZM139.873 7.46705C139.239 8.14727 138.837 9.06713 138.667 10.2266H145.856C145.702 9.02075 145.315 8.09316 144.697 7.44386C144.094 6.77909 143.313 6.4467 142.355 6.4467C141.35 6.4467 140.523 6.78682 139.873 7.46705Z" fill="#013D5B"/>
<path d="M128.713 6.16843H130.336V3.75671L131.519 3.5712L131.728 3.7799C131.666 4.27462 131.635 4.78479 131.635 5.31042V6.16843H135.322V6.79455H131.635V15.0269C131.635 15.6916 131.782 16.2018 132.076 16.5574C132.385 16.9129 132.81 17.0907 133.351 17.0907C134.078 17.0907 134.696 16.7197 135.206 15.9776L135.531 16.1631C134.928 17.3999 134.039 18.0183 132.864 18.0183C132.06 18.0183 131.434 17.7632 130.986 17.2531C130.553 16.7274 130.336 15.9776 130.336 15.0037V6.79455H128.713V6.16843Z" fill="#013D5B"/>
<path d="M122.562 17.2994C123.211 17.1912 123.644 17.0212 123.86 16.7893C124.077 16.5574 124.185 16.1709 124.185 15.6298V8.37143C124.185 7.83034 124.069 7.45158 123.837 7.23514C123.621 7.00325 123.195 6.85638 122.562 6.79454V6.46989L125.367 6.02928L125.576 6.23799C125.514 6.7327 125.483 7.24287 125.483 7.7685V15.6298C125.483 16.1709 125.584 16.5574 125.785 16.7893C126.001 17.0212 126.442 17.1912 127.107 17.2994V17.6473H122.562V17.2994ZM123.605 2.13343C123.605 1.82424 123.706 1.56915 123.907 1.36818C124.123 1.1672 124.378 1.06671 124.672 1.06671C124.981 1.06671 125.228 1.1672 125.414 1.36818C125.615 1.56915 125.715 1.82424 125.715 2.13343C125.715 2.44263 125.615 2.69771 125.414 2.89869C125.228 3.08421 124.981 3.17696 124.672 3.17696C124.378 3.17696 124.123 3.08421 123.907 2.89869C123.706 2.69771 123.605 2.44263 123.605 2.13343Z" fill="#013D5B"/>
<path d="M100.232 17.2994C100.882 17.1912 101.315 17.0212 101.531 16.7893C101.747 16.5574 101.856 16.1709 101.856 15.6298V8.48739C101.856 7.89992 101.747 7.49796 101.531 7.28153C101.33 7.04963 100.897 6.87958 100.232 6.77136V6.42351L102.737 6.02929C102.876 6.29211 102.969 6.54719 103.015 6.79455C103.077 7.0419 103.108 7.36656 103.108 7.76851C104.066 6.45443 105.365 5.79739 107.004 5.79739C107.947 5.79739 108.735 6.01383 109.369 6.4467C110.018 6.87958 110.467 7.49023 110.714 8.27868C111.688 6.62449 113.095 5.79739 114.935 5.79739C116.233 5.79739 117.23 6.18389 117.926 6.95687C118.637 7.7144 118.993 8.79658 118.993 10.2034V15.6298C118.993 16.1709 119.101 16.5574 119.317 16.7893C119.534 17.0212 119.967 17.1912 120.616 17.2994V17.6473H116.071V17.2994C116.736 17.1912 117.169 17.0212 117.37 16.7893C117.586 16.5574 117.694 16.1709 117.694 15.6298V10.273C117.694 9.03621 117.431 8.10089 116.906 7.46705C116.396 6.81774 115.638 6.49308 114.633 6.49308C113.52 6.49308 112.647 6.89503 112.013 7.69894C111.394 8.50285 111.085 9.56957 111.085 10.8991V15.6066C111.085 16.1631 111.186 16.5574 111.387 16.7893C111.603 17.0212 112.044 17.1912 112.708 17.2994V17.6473H108.14V17.2994C108.805 17.1912 109.238 17.0212 109.439 16.7893C109.655 16.5574 109.763 16.1709 109.763 15.6298V10.273C109.763 9.03621 109.501 8.10089 108.975 7.46705C108.465 6.81774 107.707 6.49308 106.702 6.49308C105.605 6.49308 104.739 6.89503 104.105 7.69894C103.471 8.50285 103.154 9.56957 103.154 10.8991V15.6066C103.154 16.1631 103.255 16.5574 103.456 16.7893C103.672 17.0212 104.113 17.1912 104.778 17.2994V17.6473H100.232V17.2994Z" fill="#013D5B"/>
<path d="M93.733 17.2994C94.3823 17.1912 94.8152 17.0212 95.0317 16.7893C95.2481 16.5574 95.3563 16.1709 95.3563 15.6298V8.37143C95.3563 7.83034 95.2404 7.45158 95.0085 7.23514C94.792 7.00325 94.3669 6.85638 93.733 6.79454V6.46989L96.539 6.02928L96.7477 6.23799C96.6858 6.7327 96.6549 7.24287 96.6549 7.7685V15.6298C96.6549 16.1709 96.7554 16.5574 96.9564 16.7893C97.1728 17.0212 97.6134 17.1912 98.2782 17.2994V17.6473H93.733V17.2994ZM94.7766 2.13343C94.7766 1.82424 94.8771 1.56915 95.078 1.36818C95.2945 1.1672 95.5495 1.06671 95.8433 1.06671C96.1525 1.06671 96.3998 1.1672 96.5854 1.36818C96.7863 1.56915 96.8868 1.82424 96.8868 2.13343C96.8868 2.44263 96.7863 2.69771 96.5854 2.89869C96.3998 3.08421 96.1525 3.17696 95.8433 3.17696C95.5495 3.17696 95.2945 3.08421 95.078 2.89869C94.8771 2.69771 94.7766 2.44263 94.7766 2.13343Z" fill="#013D5B"/>
<path d="M87.231 17.2994C87.8957 17.1912 88.3286 17.0212 88.5296 16.7893C88.746 16.5574 88.8542 16.1709 88.8542 15.6298V2.36534C88.8542 1.82425 88.7383 1.44549 88.5064 1.22905C88.2899 0.997153 87.8648 0.850285 87.231 0.788446V0.440602L90.0369 0L90.2456 0.208706C90.1838 0.687958 90.1528 1.19813 90.1528 1.73922V15.6298C90.1528 16.1709 90.2533 16.5574 90.4543 16.7893C90.6707 17.0212 91.1113 17.1912 91.7761 17.2994V17.6473H87.231V17.2994Z" fill="#013D5B"/>
<path d="M72.6042 17.2994C73.2536 17.1912 73.6864 17.0212 73.9029 16.7893C74.1193 16.5574 74.2275 16.1709 74.2275 15.6298V8.48739C74.2275 7.89992 74.1193 7.49796 73.9029 7.28153C73.7019 7.04963 73.269 6.87958 72.6042 6.77136V6.42351L75.1087 6.02929C75.2479 6.30757 75.3406 6.57811 75.387 6.84093C75.4488 7.08828 75.4798 7.41294 75.4798 7.81489C76.5001 6.46989 77.8683 5.79739 79.5843 5.79739C80.9139 5.79739 81.9419 6.18389 82.6685 6.95687C83.4106 7.7144 83.7816 8.79658 83.7816 10.2034V15.6298C83.7816 16.1709 83.8821 16.5574 84.0831 16.7893C84.2995 17.0212 84.7401 17.1912 85.4049 17.2994V17.6473H80.8366V17.2994C81.5013 17.1912 81.9419 17.0212 82.1584 16.7893C82.3748 16.5574 82.483 16.1709 82.483 15.6298V10.273C82.483 9.03621 82.2125 8.10089 81.6714 7.46705C81.1303 6.81774 80.3418 6.49308 79.306 6.49308C78.1311 6.49308 77.2035 6.89503 76.5233 7.69894C75.8585 8.50285 75.5261 9.56957 75.5261 10.8991V15.6298C75.5261 16.1709 75.6266 16.5574 75.8276 16.7893C76.044 17.0212 76.4846 17.1912 77.1494 17.2994V17.6473H72.6042V17.2994Z" fill="#013D5B"/>
<path d="M59.6138 13.6123V8.37145C59.6138 7.86128 59.5133 7.49024 59.3123 7.25835C59.1113 7.01099 58.6784 6.85639 58.0137 6.79455V6.44671L60.7964 6.0293L61.0283 6.26119C60.9665 6.74045 60.9356 7.25062 60.9356 7.79171V13.5427C60.9356 14.764 61.1906 15.6994 61.7008 16.3487C62.2265 16.998 62.9917 17.3226 63.9966 17.3226C65.1251 17.3226 66.0295 16.9361 66.7098 16.1632C67.39 15.3747 67.7301 14.3234 67.7301 13.0094V8.00041C67.7301 7.583 67.6374 7.28927 67.4518 7.11921C67.2818 6.93369 66.8721 6.81774 66.2228 6.77136V6.42352L68.936 6.0293L69.1215 6.238C69.0596 6.73272 69.0287 7.25835 69.0287 7.8149V15.5138C69.0287 16.0859 69.137 16.4955 69.3534 16.7429C69.5853 16.9902 70.0182 17.1758 70.652 17.2994V17.6473L68.1475 17.856C67.9002 17.4231 67.7765 16.8666 67.7765 16.1863V15.9313C66.7716 17.3226 65.4112 18.0183 63.6951 18.0183C62.3965 18.0183 61.3916 17.6396 60.6805 16.882C59.9693 16.109 59.6138 15.0191 59.6138 13.6123Z" fill="#013D5B"/>
<path d="M38.1143 17.2994C38.7636 17.1912 39.1964 17.0212 39.4129 16.7893C39.6293 16.5574 39.7375 16.1709 39.7375 15.6298V8.48739C39.7375 7.89992 39.6293 7.49796 39.4129 7.28153C39.2119 7.04963 38.779 6.87958 38.1143 6.77136V6.42351L40.6187 6.02929C40.7579 6.30757 40.8506 6.57811 40.897 6.84093C40.9588 7.08828 40.9898 7.41294 40.9898 7.81489C42.0101 6.46989 43.3783 5.79739 45.0943 5.79739C46.4239 5.79739 47.4519 6.18389 48.1785 6.95687C48.9206 7.7144 49.2916 8.79658 49.2916 10.2034V15.6298C49.2916 16.1709 49.3921 16.5574 49.5931 16.7893C49.8095 17.0212 50.2501 17.1912 50.9149 17.2994V17.6473H46.3466V17.2994C47.0113 17.1912 47.4519 17.0212 47.6684 16.7893C47.8848 16.5574 47.993 16.1709 47.993 15.6298V10.273C47.993 9.03621 47.7225 8.10089 47.1814 7.46705C46.6403 6.81774 45.8518 6.49308 44.816 6.49308C43.6411 6.49308 42.7135 6.89503 42.0333 7.69894C41.3685 8.50285 41.0361 9.56957 41.0361 10.8991V15.6298C41.0361 16.1709 41.1366 16.5574 41.3376 16.7893C41.554 17.0212 41.9946 17.1912 42.6594 17.2994V17.6473H38.1143V17.2994Z" fill="#013D5B"/>
<path d="M27.8782 17.2994C28.5275 17.2067 28.9604 17.0443 29.1768 16.8125C29.3932 16.5806 29.5014 16.1863 29.5014 15.6298V8.4642C29.5014 7.89219 29.401 7.49796 29.2 7.28153C28.999 7.04963 28.5584 6.87958 27.8782 6.77136V6.42351L30.3827 6.02929C30.5218 6.32302 30.6145 6.59357 30.6609 6.84093C30.7228 7.07282 30.7537 7.37429 30.7537 7.74532C31.1093 7.12693 31.5576 6.64768 32.0987 6.30757C32.6552 5.96745 33.2659 5.79739 33.9307 5.79739C34.7655 5.79739 35.5539 6.07567 36.296 6.63222L36.5279 9.53092L36.18 9.60049C35.8554 8.54923 35.4766 7.78397 35.0438 7.30472C34.6109 6.81001 34.0775 6.56265 33.4437 6.56265C32.6398 6.56265 31.9982 6.93368 31.5189 7.67575C31.0397 8.40236 30.8001 9.39178 30.8001 10.644V15.6298C30.8001 16.1863 30.9392 16.5806 31.2175 16.8125C31.5112 17.0443 32.0678 17.2067 32.8871 17.2994V17.6473H27.8782V17.2994Z" fill="#013D5B"/>
<path d="M15.4294 14.9341C15.4294 13.821 15.9396 12.9321 16.96 12.2673C17.9803 11.5871 19.333 11.2469 21.0181 11.2469C21.3892 11.2469 21.7602 11.2701 22.1312 11.3165C22.5023 11.3474 22.8733 11.4015 23.2443 11.4788V10.2034C23.2443 8.9821 22.9661 8.04679 22.4095 7.39748C21.8684 6.74817 21.0722 6.42351 20.021 6.42351C18.3513 6.42351 17.1455 7.4825 16.4034 9.60049L16.0556 9.50773L16.4962 6.63222C17.7948 6.07567 19.0316 5.79739 20.2065 5.79739C21.5979 5.79739 22.6646 6.17616 23.4067 6.93368C24.1642 7.69121 24.543 8.78112 24.543 10.2034V15.9312C24.543 16.7197 24.8367 17.1139 25.4242 17.1139C25.687 17.1139 25.9266 17.0057 26.143 16.7893L26.4213 16.998C26.0812 17.57 25.571 17.856 24.8908 17.856C24.4425 17.856 24.0792 17.7168 23.8009 17.4386C23.5381 17.1448 23.3757 16.7506 23.3139 16.2559C22.309 17.4308 21.0491 18.0183 19.534 18.0183C18.2663 18.0183 17.2614 17.74 16.5194 17.1835C15.7927 16.6269 15.4294 15.8771 15.4294 14.9341ZM16.8208 14.795C16.8208 15.5834 17.0914 16.2018 17.6325 16.6501C18.1735 17.0985 18.9156 17.3226 19.8587 17.3226C20.8635 17.3226 21.6752 16.9902 22.2936 16.3255C22.9274 15.6607 23.2443 14.7099 23.2443 13.4731V12.0818C22.9351 12.0199 22.6182 11.9736 22.2936 11.9426C21.9844 11.9117 21.652 11.8963 21.2964 11.8963C19.8741 11.8963 18.7687 12.1513 17.9803 12.6615C17.2073 13.1717 16.8208 13.8828 16.8208 14.795Z" fill="#013D5B"/>
<path d="M1 17.253C1.69569 17.1448 2.15175 16.9748 2.36819 16.7429C2.60008 16.4955 2.71603 16.0781 2.71603 15.4906V3.57119C2.71603 2.98372 2.60008 2.57403 2.36819 2.34214C2.15175 2.09478 1.69569 1.917 1 1.80878V1.41455H8.83808C9.58015 1.41455 10.1753 1.40682 10.6237 1.39136C11.072 1.36045 11.5049 1.31407 11.9223 1.25223L12.5252 5.21765L12.1078 5.31041C11.8295 4.39828 11.5513 3.71805 11.273 3.26972C10.9947 2.80593 10.6469 2.49674 10.2295 2.34214C9.82751 2.17208 9.27096 2.08705 8.55981 2.08705H4.10741V8.92798H8.09602C8.76078 8.92798 9.21685 8.80431 9.4642 8.55695C9.72702 8.30959 9.93572 7.79169 10.0903 7.00325H10.4382V11.4788H10.0903C9.99756 10.9532 9.87389 10.559 9.71929 10.2962C9.58015 10.0179 9.3869 9.83238 9.13955 9.73962C8.89219 9.6314 8.54435 9.57729 8.09602 9.57729H4.10741V15.4443C4.10741 16.0008 4.21562 16.395 4.43206 16.6269C4.6485 16.8588 5.02726 16.9748 5.56835 16.9748H8.51343C9.30188 16.9748 9.92799 16.882 10.3918 16.6965C10.8556 16.511 11.2498 16.1477 11.5745 15.6066C11.8991 15.0655 12.2315 14.2539 12.5716 13.1717L12.9658 13.2412L12.3165 17.6473H1V17.253Z" fill="#013D5B"/>
</svg>
