<svg width="113" height="17" viewBox="0 0 113 17" fill="none" xmlns="http://www.w3.org/2000/svg">
<path d="M0 15.8025V0H2.21258V13.9965H9.55745V15.8025H0Z" fill="#013D5B"/>
<path d="M20.2208 15.3736C19.1716 15.8853 18.0007 16.1411 16.7081 16.1411C14.8224 16.1411 13.3854 15.6219 12.397 14.5835C11.4085 13.545 10.9143 12.025 10.9143 10.0233C10.9143 8.7892 11.1348 7.72065 11.5758 6.81765C12.0168 5.8996 12.6327 5.19978 13.4234 4.71817C14.2142 4.23658 15.119 3.99578 16.1378 3.99578C17.5673 3.99578 18.6926 4.41718 19.5137 5.25998C20.3349 6.10278 20.7455 7.26915 20.7455 8.7591C20.7455 9.34605 20.6923 9.92548 20.5858 10.4974H13.0356C13.0813 13.1612 14.389 14.4932 16.959 14.4932C18.0691 14.4932 19.1564 14.2524 20.2208 13.7708V15.3736ZM16.1378 5.55345C15.2558 5.55345 14.5335 5.86197 13.9709 6.47902C13.4234 7.09608 13.1117 7.93135 13.0356 8.98485H18.761C18.7762 8.9096 18.7838 8.83435 18.7838 8.7591C18.7838 8.68385 18.7838 8.6086 18.7838 8.53335C18.7838 7.60025 18.5481 6.87033 18.0767 6.34358C17.6205 5.81683 16.9742 5.55345 16.1378 5.55345Z" fill="#013D5B"/>
<path d="M30.6779 15.8477L30.541 15.0575C29.2636 15.7799 28.0243 16.1411 26.823 16.1411C25.6216 16.1411 24.6636 15.8251 23.9489 15.193C23.2494 14.5458 22.8996 13.6805 22.8996 12.5969C22.8996 11.4681 23.295 10.5952 24.0857 9.97815C24.8765 9.34605 25.9866 9.03 27.416 9.03C28.2524 9.03 29.218 9.12783 30.3129 9.32348V8.127C30.3129 7.29925 30.0696 6.6822 29.583 6.27585C29.1116 5.8695 28.3817 5.66633 27.3932 5.66633C26.2375 5.66633 24.9753 5.9297 23.6067 6.45645V4.80848C24.2454 4.55263 24.9373 4.35698 25.6824 4.22153C26.4276 4.07103 27.1347 3.99578 27.8038 3.99578C29.3093 3.99578 30.4498 4.34193 31.2253 5.03422C32.0161 5.72653 32.4114 6.7424 32.4114 8.08185V15.6671L30.6779 15.8477ZM27.3704 14.4932C27.8114 14.4932 28.3056 14.4179 28.8531 14.2674C29.4005 14.1169 29.8871 13.9213 30.3129 13.6805V10.7909C29.5982 10.6103 28.7542 10.52 27.781 10.52C26.8686 10.52 26.1919 10.693 25.7509 11.0392C25.3251 11.3703 25.1122 11.8745 25.1122 12.5517C25.1122 13.846 25.8649 14.4932 27.3704 14.4932Z" fill="#013D5B"/>
<path d="M35.7453 15.8025V4.46985L37.4789 4.28925L37.6613 5.3277C38.665 4.4849 39.7371 4.0635 40.8776 4.0635C41.2273 4.0635 41.5771 4.11618 41.9268 4.22153V5.9598C41.5619 5.8695 41.1893 5.82435 40.8091 5.82435C39.7143 5.82435 38.741 6.16297 37.8894 6.84022V15.8025H35.7453Z" fill="#013D5B"/>
<path d="M51.4896 15.8025V8.08185C51.4896 6.4715 50.6837 5.66633 49.0718 5.66633C48.646 5.66633 48.167 5.74158 47.6347 5.89208C47.1177 6.02753 46.6463 6.21565 46.2205 6.45645V15.8025H44.0763V4.46985L45.8099 4.28925L45.9468 5.07937C47.1937 4.35698 48.4331 3.99578 49.6648 3.99578C50.927 3.99578 51.9002 4.32688 52.5845 4.98908C53.284 5.63623 53.6338 6.5618 53.6338 7.7658V15.8025H51.4896Z" fill="#013D5B"/>
<path d="M69.8844 14.4254L65.4364 3.09278L64.5697 15.8025H62.4711L63.7257 0H66.212L70.7968 11.6939L75.3817 0H77.868L79.1225 15.8025H77.0012L76.1116 3.09278L71.6864 14.4254H69.8844Z" fill="#013D5B"/>
<path d="M86.9751 14.4706C88.0396 14.4706 88.8075 14.1244 89.2789 13.4321C89.7656 12.7398 90.0089 11.6186 90.0089 10.0685C90.0089 8.5183 89.7656 7.39708 89.2789 6.70478C88.8075 6.01248 88.0396 5.66633 86.9751 5.66633C85.9106 5.66633 85.1351 6.01248 84.6485 6.70478C84.1771 7.39708 83.9414 8.5183 83.9414 10.0685C83.9414 11.6186 84.1771 12.7398 84.6485 13.4321C85.1351 14.1244 85.9106 14.4706 86.9751 14.4706ZM86.9751 16.1411C85.2415 16.1411 83.9262 15.6294 83.029 14.606C82.147 13.5676 81.706 12.0551 81.706 10.0685C81.706 8.08185 82.147 6.57685 83.029 5.55345C83.9262 4.515 85.2415 3.99578 86.9751 3.99578C88.7087 3.99578 90.0165 4.515 90.8985 5.55345C91.7957 6.57685 92.2443 8.08185 92.2443 10.0685C92.2443 12.0551 91.7957 13.5676 90.8985 14.606C90.0165 15.6294 88.7087 16.1411 86.9751 16.1411Z" fill="#013D5B"/>
<path d="M95.0205 15.8025V4.46985L96.7541 4.28925L96.9366 5.3277C97.9402 4.4849 99.0123 4.0635 100.153 4.0635C100.503 4.0635 100.852 4.11618 101.202 4.22153V5.9598C100.837 5.8695 100.465 5.82435 100.084 5.82435C98.9895 5.82435 98.0162 6.16297 97.1647 6.84022V15.8025H95.0205Z" fill="#013D5B"/>
<path d="M111.751 15.3736C110.702 15.8853 109.531 16.1411 108.238 16.1411C106.353 16.1411 104.916 15.6219 103.927 14.5835C102.939 13.545 102.444 12.025 102.444 10.0233C102.444 8.7892 102.665 7.72065 103.106 6.81765C103.547 5.8996 104.163 5.19978 104.954 4.71817C105.744 4.23658 106.649 3.99578 107.668 3.99578C109.097 3.99578 110.223 4.41718 111.044 5.25998C111.865 6.10278 112.276 7.26915 112.276 8.7591C112.276 9.34605 112.222 9.92548 112.116 10.4974H104.566C104.611 13.1612 105.919 14.4932 108.489 14.4932C109.599 14.4932 110.687 14.2524 111.751 13.7708V15.3736ZM107.668 5.55345C106.786 5.55345 106.064 5.86197 105.501 6.47902C104.954 7.09608 104.642 7.93135 104.566 8.98485H110.291C110.306 8.9096 110.314 8.83435 110.314 8.7591C110.314 8.68385 110.314 8.6086 110.314 8.53335C110.314 7.60025 110.078 6.87033 109.607 6.34358C109.151 5.81683 108.504 5.55345 107.668 5.55345Z" fill="#013D5B"/>
</svg>
