<svg width="824" height="29" viewBox="0 0 824 29" fill="none" xmlns="http://www.w3.org/2000/svg">
<path d="M821.529 23.7611C821.529 22.7922 821.166 21.9808 820.439 21.3268C819.713 20.6486 818.429 19.9583 816.588 19.2559C814.384 18.4082 812.822 17.5604 811.901 16.7127C810.981 15.8407 810.521 14.8234 810.521 13.6608C810.521 12.2802 811.078 11.1781 812.192 10.3546C813.306 9.50685 814.784 9.08298 816.625 9.08298C817.496 9.08298 818.429 9.19197 819.422 9.40996C820.439 9.60373 821.384 9.88228 822.256 10.2456L822.946 14.7871L822.401 14.9324C821.723 13.2127 820.912 11.9774 819.967 11.2266C819.047 10.4515 817.872 10.0639 816.443 10.0639C815.183 10.0639 814.202 10.3304 813.5 10.8632C812.798 11.3719 812.446 12.0985 812.446 13.0432C812.446 13.9393 812.822 14.7023 813.573 15.3321C814.323 15.9376 815.656 16.6158 817.569 17.3666C819.071 17.948 820.246 18.505 821.093 19.0379C821.941 19.5708 822.547 20.14 822.91 20.7455C823.273 21.351 823.455 22.0535 823.455 22.8528C823.455 24.4514 822.862 25.7472 821.675 26.7403C820.512 27.7333 818.974 28.2299 817.06 28.2299C816.092 28.2299 815.05 28.0846 813.936 27.7939C812.846 27.5275 811.829 27.152 810.884 26.6676L810.194 22.0535L810.739 21.9081C812.071 25.4687 814.251 27.2489 817.279 27.2489C818.611 27.2489 819.652 26.9462 820.403 26.3406C821.154 25.7109 821.529 24.851 821.529 23.7611Z" fill="#013D5B"/>
<path d="M804.428 23.7611C804.428 22.7922 804.064 21.9808 803.338 21.3268C802.611 20.6486 801.327 19.9583 799.487 19.2559C797.282 18.4082 795.72 17.5604 794.8 16.7127C793.879 15.8407 793.419 14.8234 793.419 13.6608C793.419 12.2802 793.976 11.1781 795.09 10.3546C796.205 9.50685 797.682 9.08298 799.523 9.08298C800.395 9.08298 801.327 9.19197 802.32 9.40996C803.338 9.60373 804.282 9.88228 805.154 10.2456L805.845 14.7871L805.3 14.9324C804.622 13.2127 803.81 11.9774 802.865 11.2266C801.945 10.4515 800.77 10.0639 799.341 10.0639C798.082 10.0639 797.101 10.3304 796.398 10.8632C795.696 11.3719 795.345 12.0985 795.345 13.0432C795.345 13.9393 795.72 14.7023 796.471 15.3321C797.222 15.9376 798.554 16.6158 800.468 17.3666C801.969 17.948 803.144 18.505 803.992 19.0379C804.84 19.5708 805.445 20.14 805.808 20.7455C806.172 21.351 806.353 22.0535 806.353 22.8528C806.353 24.4514 805.76 25.7472 804.573 26.7403C803.41 27.7333 801.872 28.2299 799.959 28.2299C798.99 28.2299 797.949 28.0846 796.834 27.7939C795.744 27.5275 794.727 27.152 793.783 26.6676L793.092 22.0535L793.637 21.9081C794.969 25.4687 797.149 27.2489 800.177 27.2489C801.509 27.2489 802.551 26.9462 803.301 26.3406C804.052 25.7109 804.428 24.851 804.428 23.7611Z" fill="#013D5B"/>
<path d="M774.028 18.6746C774.028 16.7853 774.367 15.1262 775.046 13.6971C775.748 12.2439 776.717 11.1176 777.952 10.3183C779.187 9.49474 780.616 9.08298 782.239 9.08298C784.371 9.08298 786.103 9.7975 787.435 11.2266C788.791 12.6314 789.566 14.557 789.76 17.0033H776.063C776.039 17.294 776.027 17.5846 776.027 17.8753C776.027 20.5154 776.668 22.6105 777.952 24.1607C779.26 25.7109 781.028 26.4859 783.257 26.4859C785.751 26.4859 787.628 25.505 788.888 23.5431L789.433 23.8337C788.052 26.7645 785.739 28.2299 782.494 28.2299C780.798 28.2299 779.309 27.8302 778.025 27.0309C776.765 26.2316 775.784 25.1174 775.082 23.6884C774.379 22.2351 774.028 20.5639 774.028 18.6746ZM778.025 11.6989C777.032 12.7646 776.402 14.2058 776.136 16.0224H787.398C787.156 14.1331 786.551 12.6798 785.582 11.6625C784.637 10.621 783.414 10.1003 781.912 10.1003C780.338 10.1003 779.042 10.6331 778.025 11.6989Z" fill="#013D5B"/>
<path d="M751.221 27.1036C752.238 26.934 752.917 26.6676 753.256 26.3043C753.595 25.941 753.764 25.3354 753.764 24.4877V13.2975C753.764 12.3771 753.595 11.7473 753.256 11.4082C752.941 11.0449 752.263 10.7785 751.221 10.6089V10.0639L755.145 9.4463C755.363 9.88228 755.508 10.3062 755.581 10.7179C755.678 11.1055 755.726 11.6141 755.726 12.2439C757.325 10.1366 759.468 9.08298 762.157 9.08298C764.24 9.08298 765.851 9.68851 766.989 10.8996C768.152 12.0864 768.733 13.7819 768.733 15.986V24.4877C768.733 25.3354 768.891 25.941 769.205 26.3043C769.544 26.6676 770.235 26.934 771.276 27.1036V27.6486H764.119V27.1036C765.16 26.934 765.851 26.6676 766.19 26.3043C766.529 25.941 766.698 25.3354 766.698 24.4877V16.095C766.698 14.1573 766.275 12.6919 765.427 11.6989C764.579 10.6816 763.344 10.1729 761.721 10.1729C759.88 10.1729 758.427 10.8027 757.361 12.0622C756.32 13.3217 755.799 14.993 755.799 17.076V24.4877C755.799 25.3354 755.956 25.941 756.271 26.3043C756.61 26.6676 757.301 26.934 758.342 27.1036V27.6486H751.221V27.1036Z" fill="#013D5B"/>
<path d="M741.038 27.1036C742.056 26.934 742.734 26.6676 743.073 26.3043C743.412 25.941 743.581 25.3354 743.581 24.4877V13.1158C743.581 12.2681 743.4 11.6746 743.036 11.3355C742.697 10.9722 742.031 10.7421 741.038 10.6452V10.1366L745.434 9.44629L745.761 9.77327C745.665 10.5484 745.616 11.3477 745.616 12.1712V24.4877C745.616 25.3354 745.774 25.941 746.088 26.3043C746.427 26.6676 747.118 26.934 748.159 27.1036V27.6486H741.038V27.1036ZM742.673 3.34253C742.673 2.85811 742.831 2.45846 743.146 2.14358C743.485 1.8287 743.884 1.67126 744.344 1.67126C744.829 1.67126 745.216 1.8287 745.507 2.14358C745.822 2.45846 745.979 2.85811 745.979 3.34253C745.979 3.82696 745.822 4.22661 745.507 4.54148C745.216 4.83214 744.829 4.97747 744.344 4.97747C743.884 4.97747 743.485 4.83214 743.146 4.54148C742.831 4.22661 742.673 3.82696 742.673 3.34253Z" fill="#013D5B"/>
<path d="M735.454 23.7611C735.454 22.7922 735.091 21.9808 734.364 21.3268C733.637 20.6486 732.354 19.9583 730.513 19.2559C728.309 18.4082 726.746 17.5604 725.826 16.7127C724.906 15.8407 724.445 14.8234 724.445 13.6608C724.445 12.2802 725.003 11.1781 726.117 10.3546C727.231 9.50685 728.708 9.08298 730.549 9.08298C731.421 9.08298 732.354 9.19197 733.347 9.40996C734.364 9.60373 735.309 9.88228 736.181 10.2456L736.871 14.7871L736.326 14.9324C735.648 13.2127 734.836 11.9774 733.892 11.2266C732.971 10.4515 731.797 10.0639 730.368 10.0639C729.108 10.0639 728.127 10.3304 727.425 10.8632C726.722 11.3719 726.371 12.0985 726.371 13.0432C726.371 13.9393 726.746 14.7023 727.497 15.3321C728.248 15.9376 729.58 16.6158 731.494 17.3666C732.996 17.948 734.17 18.505 735.018 19.0379C735.866 19.5708 736.471 20.14 736.835 20.7455C737.198 21.351 737.38 22.0535 737.38 22.8528C737.38 24.4514 736.786 25.7472 735.599 26.7403C734.437 27.7333 732.899 28.2299 730.985 28.2299C730.016 28.2299 728.975 28.0846 727.861 27.7939C726.771 27.5275 725.753 27.152 724.809 26.6676L724.118 22.0535L724.663 21.9081C725.996 25.4687 728.176 27.2489 731.203 27.2489C732.535 27.2489 733.577 26.9462 734.328 26.3406C735.079 25.7109 735.454 24.851 735.454 23.7611Z" fill="#013D5B"/>
<path d="M703.584 21.3268V13.1158C703.584 12.3165 703.427 11.7352 703.112 11.3719C702.797 10.9843 702.119 10.7421 701.077 10.6452V10.1003L705.437 9.44629L705.8 9.80961C705.703 10.5605 705.655 11.3598 705.655 12.2075V21.2178C705.655 23.1313 706.055 24.5967 706.854 25.614C707.678 26.6313 708.876 27.1399 710.451 27.1399C712.219 27.1399 713.636 26.5344 714.702 25.3233C715.767 24.088 716.3 22.441 716.3 20.3822V12.5345C716.3 11.8805 716.155 11.4203 715.864 11.1539C715.598 10.8632 714.956 10.6816 713.939 10.6089V10.0639L718.19 9.44629L718.48 9.77328C718.383 10.5484 718.335 11.3719 718.335 12.2438V24.306C718.335 25.2022 718.504 25.8441 718.844 26.2316C719.207 26.6192 719.885 26.9098 720.878 27.1036V27.6486L716.954 27.9755C716.567 27.2974 716.373 26.4254 716.373 25.3597V24.96C714.799 27.1399 712.667 28.2299 709.979 28.2299C707.944 28.2299 706.37 27.6365 705.255 26.4496C704.141 25.2385 703.584 23.5309 703.584 21.3268Z" fill="#013D5B"/>
<path d="M679.52 27.0309C680.61 26.8614 681.324 26.5949 681.663 26.2316C682.027 25.8441 682.208 25.1901 682.208 24.2697V5.59511C682.208 4.6747 682.027 4.03284 681.663 3.66952C681.324 3.28198 680.61 3.00344 679.52 2.83389V2.21625H687.513C690.71 2.21625 693.168 2.74912 694.888 3.81485C696.632 4.85636 697.504 6.37019 697.504 8.35634C697.504 11.2871 695.639 13.2248 691.909 14.1694C694.186 14.5085 695.93 15.2352 697.141 16.3493C698.376 17.4635 698.994 18.9168 698.994 20.7092C698.994 22.9375 698.025 24.6572 696.087 25.8683C694.173 27.0551 691.437 27.6486 687.876 27.6486H679.52V27.0309ZM684.388 24.197C684.388 25.069 684.546 25.6866 684.86 26.05C685.2 26.4133 685.817 26.5949 686.713 26.5949H687.876C693.738 26.5949 696.668 24.7299 696.668 20.9998C696.668 19.1106 695.942 17.6331 694.488 16.5673C693.059 15.5016 691.049 14.9687 688.457 14.9687H684.388V24.197ZM695.251 8.75599C695.251 7.08472 694.549 5.75255 693.144 4.75948C691.739 3.76641 689.777 3.26987 687.258 3.26987H684.388V13.9151H686.423C689.378 13.9151 691.582 13.467 693.035 12.5708C694.513 11.6746 695.251 10.403 695.251 8.75599Z" fill="#013D5B"/>
<path d="M660.33 27.0673C661.638 26.9461 662.377 26.6676 662.546 26.2316C662.74 25.7714 662.57 25.1296 662.037 24.306L656.333 15.6227L650.484 24.306C649.951 25.1296 649.794 25.7714 650.012 26.2316C650.23 26.6676 650.896 26.9461 652.01 27.0673V27.6486H645.434V27.0673C646.282 26.9461 646.935 26.716 647.396 26.3769C647.88 26.0136 648.377 25.4687 648.885 24.742L655.716 14.6781L649.394 5.0138C648.934 4.31139 648.486 3.80274 648.05 3.48786C647.638 3.14877 646.996 2.91866 646.124 2.79756V2.21625H654.008V2.79756C652.603 2.89444 651.828 3.17299 651.683 3.63319C651.538 4.06917 651.731 4.71104 652.264 5.55878L657.314 13.2611L662.473 5.55878C663.055 4.68682 663.224 4.03284 662.982 3.59686C662.764 3.13665 662.037 2.87022 660.802 2.79756V2.21625H667.56V2.79756C666.979 2.87022 666.506 2.97922 666.143 3.12455C665.78 3.26987 665.441 3.49997 665.126 3.81485C664.835 4.10551 664.484 4.54149 664.072 5.1228L657.932 14.2058L664.944 24.851C665.428 25.5534 665.877 26.0621 666.288 26.3769C666.7 26.6676 667.342 26.8977 668.214 27.0673V27.6486H660.33V27.0673Z" fill="#013D5B"/>
<path d="M618.908 18.6746C618.908 16.7853 619.247 15.1262 619.925 13.6971C620.628 12.2439 621.597 11.1176 622.832 10.3183C624.067 9.49474 625.496 9.08298 627.119 9.08298C629.251 9.08298 630.982 9.7975 632.315 11.2266C633.671 12.6314 634.446 14.557 634.64 17.0033H620.943C620.919 17.294 620.906 17.5846 620.906 17.8753C620.906 20.5154 621.548 22.6105 622.832 24.1607C624.14 25.7109 625.908 26.4859 628.136 26.4859C630.631 26.4859 632.508 25.505 633.768 23.5431L634.313 23.8337C632.932 26.7645 630.619 28.2299 627.373 28.2299C625.678 28.2299 624.188 27.8302 622.905 27.0309C621.645 26.2316 620.664 25.1174 619.962 23.6884C619.259 22.2351 618.908 20.5639 618.908 18.6746ZM622.905 11.6989C621.912 12.7646 621.282 14.2058 621.015 16.0224H632.278C632.036 14.1331 631.431 12.6798 630.462 11.6625C629.517 10.621 628.294 10.1003 626.792 10.1003C625.218 10.1003 623.922 10.6331 622.905 11.6989Z" fill="#013D5B"/>
<path d="M603.162 27.1036C604.179 26.9583 604.857 26.7039 605.196 26.3406C605.535 25.9773 605.705 25.3597 605.705 24.4877V13.2611C605.705 12.365 605.547 11.7473 605.233 11.4082C604.918 11.0449 604.227 10.7785 603.162 10.6089V10.0639L607.086 9.4463C607.304 9.9065 607.449 10.3304 607.521 10.7179C607.618 11.0812 607.667 11.5535 607.667 12.1349C608.224 11.166 608.926 10.4151 609.774 9.88228C610.646 9.34941 611.603 9.08298 612.644 9.08298C613.952 9.08298 615.187 9.51896 616.35 10.3909L616.713 14.9324L616.168 15.0414C615.66 13.3944 615.066 12.1954 614.388 11.4446C613.71 10.6695 612.874 10.2819 611.881 10.2819C610.622 10.2819 609.617 10.8632 608.866 12.0259C608.115 13.1643 607.74 14.7144 607.74 16.6763V24.4877C607.74 25.3597 607.957 25.9773 608.393 26.3406C608.854 26.7039 609.726 26.9583 611.009 27.1036V27.6486H603.162V27.1036Z" fill="#013D5B"/>
<path d="M582.809 21.3268V13.1158C582.809 12.3165 582.652 11.7352 582.337 11.3719C582.022 10.9843 581.344 10.7421 580.302 10.6452V10.1003L584.662 9.44629L585.025 9.80961C584.928 10.5605 584.88 11.3598 584.88 12.2075V21.2178C584.88 23.1313 585.28 24.5967 586.079 25.614C586.902 26.6313 588.101 27.1399 589.676 27.1399C591.444 27.1399 592.861 26.5344 593.927 25.3233C594.992 24.088 595.525 22.441 595.525 20.3822V12.5345C595.525 11.8805 595.38 11.4203 595.089 11.1539C594.823 10.8632 594.181 10.6816 593.164 10.6089V10.0639L597.414 9.44629L597.705 9.77328C597.608 10.5484 597.56 11.3719 597.56 12.2438V24.306C597.56 25.2022 597.729 25.8441 598.068 26.2316C598.432 26.6192 599.11 26.9098 600.103 27.1036V27.6486L596.179 27.9755C595.792 27.2974 595.598 26.4254 595.598 25.3597V24.96C594.024 27.1399 591.892 28.2299 589.203 28.2299C587.169 28.2299 585.594 27.6365 584.48 26.4496C583.366 25.2385 582.809 23.5309 582.809 21.3268Z" fill="#013D5B"/>
<path d="M566.604 9.66428H569.147V5.88576L571 5.59511L571.327 5.9221C571.23 6.69718 571.182 7.49648 571.182 8.32V9.66428H576.959V10.6452H571.182V23.5431C571.182 24.5846 571.412 25.3839 571.872 25.941C572.357 26.4981 573.023 26.7766 573.871 26.7766C575.009 26.7766 575.978 26.1953 576.777 25.0327L577.286 25.3233C576.341 27.261 574.948 28.2299 573.108 28.2299C571.848 28.2299 570.867 27.8302 570.165 27.0309C569.486 26.2074 569.147 25.0327 569.147 23.5067V10.6452H566.604V9.66428Z" fill="#013D5B"/>
<path d="M544.051 27.1036C545.069 26.934 545.747 26.6676 546.086 26.3043C546.425 25.941 546.595 25.3354 546.595 24.4877V13.2975C546.595 12.3771 546.425 11.7473 546.086 11.4082C545.771 11.0449 545.093 10.7785 544.051 10.6089V10.0639L547.975 9.4463C548.193 9.88228 548.339 10.3062 548.411 10.7179C548.508 11.1055 548.557 11.6141 548.557 12.2439C550.155 10.1366 552.299 9.08298 554.987 9.08298C557.07 9.08298 558.681 9.68851 559.819 10.8996C560.982 12.0864 561.563 13.7819 561.563 15.986V24.4877C561.563 25.3354 561.721 25.941 562.036 26.3043C562.375 26.6676 563.065 26.934 564.107 27.1036V27.6486H556.949V27.1036C557.991 26.934 558.681 26.6676 559.02 26.3043C559.359 25.941 559.529 25.3354 559.529 24.4877V16.095C559.529 14.1573 559.105 12.6919 558.257 11.6989C557.409 10.6816 556.174 10.1729 554.551 10.1729C552.711 10.1729 551.257 10.8027 550.192 12.0622C549.15 13.3217 548.629 14.993 548.629 17.076V24.4877C548.629 25.3354 548.787 25.941 549.102 26.3043C549.441 26.6676 550.131 26.934 551.172 27.1036V27.6486H544.051V27.1036Z" fill="#013D5B"/>
<path d="M525.169 18.6746C525.169 16.7853 525.508 15.1262 526.186 13.6971C526.889 12.2439 527.858 11.1176 529.093 10.3183C530.328 9.49474 531.757 9.08298 533.38 9.08298C535.512 9.08298 537.243 9.7975 538.576 11.2266C539.932 12.6314 540.707 14.557 540.901 17.0033H527.204C527.179 17.294 527.167 17.5846 527.167 17.8753C527.167 20.5154 527.809 22.6105 529.093 24.1607C530.401 25.7109 532.169 26.4859 534.397 26.4859C536.892 26.4859 538.769 25.505 540.029 23.5431L540.574 23.8337C539.193 26.7645 536.88 28.2299 533.634 28.2299C531.939 28.2299 530.449 27.8302 529.166 27.0309C527.906 26.2316 526.925 25.1174 526.223 23.6884C525.52 22.2351 525.169 20.5639 525.169 18.6746ZM529.166 11.6989C528.172 12.7646 527.543 14.2058 527.276 16.0224H538.539C538.297 14.1331 537.691 12.6798 536.723 11.6625C535.778 10.621 534.555 10.1003 533.053 10.1003C531.479 10.1003 530.183 10.6331 529.166 11.6989Z" fill="#013D5B"/>
<path d="M501.064 2.21625H508.912V2.79756C507.652 2.89444 506.853 3.16088 506.514 3.59686C506.175 4.03284 506.163 4.63837 506.478 5.41345L514.071 24.633L521.628 5.55878C521.967 4.71104 521.943 4.05706 521.555 3.59686C521.192 3.13665 520.393 2.87022 519.158 2.79756V2.21625H525.879V2.79756C525.031 2.89444 524.414 3.13666 524.026 3.5242C523.638 3.88751 523.263 4.52938 522.9 5.44979L513.78 28.0119H513.126L504.043 5.44979C503.656 4.52938 503.28 3.88751 502.917 3.5242C502.554 3.16088 501.936 2.91866 501.064 2.79756V2.21625Z" fill="#013D5B"/>
<path d="M470.319 27.1036C471.336 26.934 472.014 26.6676 472.354 26.3043C472.693 25.941 472.862 25.3233 472.862 24.4514V3.70585C472.862 2.85811 472.681 2.26469 472.317 1.92559C471.978 1.56227 471.312 1.33217 470.319 1.23528V0.690305L474.715 0L475.042 0.326987C474.945 1.10207 474.897 1.91348 474.897 2.76122V12.1348C476.471 10.1003 478.591 9.08297 481.255 9.08297C483.338 9.08297 484.949 9.6885 486.087 10.8996C487.25 12.0864 487.831 13.7819 487.831 15.986V24.4877C487.831 25.3354 487.988 25.941 488.303 26.3043C488.642 26.6676 489.333 26.934 490.374 27.1036V27.6486H483.217V27.1036C484.258 26.934 484.949 26.6676 485.288 26.3043C485.627 25.941 485.796 25.3354 485.796 24.4877V16.095C485.796 14.1573 485.372 12.6919 484.525 11.6989C483.677 10.6816 482.442 10.1729 480.819 10.1729C478.978 10.1729 477.525 10.8027 476.459 12.0622C475.418 13.3217 474.897 14.993 474.897 17.076V24.5604C474.897 25.4081 475.054 26.0136 475.369 26.3769C475.708 26.716 476.399 26.9583 477.44 27.1036V27.6486H470.319V27.1036Z" fill="#013D5B"/>
<path d="M456.367 9.66428H458.91V5.88576L460.763 5.59511L461.09 5.9221C460.993 6.69718 460.945 7.49648 460.945 8.32V9.66428H466.721V10.6452H460.945V23.5431C460.945 24.5846 461.175 25.3839 461.635 25.941C462.119 26.4981 462.785 26.7766 463.633 26.7766C464.771 26.7766 465.74 26.1953 466.54 25.0327L467.048 25.3233C466.104 27.261 464.711 28.2299 462.87 28.2299C461.611 28.2299 460.63 27.8302 459.927 27.0309C459.249 26.2074 458.91 25.0327 458.91 23.5067V10.6452H456.367V9.66428Z" fill="#013D5B"/>
<path d="M446.729 27.1036C447.746 26.934 448.424 26.6676 448.763 26.3043C449.102 25.941 449.272 25.3354 449.272 24.4877V13.1158C449.272 12.2681 449.09 11.6746 448.727 11.3355C448.388 10.9722 447.722 10.7421 446.729 10.6452V10.1366L451.125 9.44629L451.452 9.77327C451.355 10.5484 451.307 11.3477 451.307 12.1712V24.4877C451.307 25.3354 451.464 25.941 451.779 26.3043C452.118 26.6676 452.808 26.934 453.85 27.1036V27.6486H446.729V27.1036ZM448.364 3.34253C448.364 2.85811 448.521 2.45846 448.836 2.14358C449.175 1.8287 449.575 1.67126 450.035 1.67126C450.519 1.67126 450.907 1.8287 451.198 2.14358C451.513 2.45846 451.67 2.85811 451.67 3.34253C451.67 3.82696 451.513 4.22661 451.198 4.54148C450.907 4.83214 450.519 4.97747 450.035 4.97747C449.575 4.97747 449.175 4.83214 448.836 4.54148C448.521 4.22661 448.364 3.82696 448.364 3.34253Z" fill="#013D5B"/>
<path d="M413.67 9.66428H420.937V10.2093C419.774 10.3061 419.059 10.5362 418.793 10.8996C418.551 11.2387 418.587 11.8321 418.902 12.6798L423.625 24.851L428.457 12.5345L428.239 11.9532C427.997 11.3719 427.694 10.9601 427.331 10.7179C426.968 10.4757 426.386 10.3061 425.587 10.2093V9.66428H432.853V10.2093C431.691 10.3061 430.976 10.5362 430.71 10.8996C430.468 11.2387 430.504 11.8321 430.819 12.6798L435.578 24.8873L440.338 12.6798C440.677 11.8321 440.713 11.2387 440.447 10.8996C440.18 10.5362 439.466 10.3061 438.303 10.2093V9.66428H444.371V10.2093C443.596 10.3061 443.026 10.4757 442.663 10.7179C442.3 10.9601 441.997 11.3719 441.755 11.9532L435.288 28.0119H434.67L429.039 13.9151L423.371 28.0119H422.753L416.286 11.9532C416.068 11.3719 415.777 10.9601 415.414 10.7179C415.051 10.4757 414.47 10.3061 413.67 10.2093V9.66428Z" fill="#013D5B"/>
<path d="M400.697 23.7611C400.697 22.7922 400.334 21.9808 399.607 21.3268C398.88 20.6486 397.597 19.9583 395.756 19.2559C393.552 18.4082 391.989 17.5604 391.069 16.7127C390.149 15.8407 389.688 14.8234 389.688 13.6608C389.688 12.2802 390.245 11.1781 391.36 10.3546C392.474 9.50685 393.951 9.08298 395.792 9.08298C396.664 9.08298 397.597 9.19197 398.59 9.40996C399.607 9.60373 400.552 9.88228 401.424 10.2456L402.114 14.7871L401.569 14.9324C400.891 13.2127 400.079 11.9774 399.135 11.2266C398.214 10.4515 397.04 10.0639 395.61 10.0639C394.351 10.0639 393.37 10.3304 392.668 10.8632C391.965 11.3719 391.614 12.0985 391.614 13.0432C391.614 13.9393 391.989 14.7023 392.74 15.3321C393.491 15.9376 394.823 16.6158 396.737 17.3666C398.238 17.948 399.413 18.505 400.261 19.0379C401.109 19.5708 401.714 20.14 402.078 20.7455C402.441 21.351 402.623 22.0535 402.623 22.8528C402.623 24.4514 402.029 25.7472 400.842 26.7403C399.68 27.7333 398.142 28.2299 396.228 28.2299C395.259 28.2299 394.218 28.0846 393.104 27.7939C392.014 27.5275 390.996 27.152 390.052 26.6676L389.361 22.0535L389.906 21.9081C391.239 25.4687 393.418 27.2489 396.446 27.2489C397.778 27.2489 398.82 26.9462 399.571 26.3406C400.322 25.7109 400.697 24.851 400.697 23.7611Z" fill="#013D5B"/>
<path d="M370.297 18.6746C370.297 16.7853 370.636 15.1262 371.315 13.6971C372.017 12.2439 372.986 11.1176 374.221 10.3183C375.456 9.49474 376.885 9.08298 378.508 9.08298C380.64 9.08298 382.372 9.7975 383.704 11.2266C385.06 12.6314 385.835 14.557 386.029 17.0033H372.332C372.308 17.294 372.296 17.5846 372.296 17.8753C372.296 20.5154 372.937 22.6105 374.221 24.1607C375.529 25.7109 377.297 26.4859 379.526 26.4859C382.02 26.4859 383.898 25.505 385.157 23.5431L385.702 23.8337C384.321 26.7645 382.008 28.2299 378.763 28.2299C377.067 28.2299 375.578 27.8302 374.294 27.0309C373.034 26.2316 372.053 25.1174 371.351 23.6884C370.649 22.2351 370.297 20.5639 370.297 18.6746ZM374.294 11.6989C373.301 12.7646 372.671 14.2058 372.405 16.0224H383.667C383.425 14.1331 382.82 12.6798 381.851 11.6625C380.906 10.621 379.683 10.1003 378.181 10.1003C376.607 10.1003 375.311 10.6331 374.294 11.6989Z" fill="#013D5B"/>
<path d="M360.401 27.1036C361.442 26.934 362.121 26.6676 362.435 26.3043C362.775 25.941 362.944 25.3354 362.944 24.4877V3.70585C362.944 2.85811 362.762 2.26469 362.399 1.92559C362.06 1.56227 361.394 1.33217 360.401 1.23528V0.690305L364.797 0L365.124 0.326987C365.027 1.07785 364.979 1.87715 364.979 2.72489V24.4877C364.979 25.3354 365.136 25.941 365.451 26.3043C365.79 26.6676 366.48 26.934 367.522 27.1036V27.6486H360.401V27.1036Z" fill="#013D5B"/>
<path d="M350.4 27.1036C351.417 26.934 352.095 26.6676 352.434 26.3043C352.773 25.941 352.943 25.3354 352.943 24.4877V13.1158C352.943 12.2681 352.761 11.6746 352.398 11.3355C352.059 10.9722 351.393 10.7421 350.4 10.6452V10.1366L354.796 9.44629L355.123 9.77327C355.026 10.5484 354.977 11.3477 354.977 12.1712V24.4877C354.977 25.3354 355.135 25.941 355.45 26.3043C355.789 26.6676 356.479 26.934 357.521 27.1036V27.6486H350.4V27.1036ZM352.035 3.34253C352.035 2.85811 352.192 2.45846 352.507 2.14358C352.846 1.8287 353.246 1.67126 353.706 1.67126C354.19 1.67126 354.578 1.8287 354.868 2.14358C355.183 2.45846 355.341 2.85811 355.341 3.34253C355.341 3.82696 355.183 4.22661 354.868 4.54148C354.578 4.83214 354.19 4.97747 353.706 4.97747C353.246 4.97747 352.846 4.83214 352.507 4.54148C352.192 4.22661 352.035 3.82696 352.035 3.34253Z" fill="#013D5B"/>
<path d="M315.416 27.1036C316.433 26.934 317.112 26.6676 317.451 26.3043C317.79 25.941 317.959 25.3354 317.959 24.4877V13.2975C317.959 12.3771 317.79 11.7473 317.451 11.4082C317.136 11.0449 316.458 10.7785 315.416 10.6089V10.0639L319.34 9.4463C319.558 9.85806 319.703 10.2577 319.776 10.6452C319.873 11.0328 319.921 11.5414 319.921 12.1712C321.423 10.1124 323.458 9.08298 326.025 9.08298C327.502 9.08298 328.738 9.42208 329.731 10.1003C330.748 10.7785 331.451 11.7352 331.838 12.9705C333.364 10.3788 335.568 9.08298 338.451 9.08298C340.485 9.08298 342.047 9.68851 343.137 10.8996C344.251 12.0864 344.809 13.7819 344.809 15.986V24.4877C344.809 25.3354 344.978 25.941 345.317 26.3043C345.656 26.6676 346.335 26.934 347.352 27.1036V27.6486H340.231V27.1036C341.272 26.934 341.95 26.6676 342.265 26.3043C342.604 25.941 342.774 25.3354 342.774 24.4877V16.095C342.774 14.1573 342.362 12.6919 341.539 11.6989C340.739 10.6816 339.553 10.1729 337.978 10.1729C336.234 10.1729 334.866 10.8027 333.873 12.0622C332.904 13.3217 332.419 14.993 332.419 17.076V24.4514C332.419 25.3233 332.577 25.941 332.892 26.3043C333.231 26.6676 333.921 26.934 334.963 27.1036V27.6486H327.805V27.1036C328.847 26.934 329.525 26.6676 329.84 26.3043C330.179 25.941 330.348 25.3354 330.348 24.4877V16.095C330.348 14.1573 329.937 12.6919 329.113 11.6989C328.314 10.6816 327.127 10.1729 325.553 10.1729C323.833 10.1729 322.477 10.8027 321.483 12.0622C320.49 13.3217 319.994 14.993 319.994 17.076V24.4514C319.994 25.3233 320.151 25.941 320.466 26.3043C320.805 26.6676 321.496 26.934 322.537 27.1036V27.6486H315.416V27.1036Z" fill="#013D5B"/>
<path d="M296.408 27.0673C297.716 26.9461 298.455 26.6676 298.624 26.2316C298.818 25.7714 298.648 25.1296 298.116 24.306L292.411 15.6227L286.562 24.306C286.029 25.1296 285.872 25.7714 286.09 26.2316C286.308 26.6676 286.974 26.9461 288.088 27.0673V27.6486H281.512V27.0673C282.36 26.9461 283.014 26.716 283.474 26.3769C283.958 26.0136 284.455 25.4687 284.963 24.742L291.794 14.6781L285.472 5.0138C285.012 4.31139 284.564 3.80274 284.128 3.48786C283.716 3.14877 283.074 2.91866 282.202 2.79756V2.21625H290.086V2.79756C288.681 2.89444 287.906 3.17299 287.761 3.63319C287.616 4.06917 287.809 4.71104 288.342 5.55878L293.392 13.2611L298.552 5.55878C299.133 4.68682 299.302 4.03284 299.06 3.59686C298.842 3.13665 298.116 2.87022 296.88 2.79756V2.21625H303.638V2.79756C303.057 2.87022 302.584 2.97922 302.221 3.12455C301.858 3.26987 301.519 3.49997 301.204 3.81485C300.913 4.10551 300.562 4.54149 300.15 5.1228L294.01 14.2058L301.022 24.851C301.507 25.5534 301.955 26.0621 302.366 26.3769C302.778 26.6676 303.42 26.8977 304.292 27.0673V27.6486H296.408V27.0673Z" fill="#013D5B"/>
<path d="M275.042 7.84769C275.042 6.34597 274.594 5.19546 273.697 4.39616C272.801 3.57264 271.675 3.16088 270.319 3.16088C268.72 3.16088 267.412 3.66952 266.395 4.68682C265.402 5.67989 264.578 7.27849 263.924 9.48263L263.343 9.37363L264.106 3.81485C265.171 3.3062 266.274 2.91866 267.412 2.65223C268.55 2.36158 269.64 2.21625 270.682 2.21625C272.765 2.21625 274.4 2.72489 275.587 3.74219C276.773 4.75948 277.367 6.20064 277.367 8.06568C277.367 8.96187 277.1 9.94283 276.568 11.0086C276.035 12.0501 275.187 13.2854 274.024 14.7144C272.862 16.1192 271.336 17.8632 269.447 19.9462L264.324 25.723H274.242C275.163 25.723 275.877 25.6261 276.386 25.4323C276.919 25.2386 277.355 24.851 277.694 24.2697C278.033 23.6884 278.384 22.8285 278.747 21.6901L279.329 21.7991L278.457 27.6486H262.289L262.035 27.0673L268.575 19.1106C270.125 17.2455 271.372 15.6833 272.317 14.4238C273.261 13.14 273.952 11.9895 274.388 10.9722C274.824 9.95494 275.042 8.91342 275.042 7.84769Z" fill="#013D5B"/>
<path d="M232.172 18.9289C232.172 16.9912 232.536 15.2836 233.262 13.8061C233.989 12.3286 234.994 11.1781 236.278 10.3546C237.586 9.50684 239.075 9.08297 240.747 9.08297C241.861 9.08297 242.939 9.27674 243.98 9.66428C245.022 10.0518 245.93 10.5847 246.705 11.2629V3.66952C246.705 2.82178 246.523 2.22835 246.16 1.88926C245.821 1.52594 245.155 1.29584 244.162 1.19895V0.653974L248.558 0L248.885 0.326987C248.788 1.07785 248.74 1.87715 248.74 2.72489V24.306C248.74 25.2022 248.909 25.8441 249.248 26.2316C249.612 26.6192 250.29 26.9098 251.283 27.1036V27.6486L247.359 27.9755C246.971 27.2974 246.778 26.4254 246.778 25.3597V25.1053C245.203 27.1884 243.084 28.2299 240.42 28.2299C238.748 28.2299 237.295 27.8423 236.06 27.0673C234.825 26.268 233.868 25.178 233.19 23.7974C232.511 22.3925 232.172 20.7697 232.172 18.9289ZM234.316 18.2386C234.316 20.0068 234.594 21.5569 235.152 22.8891C235.709 24.2213 236.484 25.2628 237.477 26.0136C238.47 26.7645 239.62 27.1399 240.928 27.1399C242.648 27.1399 244.041 26.5102 245.106 25.2507C246.172 23.9912 246.705 22.332 246.705 20.2732V16.0224C246.705 14.9082 246.427 13.9151 245.869 13.0431C245.337 12.147 244.598 11.4324 243.653 10.8996C242.709 10.3667 241.655 10.1003 240.492 10.1003C238.603 10.1003 237.101 10.8269 235.987 12.2802C234.873 13.7335 234.316 15.7196 234.316 18.2386Z" fill="#013D5B"/>
<path d="M213.581 18.6746C213.581 16.7853 213.92 15.1262 214.598 13.6971C215.3 12.2439 216.269 11.1176 217.504 10.3183C218.74 9.49474 220.169 9.08298 221.792 9.08298C223.923 9.08298 225.655 9.7975 226.987 11.2266C228.343 12.6314 229.119 14.557 229.312 17.0033H215.615C215.591 17.294 215.579 17.5846 215.579 17.8753C215.579 20.5154 216.221 22.6105 217.504 24.1607C218.812 25.7109 220.581 26.4859 222.809 26.4859C225.304 26.4859 227.181 25.505 228.44 23.5431L228.985 23.8337C227.605 26.7645 225.292 28.2299 222.046 28.2299C220.35 28.2299 218.861 27.8302 217.577 27.0309C216.318 26.2316 215.337 25.1174 214.634 23.6884C213.932 22.2351 213.581 20.5639 213.581 18.6746ZM217.577 11.6989C216.584 12.7646 215.954 14.2058 215.688 16.0224H226.951C226.709 14.1331 226.103 12.6798 225.134 11.6625C224.19 10.621 222.966 10.1003 221.465 10.1003C219.89 10.1003 218.594 10.6331 217.577 11.6989Z" fill="#013D5B"/>
<path d="M200.092 9.66428H202.635V5.88576L204.488 5.59511L204.815 5.9221C204.718 6.69718 204.67 7.49648 204.67 8.32V9.66428H210.447V10.6452H204.67V23.5431C204.67 24.5846 204.9 25.3839 205.36 25.941C205.845 26.4981 206.511 26.7766 207.359 26.7766C208.497 26.7766 209.466 26.1953 210.265 25.0327L210.774 25.3233C209.829 27.261 208.436 28.2299 206.596 28.2299C205.336 28.2299 204.355 27.8302 203.653 27.0309C202.974 26.2074 202.635 25.0327 202.635 23.5067V10.6452H200.092V9.66428Z" fill="#013D5B"/>
<path d="M190.454 27.1036C191.472 26.934 192.15 26.6676 192.489 26.3043C192.828 25.941 192.998 25.3354 192.998 24.4877V13.1158C192.998 12.2681 192.816 11.6746 192.453 11.3355C192.113 10.9722 191.447 10.7421 190.454 10.6452V10.1366L194.85 9.44629L195.177 9.77327C195.081 10.5484 195.032 11.3477 195.032 12.1712V24.4877C195.032 25.3354 195.19 25.941 195.504 26.3043C195.844 26.6676 196.534 26.934 197.575 27.1036V27.6486H190.454V27.1036ZM192.089 3.34253C192.089 2.85811 192.247 2.45846 192.562 2.14358C192.901 1.8287 193.3 1.67126 193.76 1.67126C194.245 1.67126 194.632 1.8287 194.923 2.14358C195.238 2.45846 195.395 2.85811 195.395 3.34253C195.395 3.82696 195.238 4.22661 194.923 4.54148C194.632 4.83214 194.245 4.97747 193.76 4.97747C193.3 4.97747 192.901 4.83214 192.562 4.54148C192.247 4.22661 192.089 3.82696 192.089 3.34253Z" fill="#013D5B"/>
<path d="M155.471 27.1036C156.488 26.934 157.166 26.6676 157.505 26.3043C157.844 25.941 158.014 25.3354 158.014 24.4877V13.2975C158.014 12.3771 157.844 11.7473 157.505 11.4082C157.19 11.0449 156.512 10.7785 155.471 10.6089V10.0639L159.394 9.4463C159.612 9.85806 159.758 10.2577 159.83 10.6452C159.927 11.0328 159.976 11.5414 159.976 12.1712C161.478 10.1124 163.512 9.08298 166.08 9.08298C167.557 9.08298 168.792 9.42208 169.785 10.1003C170.803 10.7785 171.505 11.7352 171.893 12.9705C173.419 10.3788 175.623 9.08298 178.505 9.08298C180.54 9.08298 182.102 9.68851 183.192 10.8996C184.306 12.0864 184.863 13.7819 184.863 15.986V24.4877C184.863 25.3354 185.033 25.941 185.372 26.3043C185.711 26.6676 186.389 26.934 187.406 27.1036V27.6486H180.285V27.1036C181.327 26.934 182.005 26.6676 182.32 26.3043C182.659 25.941 182.829 25.3354 182.829 24.4877V16.095C182.829 14.1573 182.417 12.6919 181.593 11.6989C180.794 10.6816 179.607 10.1729 178.033 10.1729C176.289 10.1729 174.92 10.8027 173.927 12.0622C172.958 13.3217 172.474 14.993 172.474 17.076V24.4514C172.474 25.3233 172.631 25.941 172.946 26.3043C173.285 26.6676 173.976 26.934 175.017 27.1036V27.6486H167.86V27.1036C168.901 26.934 169.58 26.6676 169.894 26.3043C170.234 25.941 170.403 25.3354 170.403 24.4877V16.095C170.403 14.1573 169.991 12.6919 169.168 11.6989C168.368 10.6816 167.182 10.1729 165.607 10.1729C163.888 10.1729 162.531 10.8027 161.538 12.0622C160.545 13.3217 160.048 14.993 160.048 17.076V24.4514C160.048 25.3233 160.206 25.941 160.521 26.3043C160.86 26.6676 161.55 26.934 162.592 27.1036V27.6486H155.471V27.1036Z" fill="#013D5B"/>
<path d="M145.288 27.1036C146.305 26.934 146.983 26.6676 147.322 26.3043C147.661 25.941 147.831 25.3354 147.831 24.4877V13.1158C147.831 12.2681 147.649 11.6746 147.286 11.3355C146.947 10.9722 146.281 10.7421 145.288 10.6452V10.1366L149.684 9.44629L150.011 9.77327C149.914 10.5484 149.866 11.3477 149.866 12.1712V24.4877C149.866 25.3354 150.023 25.941 150.338 26.3043C150.677 26.6676 151.367 26.934 152.409 27.1036V27.6486H145.288V27.1036ZM146.923 3.34253C146.923 2.85811 147.08 2.45846 147.395 2.14358C147.734 1.8287 148.134 1.67126 148.594 1.67126C149.078 1.67126 149.466 1.8287 149.757 2.14358C150.071 2.45846 150.229 2.85811 150.229 3.34253C150.229 3.82696 150.071 4.22661 149.757 4.54148C149.466 4.83214 149.078 4.97747 148.594 4.97747C148.134 4.97747 147.734 4.83214 147.395 4.54148C147.08 4.22661 146.923 3.82696 146.923 3.34253Z" fill="#013D5B"/>
<path d="M135.101 27.1036C136.142 26.934 136.82 26.6676 137.135 26.3043C137.474 25.941 137.644 25.3354 137.644 24.4877V3.70585C137.644 2.85811 137.462 2.26469 137.099 1.92559C136.76 1.56227 136.094 1.33217 135.101 1.23528V0.690305L139.497 0L139.824 0.326987C139.727 1.07785 139.678 1.87715 139.678 2.72489V24.4877C139.678 25.3354 139.836 25.941 140.151 26.3043C140.49 26.6676 141.18 26.934 142.222 27.1036V27.6486H135.101V27.1036Z" fill="#013D5B"/>
<path d="M112.185 27.1036C113.202 26.934 113.88 26.6676 114.219 26.3043C114.558 25.941 114.728 25.3354 114.728 24.4877V13.2975C114.728 12.3771 114.558 11.7473 114.219 11.4082C113.904 11.0449 113.226 10.7785 112.185 10.6089V10.0639L116.108 9.4463C116.326 9.88228 116.472 10.3062 116.544 10.7179C116.641 11.1055 116.69 11.6141 116.69 12.2439C118.288 10.1366 120.432 9.08298 123.12 9.08298C125.204 9.08298 126.814 9.68851 127.953 10.8996C129.115 12.0864 129.697 13.7819 129.697 15.986V24.4877C129.697 25.3354 129.854 25.941 130.169 26.3043C130.508 26.6676 131.198 26.934 132.24 27.1036V27.6486H125.082V27.1036C126.124 26.934 126.814 26.6676 127.153 26.3043C127.492 25.941 127.662 25.3354 127.662 24.4877V16.095C127.662 14.1573 127.238 12.6919 126.39 11.6989C125.543 10.6816 124.307 10.1729 122.685 10.1729C120.844 10.1729 119.39 10.8027 118.325 12.0622C117.283 13.3217 116.762 14.993 116.762 17.076V24.4877C116.762 25.3354 116.92 25.941 117.235 26.3043C117.574 26.6676 118.264 26.934 119.306 27.1036V27.6486H112.185V27.1036Z" fill="#013D5B"/>
<path d="M91.8319 21.3268V13.1158C91.8319 12.3165 91.6745 11.7352 91.3596 11.3719C91.0448 10.9843 90.3666 10.7421 89.325 10.6452V10.1003L93.6849 9.44629L94.0482 9.80961C93.9513 10.5605 93.9029 11.3598 93.9029 12.2075V21.2178C93.9029 23.1313 94.3025 24.5967 95.1018 25.614C95.9253 26.6313 97.1243 27.1399 98.6987 27.1399C100.467 27.1399 101.884 26.5344 102.95 25.3233C104.015 24.088 104.548 22.441 104.548 20.3822V12.5345C104.548 11.8805 104.403 11.4203 104.112 11.1539C103.846 10.8632 103.204 10.6816 102.187 10.6089V10.0639L106.437 9.44629L106.728 9.77328C106.631 10.5484 106.583 11.3719 106.583 12.2438V24.306C106.583 25.2022 106.752 25.8441 107.091 26.2316C107.455 26.6192 108.133 26.9098 109.126 27.1036V27.6486L105.202 27.9755C104.815 27.2974 104.621 26.4254 104.621 25.3597V24.96C103.046 27.1399 100.915 28.2299 98.2264 28.2299C96.1918 28.2299 94.6174 27.6365 93.5032 26.4496C92.389 25.2385 91.8319 23.5309 91.8319 21.3268Z" fill="#013D5B"/>
<path d="M58.148 27.1036C59.1653 26.934 59.8435 26.6676 60.1826 26.3043C60.5217 25.941 60.6913 25.3354 60.6913 24.4877V13.2975C60.6913 12.3771 60.5217 11.7473 60.1826 11.4082C59.8677 11.0449 59.1896 10.7785 58.148 10.6089V10.0639L62.0719 9.4463C62.2899 9.88228 62.4352 10.3062 62.5079 10.7179C62.6048 11.1055 62.6532 11.6141 62.6532 12.2439C64.2518 10.1366 66.3954 9.08298 69.0839 9.08298C71.167 9.08298 72.7777 9.68851 73.9161 10.8996C75.0787 12.0864 75.66 13.7819 75.66 15.986V24.4877C75.66 25.3354 75.8174 25.941 76.1323 26.3043C76.4714 26.6676 77.1617 26.934 78.2032 27.1036V27.6486H71.0459V27.1036C72.0874 26.934 72.7777 26.6676 73.1168 26.3043C73.4559 25.941 73.6254 25.3354 73.6254 24.4877V16.095C73.6254 14.1573 73.2015 12.6919 72.3538 11.6989C71.5061 10.6816 70.2708 10.1729 68.648 10.1729C66.8071 10.1729 65.3539 10.8027 64.2881 12.0622C63.2466 13.3217 62.7259 14.993 62.7259 17.076V24.4877C62.7259 25.3354 62.8833 25.941 63.1982 26.3043C63.5373 26.6676 64.2276 26.934 65.2691 27.1036V27.6486H58.148V27.1036Z" fill="#013D5B"/>
<path d="M42.1109 27.1036C43.1282 26.9583 43.8064 26.7039 44.1455 26.3406C44.4846 25.9773 44.6541 25.3597 44.6541 24.4877V13.2611C44.6541 12.365 44.4967 11.7473 44.1818 11.4082C43.8669 11.0449 43.1766 10.7785 42.1109 10.6089V10.0639L46.0347 9.4463C46.2527 9.9065 46.3981 10.3304 46.4707 10.7179C46.5676 11.0812 46.6161 11.5535 46.6161 12.1349C47.1731 11.166 47.8756 10.4151 48.7233 9.88228C49.5953 9.34941 50.552 9.08298 51.5935 9.08298C52.9015 9.08298 54.1368 9.51896 55.2994 10.3909L55.6627 14.9324L55.1177 15.0414C54.6091 13.3944 54.0156 12.1954 53.3375 11.4446C52.6593 10.6695 51.8236 10.2819 50.8306 10.2819C49.571 10.2819 48.5659 10.8632 47.815 12.0259C47.0641 13.1643 46.6887 14.7144 46.6887 16.6763V24.4877C46.6887 25.3597 46.9067 25.9773 47.3427 26.3406C47.8029 26.7039 48.6749 26.9583 49.9586 27.1036V27.6486H42.1109V27.1036Z" fill="#013D5B"/>
<path d="M22.6069 23.3977C22.6069 21.6538 23.4062 20.2611 25.0048 19.2196C26.6034 18.1538 28.7228 17.621 31.3629 17.621C31.9442 17.621 32.5255 17.6573 33.1068 17.73C33.6882 17.7784 34.2695 17.8632 34.8508 17.9843V15.986C34.8508 14.0726 34.4148 12.6072 33.5428 11.5899C32.6951 10.5726 31.4477 10.0639 29.8006 10.0639C27.1848 10.0639 25.2955 11.7231 24.1329 15.0414L23.5879 14.8961L24.2782 10.3909C26.3128 9.51896 28.2505 9.08298 30.0913 9.08298C32.2712 9.08298 33.9425 9.6764 35.1051 10.8632C36.2919 12.0501 36.8854 13.7577 36.8854 15.986V24.96C36.8854 26.1953 37.3456 26.8129 38.266 26.8129C38.6777 26.8129 39.0532 26.6434 39.3923 26.3043L39.8282 26.6313C39.2954 27.5275 38.4961 27.9756 37.4303 27.9756C36.7279 27.9756 36.1587 27.7576 35.7227 27.3216C35.311 26.8614 35.0567 26.2437 34.9598 25.4687C33.3854 27.3095 31.4114 28.2299 29.0377 28.2299C27.0515 28.2299 25.4772 27.7939 24.3145 26.9219C23.1761 26.05 22.6069 24.8752 22.6069 23.3977ZM24.7868 23.1797C24.7868 24.415 25.2107 25.3839 26.0585 26.0863C26.9062 26.7887 28.0688 27.1399 29.5463 27.1399C31.1207 27.1399 32.3923 26.6192 33.3612 25.5777C34.3542 24.5361 34.8508 23.0465 34.8508 21.1088V18.9289C34.3664 18.832 33.8698 18.7594 33.3612 18.7109C32.8767 18.6625 32.356 18.6383 31.7989 18.6383C29.5705 18.6383 27.8387 19.0379 26.6034 19.8372C25.3924 20.6365 24.7868 21.7507 24.7868 23.1797Z" fill="#013D5B"/>
<path d="M0 27.0309C1.08996 26.8614 1.80448 26.5949 2.14358 26.2316C2.5069 25.8441 2.68856 25.1901 2.68856 24.2697V5.5951C2.68856 4.67469 2.5069 4.03283 2.14358 3.66951C1.80448 3.28197 1.08996 3.00343 0 2.83388V2.21624H12.2802C13.4428 2.21624 14.3753 2.20413 15.0777 2.1799C15.7801 2.13146 16.4583 2.0588 17.1123 1.96191L18.0569 8.17467L17.403 8.31999C16.967 6.89094 16.531 5.8252 16.095 5.12279C15.659 4.39615 15.1141 3.91172 14.4601 3.66951C13.8303 3.40308 12.9584 3.26986 11.8442 3.26986H4.86847V13.9878H11.1176C12.1591 13.9878 12.8736 13.794 13.2611 13.4065C13.6729 13.0189 13.9999 12.2075 14.2421 10.9722H14.7871V17.9843H14.2421C14.0968 17.1607 13.903 16.5431 13.6608 16.1313C13.4428 15.6954 13.14 15.4047 12.7525 15.2594C12.365 15.0898 11.82 15.0051 11.1176 15.0051H4.86847V24.197C4.86847 25.069 5.03802 25.6866 5.37712 26.0499C5.71622 26.4133 6.30964 26.5949 7.15738 26.5949H11.7715C13.0068 26.5949 13.9878 26.4496 14.7144 26.1589C15.441 25.8683 16.0587 25.2991 16.5673 24.4513C17.076 23.6036 17.5967 22.332 18.1296 20.6365L18.7472 20.7455L17.73 27.6486H0V27.0309Z" fill="#013D5B"/>
</svg>
