<svg width="448" height="78" viewBox="0 0 448 78" fill="none" xmlns="http://www.w3.org/2000/svg">
<path d="M445.785 72.9705C445.785 71.9116 445.388 71.0247 444.594 70.3099C443.799 69.5687 442.396 68.8142 440.384 68.0465C437.975 67.1199 436.268 66.1933 435.262 65.2667C434.256 64.3137 433.753 63.2018 433.753 61.9311C433.753 60.4221 434.362 59.2175 435.579 58.3174C436.797 57.3909 438.412 56.9276 440.424 56.9276C441.377 56.9276 442.396 57.0467 443.482 57.285C444.594 57.4968 445.626 57.8012 446.579 58.1983L447.334 63.1621L446.738 63.3209C445.997 61.4413 445.11 60.0912 444.077 59.2705C443.071 58.4233 441.787 57.9998 440.225 57.9998C438.849 57.9998 437.777 58.291 437.009 58.8734C436.241 59.4293 435.857 60.2235 435.857 61.256C435.857 62.2355 436.268 63.0694 437.088 63.7578C437.909 64.4196 439.365 65.1609 441.456 65.9815C443.098 66.6169 444.382 67.2258 445.308 67.8082C446.235 68.3906 446.897 69.0127 447.294 69.6746C447.691 70.3364 447.89 71.1042 447.89 71.9778C447.89 73.725 447.241 75.1414 445.944 76.2268C444.673 77.3122 442.992 77.8549 440.901 77.8549C439.842 77.8549 438.703 77.6961 437.485 77.3784C436.294 77.0872 435.182 76.6768 434.15 76.1474L433.395 71.1042L433.991 70.9453C435.447 74.8369 437.83 76.7827 441.139 76.7827C442.595 76.7827 443.733 76.4518 444.554 75.79C445.375 75.1017 445.785 74.1618 445.785 72.9705Z" fill="#013D5B"/>
<path d="M427.093 72.9705C427.093 71.9116 426.696 71.0247 425.902 70.3099C425.108 69.5687 423.704 68.8142 421.693 68.0465C419.283 67.1199 417.576 66.1933 416.57 65.2667C415.564 64.3137 415.061 63.2018 415.061 61.9311C415.061 60.4221 415.67 59.2175 416.888 58.3174C418.105 57.3909 419.72 56.9276 421.732 56.9276C422.685 56.9276 423.705 57.0467 424.79 57.285C425.902 57.4968 426.934 57.8012 427.887 58.1983L428.642 63.1621L428.046 63.3209C427.305 61.4413 426.418 60.0912 425.386 59.2705C424.38 58.4233 423.096 57.9998 421.534 57.9998C420.157 57.9998 419.085 58.291 418.317 58.8734C417.549 59.4293 417.166 60.2235 417.166 61.256C417.166 62.2355 417.576 63.0694 418.397 63.7578C419.217 64.4196 420.673 65.1609 422.765 65.9815C424.406 66.6169 425.69 67.2258 426.617 67.8082C427.543 68.3906 428.205 69.0127 428.602 69.6746C428.999 70.3364 429.198 71.1042 429.198 71.9778C429.198 73.725 428.549 75.1414 427.252 76.2268C425.981 77.3122 424.3 77.8549 422.209 77.8549C421.15 77.8549 420.011 77.6961 418.794 77.3784C417.602 77.0872 416.49 76.6768 415.458 76.1474L414.703 71.1042L415.299 70.9453C416.755 74.8369 419.138 76.7827 422.447 76.7827C423.903 76.7827 425.041 76.4518 425.862 75.79C426.683 75.1017 427.093 74.1618 427.093 72.9705Z" fill="#013D5B"/>
<path d="M393.867 67.4111C393.867 65.3462 394.237 63.5327 394.979 61.9708C395.746 60.3824 396.805 59.1514 398.155 58.2777C399.506 57.3776 401.068 56.9276 402.841 56.9276C405.171 56.9276 407.064 57.7086 408.52 59.2705C410.002 60.806 410.85 62.9106 411.061 65.5844H396.091C396.064 65.9021 396.051 66.2198 396.051 66.5375C396.051 69.4231 396.752 71.713 398.155 73.4074C399.585 75.1017 401.518 75.9488 403.953 75.9488C406.68 75.9488 408.732 74.8766 410.108 72.7323L410.704 73.05C409.195 76.2533 406.667 77.8549 403.119 77.8549C401.266 77.8549 399.638 77.4181 398.235 76.5445C396.858 75.6708 395.786 74.4531 395.018 72.8911C394.251 71.3027 393.867 69.476 393.867 67.4111ZM398.235 59.7867C397.149 60.9516 396.461 62.5267 396.17 64.5122H408.48C408.215 62.4473 407.554 60.8589 406.495 59.747C405.462 58.6087 404.125 58.0395 402.484 58.0395C400.763 58.0395 399.347 58.6219 398.235 59.7867Z" fill="#013D5B"/>
<path d="M368.939 76.6239C370.051 76.4386 370.792 76.1474 371.163 75.7503C371.533 75.3532 371.719 74.6913 371.719 73.7647V61.534C371.719 60.528 371.533 59.8397 371.163 59.469C370.819 59.0719 370.077 58.7807 368.939 58.5954V57.9998L373.228 57.3247C373.466 57.8012 373.625 58.2645 373.704 58.7145C373.81 59.1381 373.863 59.6941 373.863 60.3824C375.61 58.0792 377.953 56.9276 380.892 56.9276C383.168 56.9276 384.929 57.5894 386.173 58.9131C387.444 60.2103 388.079 62.0634 388.079 64.4725V73.7647C388.079 74.6913 388.251 75.3532 388.596 75.7503C388.966 76.1474 389.721 76.4386 390.859 76.6239V77.2195H383.036V76.6239C384.174 76.4386 384.929 76.1474 385.3 75.7503C385.67 75.3532 385.856 74.6913 385.856 73.7647V64.5917C385.856 62.4738 385.392 60.8721 384.466 59.7867C383.539 58.6748 382.189 58.1189 380.415 58.1189C378.403 58.1189 376.815 58.8072 375.65 60.1838C374.512 61.5605 373.942 63.3871 373.942 65.6638V73.7647C373.942 74.6913 374.115 75.3532 374.459 75.7503C374.829 76.1474 375.584 76.4386 376.722 76.6239V77.2195H368.939V76.6239Z" fill="#013D5B"/>
<path d="M357.809 76.6239C358.921 76.4386 359.662 76.1474 360.033 75.7503C360.404 75.3532 360.589 74.6913 360.589 73.7648V61.3354C360.589 60.4089 360.39 59.7603 359.993 59.3896C359.623 58.9925 358.895 58.741 357.809 58.6351V58.0792L362.614 57.3247L362.972 57.6821C362.866 58.5292 362.813 59.4029 362.813 60.303V73.7648C362.813 74.6913 362.985 75.3532 363.329 75.7503C363.7 76.1474 364.454 76.4386 365.592 76.6239V77.2195H357.809V76.6239ZM359.596 50.6534C359.596 50.1239 359.768 49.6871 360.112 49.3429C360.483 48.9988 360.92 48.8267 361.423 48.8267C361.952 48.8267 362.376 48.9988 362.694 49.3429C363.038 49.6871 363.21 50.1239 363.21 50.6534C363.21 51.1828 363.038 51.6197 362.694 51.9638C362.376 52.2815 361.952 52.4403 361.423 52.4403C360.92 52.4403 360.483 52.2815 360.112 51.9638C359.768 51.6197 359.596 51.1828 359.596 50.6534Z" fill="#013D5B"/>
<path d="M351.706 72.9705C351.706 71.9116 351.309 71.0247 350.514 70.3099C349.72 69.5687 348.317 68.8142 346.305 68.0465C343.896 67.1199 342.188 66.1933 341.182 65.2667C340.176 64.3137 339.673 63.2018 339.673 61.9311C339.673 60.4221 340.282 59.2175 341.5 58.3174C342.718 57.3909 344.333 56.9276 346.345 56.9276C347.298 56.9276 348.317 57.0467 349.402 57.285C350.514 57.4968 351.547 57.8012 352.5 58.1983L353.254 63.1621L352.659 63.3209C351.917 61.4413 351.031 60.0912 349.998 59.2705C348.992 58.4233 347.708 57.9998 346.146 57.9998C344.77 57.9998 343.697 58.291 342.93 58.8734C342.162 59.4293 341.778 60.2235 341.778 61.256C341.778 62.2355 342.188 63.0694 343.009 63.7578C343.83 64.4196 345.286 65.1609 347.377 65.9815C349.019 66.6169 350.303 67.2258 351.229 67.8082C352.156 68.3906 352.817 69.0127 353.215 69.6746C353.612 70.3364 353.81 71.1042 353.81 71.9778C353.81 73.725 353.162 75.1414 351.864 76.2268C350.594 77.3122 348.913 77.8549 346.821 77.8549C345.762 77.8549 344.624 77.6961 343.406 77.3784C342.215 77.0872 341.103 76.6768 340.07 76.1474L339.316 71.1042L339.912 70.9453C341.368 74.8369 343.75 76.7827 347.06 76.7827C348.516 76.7827 349.654 76.4518 350.475 75.79C351.295 75.1017 351.706 74.1618 351.706 72.9705Z" fill="#013D5B"/>
<path d="M316.872 70.31V61.3354C316.872 60.4618 316.7 59.8265 316.356 59.4294C316.012 59.0058 315.271 58.741 314.132 58.6351V58.0395L318.897 57.3247L319.295 57.7218C319.189 58.5425 319.136 59.4161 319.136 60.3427V70.1908C319.136 72.2823 319.573 73.8839 320.446 74.9958C321.346 76.1077 322.657 76.6636 324.378 76.6636C326.31 76.6636 327.859 76.0018 329.024 74.6781C330.188 73.328 330.771 71.5278 330.771 69.2775V60.7001C330.771 59.9853 330.612 59.4823 330.294 59.1911C330.003 58.8734 329.302 58.6749 328.19 58.5954V57.9998L332.836 57.3247L333.153 57.6821C333.048 58.5293 332.995 59.4294 332.995 60.3824V73.5662C332.995 74.5457 333.18 75.2473 333.551 75.6709C333.948 76.0944 334.689 76.4121 335.774 76.6239V77.2196L331.486 77.577C331.062 76.8357 330.85 75.8827 330.85 74.7178V74.281C329.13 76.6636 326.8 77.8549 323.861 77.8549C321.637 77.8549 319.917 77.2063 318.699 75.9091C317.481 74.5854 316.872 72.7191 316.872 70.31Z" fill="#013D5B"/>
<path d="M290.57 76.5445C291.761 76.3591 292.542 76.0679 292.913 75.6708C293.31 75.2473 293.509 74.5325 293.509 73.5265V53.1154C293.509 52.1094 293.31 51.4078 292.913 51.0107C292.542 50.5872 291.761 50.2827 290.57 50.0974V49.4223H299.306C302.801 49.4223 305.488 50.0048 307.368 51.1696C309.274 52.3079 310.227 53.9625 310.227 56.1334C310.227 59.3367 308.188 61.4546 304.111 62.487C306.6 62.8576 308.506 63.6519 309.83 64.8696C311.18 66.0874 311.855 67.6758 311.855 69.6349C311.855 72.0704 310.796 73.9501 308.678 75.2737C306.587 76.5709 303.595 77.2195 299.703 77.2195H290.57V76.5445ZM295.891 73.4471C295.891 74.4001 296.063 75.0752 296.407 75.4723C296.778 75.8694 297.453 76.0679 298.433 76.0679H299.703C306.11 76.0679 309.313 74.0295 309.313 69.9526C309.313 67.8876 308.519 66.2727 306.931 65.1079C305.369 63.9431 303.171 63.3606 300.339 63.3606H295.891V73.4471ZM307.765 56.5702C307.765 54.7435 306.997 53.2875 305.461 52.2021C303.926 51.1166 301.782 50.5739 299.028 50.5739H295.891V62.209H298.115C301.345 62.209 303.754 61.7193 305.342 60.7398C306.957 59.7602 307.765 58.3704 307.765 56.5702Z" fill="#013D5B"/>
<path d="M269.596 76.5842C271.025 76.4518 271.833 76.1474 272.018 75.6708C272.23 75.1678 272.045 74.4663 271.462 73.5662L265.228 64.0754L258.834 73.5662C258.252 74.4663 258.08 75.1678 258.318 75.6708C258.556 76.1474 259.284 76.4518 260.502 76.5842V77.2195H253.315V76.5842C254.241 76.4518 254.956 76.2003 255.459 75.8297C255.989 75.4326 256.531 74.8369 257.087 74.0427L264.553 63.043L257.643 52.48C257.14 51.7123 256.65 51.1564 256.174 50.8122C255.724 50.4416 255.022 50.1901 254.069 50.0577V49.4223H262.686V50.0577C261.151 50.1636 260.304 50.468 260.145 50.971C259.986 51.4476 260.198 52.1491 260.78 53.0757L266.3 61.4943L271.939 53.0757C272.574 52.1226 272.759 51.4078 272.495 50.9313C272.256 50.4283 271.462 50.1371 270.112 50.0577V49.4223H277.498V50.0577C276.863 50.1371 276.347 50.2563 275.95 50.4151C275.552 50.5739 275.182 50.8254 274.838 51.1696C274.52 51.4873 274.136 51.9638 273.686 52.5992L266.975 62.5267L274.639 74.1618C275.169 74.9296 275.658 75.4855 276.108 75.8297C276.558 76.1474 277.26 76.3989 278.213 76.5842V77.2195H269.596V76.5842Z" fill="#013D5B"/>
<path d="M224.322 67.4111C224.322 65.3462 224.693 63.5327 225.434 61.9708C226.202 60.3824 227.261 59.1514 228.611 58.2777C229.961 57.3776 231.523 56.9276 233.297 56.9276C235.627 56.9276 237.52 57.7086 238.976 59.2705C240.458 60.806 241.305 62.9106 241.517 65.5844H226.546C226.52 65.9021 226.507 66.2198 226.507 66.5375C226.507 69.4231 227.208 71.713 228.611 73.4074C230.041 75.1017 231.973 75.9488 234.409 75.9488C237.136 75.9488 239.187 74.8766 240.564 72.7323L241.16 73.05C239.651 76.2533 237.122 77.8549 233.575 77.8549C231.722 77.8549 230.094 77.4181 228.691 76.5445C227.314 75.6708 226.242 74.4531 225.474 72.8911C224.706 71.3027 224.322 69.476 224.322 67.4111ZM228.691 59.7867C227.605 60.9516 226.917 62.5267 226.626 64.5122H238.936C238.671 62.4473 238.009 60.8589 236.95 59.747C235.918 58.6087 234.581 58.0395 232.94 58.0395C231.219 58.0395 229.803 58.6219 228.691 59.7867Z" fill="#013D5B"/>
<path d="M207.112 76.6239C208.224 76.465 208.965 76.1871 209.336 75.79C209.706 75.3929 209.892 74.7178 209.892 73.7647V61.4943C209.892 60.5147 209.719 59.8397 209.375 59.469C209.031 59.0719 208.277 58.7807 207.112 58.5954V57.9998L211.4 57.3247C211.639 57.8277 211.798 58.291 211.877 58.7145C211.983 59.1116 212.036 59.6279 212.036 60.2632C212.645 59.2043 213.412 58.3836 214.339 57.8012C215.292 57.2188 216.338 56.9276 217.476 56.9276C218.906 56.9276 220.256 57.4041 221.527 58.3572L221.924 63.3209L221.328 63.4401C220.772 61.6399 220.124 60.3294 219.382 59.5088C218.641 58.6616 217.728 58.238 216.642 58.238C215.266 58.238 214.167 58.8734 213.346 60.1441C212.526 61.3884 212.115 63.0827 212.115 65.227V73.7647C212.115 74.7178 212.354 75.3929 212.83 75.79C213.333 76.1871 214.286 76.465 215.689 76.6239V77.2195H207.112V76.6239Z" fill="#013D5B"/>
<path d="M184.867 70.31V61.3354C184.867 60.4618 184.694 59.8265 184.35 59.4294C184.006 59.0058 183.265 58.741 182.127 58.6351V58.0395L186.892 57.3247L187.289 57.7218C187.183 58.5425 187.13 59.4161 187.13 60.3427V70.1908C187.13 72.2823 187.567 73.8839 188.44 74.9958C189.341 76.1077 190.651 76.6636 192.372 76.6636C194.304 76.6636 195.853 76.0018 197.018 74.6781C198.183 73.328 198.765 71.5278 198.765 69.2775V60.7001C198.765 59.9853 198.606 59.4823 198.289 59.1911C197.997 58.8734 197.296 58.6749 196.184 58.5954V57.9998L200.83 57.3247L201.148 57.6821C201.042 58.5293 200.989 59.4294 200.989 60.3824V73.5662C200.989 74.5457 201.174 75.2473 201.545 75.6709C201.942 76.0944 202.683 76.4121 203.769 76.6239V77.2196L199.48 77.577C199.056 76.8357 198.845 75.8827 198.845 74.7178V74.281C197.124 76.6636 194.794 77.8549 191.856 77.8549C189.632 77.8549 187.911 77.2063 186.693 75.9091C185.475 74.5854 184.867 72.7191 184.867 70.31Z" fill="#013D5B"/>
<path d="M167.155 57.563H169.935V53.4331L171.96 53.1154L172.317 53.4728C172.211 54.32 172.158 55.1936 172.158 56.0937V57.563H178.472V58.6351H172.158V72.7323C172.158 73.8707 172.41 74.7443 172.913 75.3532C173.442 75.9621 174.17 76.2665 175.097 76.2665C176.341 76.2665 177.4 75.6312 178.274 74.3604L178.83 74.6781C177.797 76.796 176.275 77.8549 174.263 77.8549C172.886 77.8549 171.814 77.4181 171.046 76.5445C170.305 75.6444 169.935 74.3604 169.935 72.6926V58.6351H167.155V57.563Z" fill="#013D5B"/>
<path d="M142.505 76.6239C143.617 76.4386 144.358 76.1474 144.729 75.7503C145.099 75.3532 145.285 74.6913 145.285 73.7647V61.534C145.285 60.528 145.099 59.8397 144.729 59.469C144.385 59.0719 143.643 58.7807 142.505 58.5954V57.9998L146.794 57.3247C147.032 57.8012 147.191 58.2645 147.27 58.7145C147.376 59.1381 147.429 59.6941 147.429 60.3824C149.176 58.0792 151.519 56.9276 154.458 56.9276C156.735 56.9276 158.495 57.5894 159.739 58.9131C161.01 60.2103 161.645 62.0634 161.645 64.4725V73.7647C161.645 74.6913 161.817 75.3532 162.162 75.7503C162.532 76.1474 163.287 76.4386 164.425 76.6239V77.2195H156.602V76.6239C157.741 76.4386 158.495 76.1474 158.866 75.7503C159.236 75.3532 159.422 74.6913 159.422 73.7647V64.5917C159.422 62.4738 158.958 60.8721 158.032 59.7867C157.105 58.6748 155.755 58.1189 153.981 58.1189C151.969 58.1189 150.381 58.8072 149.216 60.1838C148.078 61.5605 147.508 63.3871 147.508 65.6638V73.7647C147.508 74.6913 147.681 75.3532 148.025 75.7503C148.395 76.1474 149.15 76.4386 150.288 76.6239V77.2195H142.505V76.6239Z" fill="#013D5B"/>
<path d="M121.867 67.4111C121.867 65.3462 122.237 63.5327 122.979 61.9708C123.746 60.3824 124.805 59.1514 126.156 58.2777C127.506 57.3776 129.068 56.9276 130.841 56.9276C133.171 56.9276 135.064 57.7086 136.52 59.2705C138.002 60.806 138.85 62.9106 139.061 65.5844H124.091C124.064 65.9021 124.051 66.2198 124.051 66.5375C124.051 69.4231 124.752 71.713 126.156 73.4074C127.585 75.1017 129.518 75.9488 131.953 75.9488C134.68 75.9488 136.732 74.8766 138.108 72.7323L138.704 73.05C137.195 76.2533 134.667 77.8549 131.119 77.8549C129.266 77.8549 127.638 77.4181 126.235 76.5445C124.858 75.6708 123.786 74.4531 123.018 72.8911C122.251 71.3027 121.867 69.476 121.867 67.4111ZM126.235 59.7867C125.15 60.9516 124.461 62.5267 124.17 64.5122H136.48C136.215 62.4473 135.554 60.8589 134.495 59.747C133.462 58.6087 132.125 58.0395 130.484 58.0395C128.763 58.0395 127.347 58.6219 126.235 59.7867Z" fill="#013D5B"/>
<path d="M95.5206 49.4223H104.098V50.0577C102.721 50.1636 101.848 50.4548 101.477 50.9313C101.107 51.4078 101.093 52.0697 101.437 52.9168L109.737 73.9236L117.997 53.0757C118.367 52.1491 118.341 51.4343 117.917 50.9313C117.52 50.4283 116.646 50.1371 115.296 50.0577V49.4223H122.643V50.0577C121.716 50.1636 121.041 50.4283 120.618 50.8519C120.194 51.249 119.784 51.9506 119.386 52.9566L109.419 77.6166H108.704L98.7768 52.9566C98.3533 51.9506 97.9429 51.249 97.5458 50.8519C97.1487 50.4548 96.4736 50.1901 95.5206 50.0577V49.4223Z" fill="#013D5B"/>
<path d="M61.9164 76.6239C63.0283 76.4386 63.7695 76.1473 64.1402 75.7502C64.5108 75.3531 64.6961 74.6781 64.6961 73.725V51.0504C64.6961 50.1239 64.4976 49.4753 64.1004 49.1046C63.7298 48.7075 63.0018 48.456 61.9164 48.3501V47.7545L66.7213 47L67.0787 47.3574C66.9728 48.2045 66.9199 49.0914 66.9199 50.018V60.2632C68.6407 58.0395 70.9571 56.9276 73.8692 56.9276C76.1459 56.9276 77.9064 57.5894 79.1507 58.9131C80.4214 60.2103 81.0567 62.0634 81.0567 64.4725V73.7647C81.0567 74.6913 81.2288 75.3531 81.573 75.7502C81.9436 76.1473 82.6981 76.4386 83.8365 76.6239V77.2195H76.0135V76.6239C77.1519 76.4386 77.9064 76.1473 78.277 75.7502C78.6477 75.3531 78.833 74.6913 78.833 73.7647V64.5917C78.833 62.4738 78.3697 60.8721 77.4431 59.7867C76.5165 58.6748 75.1664 58.1189 73.3927 58.1189C71.3807 58.1189 69.7923 58.8072 68.6274 60.1838C67.4891 61.5604 66.9199 63.3871 66.9199 65.6638V73.8442C66.9199 74.7707 67.092 75.4326 67.4361 75.8297C67.8067 76.2003 68.5612 76.465 69.6996 76.6239V77.2195H61.9164V76.6239Z" fill="#013D5B"/>
<path d="M46.6667 57.563H49.4464V53.4331L51.4717 53.1154L51.8291 53.4728C51.7232 54.32 51.6702 55.1936 51.6702 56.0937V57.563H57.9841V58.6351H51.6702V72.7323C51.6702 73.8707 51.9217 74.7443 52.4247 75.3532C52.9542 75.9621 53.6822 76.2665 54.6088 76.2665C55.853 76.2665 56.912 75.6312 57.7856 74.3604L58.3415 74.6781C57.3091 76.796 55.7868 77.8549 53.7749 77.8549C52.3982 77.8549 51.3261 77.4181 50.5583 76.5445C49.8171 75.6444 49.4464 74.3604 49.4464 72.6926V58.6351H46.6667V57.563Z" fill="#013D5B"/>
<path d="M36.1326 76.6239C37.2445 76.4386 37.9858 76.1474 38.3564 75.7503C38.727 75.3532 38.9123 74.6913 38.9123 73.7648V61.3354C38.9123 60.4089 38.7138 59.7603 38.3167 59.3896C37.9461 58.9925 37.218 58.741 36.1326 58.6351V58.0792L40.9376 57.3247L41.295 57.6821C41.1891 58.5292 41.1361 59.4029 41.1361 60.303V73.7648C41.1361 74.6913 41.3082 75.3532 41.6524 75.7503C42.023 76.1474 42.7775 76.4386 43.9158 76.6239V77.2195H36.1326V76.6239ZM37.9196 50.6534C37.9196 50.1239 38.0917 49.6871 38.4358 49.3429C38.8065 48.9988 39.2433 48.8267 39.7463 48.8267C40.2757 48.8267 40.6993 48.9988 41.017 49.3429C41.3612 49.6871 41.5332 50.1239 41.5332 50.6534C41.5332 51.1828 41.3612 51.6197 41.017 51.9638C40.6993 52.2815 40.2757 52.4403 39.7463 52.4403C39.2433 52.4403 38.8065 52.2815 38.4358 51.9638C38.0917 51.6197 37.9196 51.1828 37.9196 50.6534Z" fill="#013D5B"/>
<path d="M0 57.563H7.94206V58.1586C6.67133 58.2645 5.89036 58.516 5.59915 58.9131C5.33441 59.2837 5.37413 59.9323 5.71828 60.8589L10.8806 74.1619L16.1621 60.7001L15.9238 60.0647C15.6591 59.4293 15.3282 58.9793 14.9311 58.7146C14.534 58.4498 13.8986 58.2645 13.025 58.1586V57.563H20.967V58.1586C19.6963 58.2645 18.9153 58.516 18.6241 58.9131C18.3594 59.2837 18.3991 59.9323 18.7433 60.8589L23.9453 74.2016L29.1474 60.8589C29.518 59.9323 29.5577 59.2837 29.2665 58.9131C28.9753 58.516 28.1943 58.2645 26.9236 58.1586V57.563H33.5552V58.1586C32.708 58.2645 32.0859 58.4498 31.6888 58.7146C31.2917 58.9793 30.9608 59.4293 30.6961 60.0647L23.6276 77.6167H22.9525L16.7975 62.2091L10.6026 77.6167H9.92757L2.85914 60.0647C2.62088 59.4293 2.3032 58.9793 1.90609 58.7146C1.50899 58.4498 0.873626 58.2645 0 58.1586V57.563Z" fill="#013D5B"/>
<path d="M438.957 25.9705C438.957 24.9116 438.56 24.0247 437.765 23.3099C436.971 22.5687 435.568 21.8142 433.556 21.0465C431.147 20.1199 429.439 19.1933 428.433 18.2667C427.427 17.3137 426.924 16.2018 426.924 14.9311C426.924 13.4221 427.533 12.2175 428.751 11.3174C429.969 10.3909 431.584 9.92758 433.596 9.92758C434.549 9.92758 435.568 10.0467 436.653 10.285C437.765 10.4968 438.798 10.8012 439.751 11.1983L440.505 16.1621L439.91 16.3209C439.168 14.4413 438.282 13.0912 437.249 12.2705C436.243 11.4233 434.959 10.9998 433.397 10.9998C432.021 10.9998 430.948 11.291 430.181 11.8734C429.413 12.4293 429.029 13.2235 429.029 14.256C429.029 15.2355 429.439 16.0694 430.26 16.7578C431.081 17.4196 432.537 18.1608 434.628 18.9815C436.27 19.6169 437.554 20.2258 438.48 20.8082C439.407 21.3906 440.069 22.0127 440.466 22.6746C440.863 23.3364 441.061 24.1042 441.061 24.9778C441.061 26.725 440.413 28.1414 439.116 29.2268C437.845 30.3122 436.164 30.8549 434.072 30.8549C433.013 30.8549 431.875 30.6961 430.657 30.3784C429.466 30.0872 428.354 29.6768 427.322 29.1474L426.567 24.1042L427.163 23.9453C428.619 27.8369 431.001 29.7827 434.311 29.7827C435.767 29.7827 436.905 29.4518 437.726 28.79C438.546 28.1017 438.957 27.1618 438.957 25.9705Z" fill="#013D5B"/>
<path d="M405.73 20.4111C405.73 18.3462 406.101 16.5327 406.842 14.9708C407.61 13.3824 408.669 12.1514 410.019 11.2777C411.369 10.3776 412.931 9.92758 414.705 9.92758C417.035 9.92758 418.927 10.7086 420.383 12.2705C421.866 13.806 422.713 15.9106 422.925 18.5844H407.954C407.928 18.9021 407.914 19.2198 407.914 19.5375C407.914 22.4231 408.616 24.713 410.019 26.4074C411.449 28.1017 413.381 28.9488 415.817 28.9488C418.544 28.9488 420.595 27.8766 421.972 25.7323L422.567 26.05C421.058 29.2533 418.53 30.8549 414.983 30.8549C413.13 30.8549 411.502 30.4181 410.098 29.5445C408.722 28.6708 407.65 27.4531 406.882 25.8911C406.114 24.3027 405.73 22.476 405.73 20.4111ZM410.098 12.7867C409.013 13.9516 408.325 15.5267 408.034 17.5122H420.344C420.079 15.4473 419.417 13.8589 418.358 12.747C417.326 11.6087 415.989 11.0395 414.347 11.0395C412.627 11.0395 411.21 11.6219 410.098 12.7867Z" fill="#013D5B"/>
<path d="M394.914 29.6239C396.052 29.4386 396.793 29.1474 397.137 28.7502C397.508 28.3531 397.693 27.6913 397.693 26.7647V4.05045C397.693 3.12388 397.495 2.47528 397.098 2.10465C396.727 1.70754 395.999 1.45604 394.914 1.35015V0.754495L399.719 0L400.076 0.357393C399.97 1.17807 399.917 2.0517 399.917 2.97827V26.7647C399.917 27.6913 400.089 28.3531 400.433 28.7502C400.804 29.1474 401.558 29.4386 402.697 29.6239V30.2195H394.914V29.6239Z" fill="#013D5B"/>
<path d="M383.982 29.6239C385.094 29.4386 385.836 29.1474 386.206 28.7503C386.577 28.3532 386.762 27.6913 386.762 26.7647V14.3354C386.762 13.4089 386.564 12.7603 386.166 12.3896C385.796 11.9925 385.068 11.741 383.982 11.6351V11.0792L388.787 10.3247L389.145 10.6821C389.039 11.5292 388.986 12.4029 388.986 13.303V26.7647C388.986 27.6913 389.158 28.3532 389.502 28.7503C389.873 29.1474 390.627 29.4386 391.766 29.6239V30.2195H383.982V29.6239ZM385.769 3.65336C385.769 3.12389 385.941 2.68708 386.286 2.34292C386.656 1.99877 387.093 1.82669 387.596 1.82669C388.126 1.82669 388.549 1.99877 388.867 2.34292C389.211 2.68708 389.383 3.12389 389.383 3.65336C389.383 4.18283 389.211 4.61965 388.867 4.9638C388.549 5.28149 388.126 5.44033 387.596 5.44033C387.093 5.44033 386.656 5.28149 386.286 4.9638C385.941 4.61965 385.769 4.18283 385.769 3.65336Z" fill="#013D5B"/>
<path d="M345.746 29.6239C346.858 29.4386 347.599 29.1474 347.97 28.7503C348.34 28.3532 348.526 27.6913 348.526 26.7647V14.534C348.526 13.528 348.34 12.8397 347.97 12.469C347.625 12.0719 346.884 11.7807 345.746 11.5954V10.9998L350.034 10.3247C350.273 10.7747 350.432 11.2115 350.511 11.6351C350.617 12.0587 350.67 12.6146 350.67 13.303C352.311 11.0527 354.535 9.92758 357.341 9.92758C358.956 9.92758 360.306 10.2982 361.392 11.0395C362.504 11.7807 363.271 12.8264 363.695 14.1766C365.363 11.3439 367.772 9.92758 370.922 9.92758C373.146 9.92758 374.853 10.5894 376.045 11.9131C377.263 13.2103 377.871 15.0634 377.871 17.4725V26.7647C377.871 27.6913 378.057 28.3532 378.427 28.7503C378.798 29.1474 379.539 29.4386 380.651 29.6239V30.2195H372.868V29.6239C374.006 29.4386 374.748 29.1474 375.092 28.7503C375.462 28.3532 375.648 27.6913 375.648 26.7647V17.5917C375.648 15.4738 375.198 13.8721 374.297 12.7867C373.424 11.6748 372.127 11.1189 370.406 11.1189C368.5 11.1189 367.004 11.8072 365.919 13.1838C364.86 14.5604 364.33 16.3871 364.33 18.6638V26.725C364.33 27.6781 364.502 28.3532 364.846 28.7503C365.217 29.1474 365.972 29.4386 367.11 29.6239V30.2195H359.287V29.6239C360.425 29.4386 361.167 29.1474 361.511 28.7503C361.881 28.3532 362.067 27.6913 362.067 26.7647V17.5917C362.067 15.4738 361.617 13.8721 360.717 12.7867C359.843 11.6748 358.546 11.1189 356.825 11.1189C354.945 11.1189 353.463 11.8072 352.377 13.1838C351.292 14.5604 350.749 16.3871 350.749 18.6638V26.725C350.749 27.6781 350.921 28.3532 351.266 28.7503C351.636 29.1474 352.391 29.4386 353.529 29.6239V30.2195H345.746V29.6239Z" fill="#013D5B"/>
<path d="M324.97 29.5842C326.4 29.4518 327.207 29.1474 327.392 28.6708C327.604 28.1678 327.419 27.4663 326.837 26.5662L320.602 17.0754L314.209 26.5662C313.626 27.4663 313.454 28.1678 313.692 28.6708C313.931 29.1474 314.659 29.4518 315.876 29.5842V30.2195H308.689V29.5842C309.616 29.4518 310.33 29.2003 310.833 28.8297C311.363 28.4326 311.905 27.8369 312.461 27.0427L319.927 16.043L313.017 5.48003C312.514 4.71229 312.025 4.15635 311.548 3.81219C311.098 3.44156 310.396 3.19007 309.443 3.0577V2.42233H318.061V3.0577C316.525 3.16359 315.678 3.46804 315.519 3.97104C315.36 4.44756 315.572 5.14911 316.154 6.07568L321.674 14.4943L327.313 6.07568C327.948 5.12263 328.134 4.40785 327.869 3.93132C327.631 3.42833 326.837 3.13712 325.486 3.0577V2.42233H332.872V3.0577C332.237 3.13712 331.721 3.25625 331.324 3.41509C330.927 3.57393 330.556 3.82543 330.212 4.16959C329.894 4.48727 329.51 4.96379 329.06 5.59916L322.349 15.5267L330.013 27.1618C330.543 27.9296 331.033 28.4855 331.483 28.8297C331.933 29.1474 332.634 29.3989 333.587 29.5842V30.2195H324.97V29.5842Z" fill="#013D5B"/>
<path d="M301.617 8.57743C301.617 6.93607 301.127 5.67858 300.148 4.80495C299.168 3.90485 297.937 3.4548 296.455 3.4548C294.708 3.4548 293.278 4.01075 292.166 5.12263C291.081 6.20805 290.181 7.9553 289.466 10.3644L288.83 10.2453L289.664 4.16959C290.829 3.61364 292.034 3.19007 293.278 2.89886C294.522 2.58117 295.714 2.42233 296.852 2.42233C299.129 2.42233 300.916 2.97828 302.213 4.09016C303.51 5.20205 304.159 6.77723 304.159 8.81569C304.159 9.79521 303.867 10.8674 303.285 12.0322C302.703 13.1706 301.776 14.5207 300.505 16.0827C299.234 17.6181 297.567 19.5242 295.502 21.801L289.903 28.1149H300.743C301.749 28.1149 302.53 28.009 303.086 27.7972C303.669 27.5854 304.145 27.1618 304.516 26.5265C304.887 25.8911 305.27 24.9513 305.668 23.707L306.303 23.8262L305.35 30.2195H287.679L287.401 29.5842L294.549 20.8876C296.243 18.8492 297.606 17.1416 298.639 15.765C299.671 14.3619 300.426 13.1044 300.902 11.9925C301.379 10.8806 301.617 9.74226 301.617 8.57743Z" fill="#013D5B"/>
<path d="M254.761 20.6891C254.761 18.5712 255.159 16.7048 255.953 15.0899C256.747 13.475 257.846 12.2175 259.249 11.3174C260.678 10.3909 262.306 9.92757 264.133 9.92757C265.351 9.92757 266.529 10.1394 267.667 10.5629C268.806 10.9865 269.798 11.5689 270.646 12.3102V4.01074C270.646 3.08417 270.447 2.43556 270.05 2.06493C269.679 1.66783 268.951 1.41633 267.866 1.31044V0.714785L272.671 0L273.028 0.357393C272.922 1.17807 272.869 2.0517 272.869 2.97827V26.5662C272.869 27.5457 273.055 28.2473 273.425 28.6708C273.822 29.0944 274.564 29.4121 275.649 29.6239V30.2195L271.36 30.5769C270.937 29.8357 270.725 28.8826 270.725 27.7178V27.4398C269.004 29.7165 266.688 30.8549 263.776 30.8549C261.949 30.8549 260.361 30.4313 259.01 29.5842C257.66 28.7105 256.615 27.5192 255.873 26.0102C255.132 24.4748 254.761 22.701 254.761 20.6891ZM257.104 19.9346C257.104 21.8671 257.409 23.5614 258.018 25.0175C258.627 26.4735 259.474 27.6119 260.559 28.4326C261.645 29.2532 262.902 29.6636 264.332 29.6636C266.211 29.6636 267.733 28.9753 268.898 27.5986C270.063 26.222 270.646 24.4086 270.646 22.1583V17.5122C270.646 16.2945 270.341 15.209 269.732 14.256C269.15 13.2765 268.342 12.4955 267.31 11.9131C266.277 11.3307 265.126 11.0395 263.855 11.0395C261.79 11.0395 260.149 11.8337 258.931 13.4221C257.713 15.0105 257.104 17.1813 257.104 19.9346Z" fill="#013D5B"/>
<path d="M234.441 20.4111C234.441 18.3462 234.812 16.5327 235.553 14.9708C236.321 13.3824 237.38 12.1514 238.73 11.2777C240.08 10.3776 241.642 9.92758 243.415 9.92758C245.745 9.92758 247.638 10.7086 249.094 12.2705C250.577 13.806 251.424 15.9106 251.635 18.5844H236.665C236.638 18.9021 236.625 19.2198 236.625 19.5375C236.625 22.4231 237.327 24.713 238.73 26.4074C240.159 28.1017 242.092 28.9488 244.527 28.9488C247.254 28.9488 249.306 27.8766 250.682 25.7323L251.278 26.05C249.769 29.2533 247.241 30.8549 243.693 30.8549C241.84 30.8549 240.212 30.4181 238.809 29.5445C237.432 28.6708 236.36 27.4531 235.593 25.8911C234.825 24.3027 234.441 22.476 234.441 20.4111ZM238.809 12.7867C237.724 13.9516 237.035 15.5267 236.744 17.5122H249.054C248.79 15.4473 248.128 13.8589 247.069 12.747C246.036 11.6087 244.699 11.0395 243.058 11.0395C241.337 11.0395 239.921 11.6219 238.809 12.7867Z" fill="#013D5B"/>
<path d="M219.698 10.5629H222.478V6.43307L224.503 6.11539L224.861 6.47278C224.755 7.31993 224.702 8.19356 224.702 9.09366V10.5629H231.016V11.6351H224.702V25.7323C224.702 26.8706 224.953 27.7443 225.456 28.3531C225.986 28.962 226.714 29.2665 227.64 29.2665C228.885 29.2665 229.943 28.6311 230.817 27.3604L231.373 27.6781C230.341 29.796 228.818 30.8549 226.806 30.8549C225.43 30.8549 224.358 30.4181 223.59 29.5445C222.849 28.6444 222.478 27.3604 222.478 25.6926V11.6351H219.698V10.5629Z" fill="#013D5B"/>
<path d="M209.164 29.6239C210.276 29.4386 211.017 29.1474 211.388 28.7503C211.759 28.3532 211.944 27.6913 211.944 26.7647V14.3354C211.944 13.4089 211.745 12.7603 211.348 12.3896C210.978 11.9925 210.25 11.741 209.164 11.6351V11.0792L213.969 10.3247L214.326 10.6821C214.221 11.5292 214.168 12.4029 214.168 13.303V26.7647C214.168 27.6913 214.34 28.3532 214.684 28.7503C215.054 29.1474 215.809 29.4386 216.947 29.6239V30.2195H209.164V29.6239ZM210.951 3.65336C210.951 3.12389 211.123 2.68708 211.467 2.34292C211.838 1.99877 212.275 1.82669 212.778 1.82669C213.307 1.82669 213.731 1.99877 214.048 2.34292C214.393 2.68708 214.565 3.12389 214.565 3.65336C214.565 4.18283 214.393 4.61965 214.048 4.9638C213.731 5.28149 213.307 5.44033 212.778 5.44033C212.275 5.44033 211.838 5.28149 211.467 4.9638C211.123 4.61965 210.951 4.18283 210.951 3.65336Z" fill="#013D5B"/>
<path d="M170.927 29.6239C172.039 29.4386 172.781 29.1474 173.151 28.7503C173.522 28.3532 173.707 27.6913 173.707 26.7647V14.534C173.707 13.528 173.522 12.8397 173.151 12.469C172.807 12.0719 172.066 11.7807 170.927 11.5954V10.9998L175.216 10.3247C175.454 10.7747 175.613 11.2115 175.693 11.6351C175.799 12.0587 175.852 12.6146 175.852 13.303C177.493 11.0527 179.717 9.92758 182.523 9.92758C184.138 9.92758 185.488 10.2982 186.573 11.0395C187.685 11.7807 188.453 12.8264 188.877 14.1766C190.544 11.3439 192.953 9.92758 196.104 9.92758C198.328 9.92758 200.035 10.5894 201.226 11.9131C202.444 13.2103 203.053 15.0634 203.053 17.4725V26.7647C203.053 27.6913 203.238 28.3532 203.609 28.7503C203.98 29.1474 204.721 29.4386 205.833 29.6239V30.2195H198.05V29.6239C199.188 29.4386 199.929 29.1474 200.273 28.7503C200.644 28.3532 200.829 27.6913 200.829 26.7647V17.5917C200.829 15.4738 200.379 13.8721 199.479 12.7867C198.606 11.6748 197.308 11.1189 195.588 11.1189C193.681 11.1189 192.186 11.8072 191.1 13.1838C190.041 14.5604 189.512 16.3871 189.512 18.6638V26.725C189.512 27.6781 189.684 28.3532 190.028 28.7503C190.399 29.1474 191.153 29.4386 192.292 29.6239V30.2195H184.469V29.6239C185.607 29.4386 186.348 29.1474 186.692 28.7503C187.063 28.3532 187.248 27.6913 187.248 26.7647V17.5917C187.248 15.4738 186.798 13.8721 185.898 12.7867C185.025 11.6748 183.727 11.1189 182.007 11.1189C180.127 11.1189 178.644 11.8072 177.559 13.1838C176.474 14.5604 175.931 16.3871 175.931 18.6638V26.725C175.931 27.6781 176.103 28.3532 176.447 28.7503C176.818 29.1474 177.572 29.4386 178.711 29.6239V30.2195H170.927V29.6239Z" fill="#013D5B"/>
<path d="M159.798 29.6239C160.91 29.4386 161.651 29.1474 162.021 28.7503C162.392 28.3532 162.577 27.6913 162.577 26.7647V14.3354C162.577 13.4089 162.379 12.7603 161.982 12.3896C161.611 11.9925 160.883 11.741 159.798 11.6351V11.0792L164.603 10.3247L164.96 10.6821C164.854 11.5292 164.801 12.4029 164.801 13.303V26.7647C164.801 27.6913 164.973 28.3532 165.317 28.7503C165.688 29.1474 166.443 29.4386 167.581 29.6239V30.2195H159.798V29.6239ZM161.585 3.65336C161.585 3.12389 161.757 2.68708 162.101 2.34292C162.472 1.99877 162.908 1.82669 163.411 1.82669C163.941 1.82669 164.364 1.99877 164.682 2.34292C165.026 2.68708 165.198 3.12389 165.198 3.65336C165.198 4.18283 165.026 4.61965 164.682 4.9638C164.364 5.28149 163.941 5.44033 163.411 5.44033C162.908 5.44033 162.472 5.28149 162.101 4.9638C161.757 4.61965 161.585 4.18283 161.585 3.65336Z" fill="#013D5B"/>
<path d="M148.663 29.6239C149.802 29.4386 150.543 29.1474 150.887 28.7502C151.258 28.3531 151.443 27.6913 151.443 26.7647V4.05045C151.443 3.12388 151.244 2.47528 150.847 2.10465C150.477 1.70754 149.749 1.45604 148.663 1.35015V0.754495L153.468 0L153.826 0.357393C153.72 1.17807 153.667 2.0517 153.667 2.97827V26.7647C153.667 27.6913 153.839 28.3531 154.183 28.7502C154.554 29.1474 155.308 29.4386 156.447 29.6239V30.2195H148.663V29.6239Z" fill="#013D5B"/>
<path d="M123.616 29.6239C124.728 29.4386 125.47 29.1474 125.84 28.7503C126.211 28.3532 126.396 27.6913 126.396 26.7647V14.534C126.396 13.528 126.211 12.8397 125.84 12.469C125.496 12.0719 124.755 11.7807 123.616 11.5954V10.9998L127.905 10.3247C128.143 10.8012 128.302 11.2645 128.382 11.7145C128.487 12.1381 128.54 12.6941 128.54 13.3824C130.288 11.0792 132.631 9.92758 135.569 9.92758C137.846 9.92758 139.606 10.5894 140.851 11.9131C142.121 13.2103 142.757 15.0634 142.757 17.4725V26.7647C142.757 27.6913 142.929 28.3532 143.273 28.7503C143.644 29.1474 144.398 29.4386 145.536 29.6239V30.2195H137.714V29.6239C138.852 29.4386 139.606 29.1474 139.977 28.7503C140.348 28.3532 140.533 27.6913 140.533 26.7647V17.5917C140.533 15.4738 140.07 13.8721 139.143 12.7867C138.217 11.6748 136.866 11.1189 135.093 11.1189C133.081 11.1189 131.492 11.8072 130.327 13.1838C129.189 14.5604 128.62 16.3871 128.62 18.6638V26.7647C128.62 27.6913 128.792 28.3532 129.136 28.7503C129.507 29.1474 130.261 29.4386 131.4 29.6239V30.2195H123.616V29.6239Z" fill="#013D5B"/>
<path d="M101.371 23.31V14.3354C101.371 13.4618 101.199 12.8265 100.855 12.4294C100.511 12.0058 99.7695 11.741 98.6312 11.6351V11.0395L103.396 10.3247L103.794 10.7218C103.688 11.5425 103.635 12.4161 103.635 13.3427V23.1908C103.635 25.2822 104.071 26.8839 104.945 27.9958C105.845 29.1077 107.156 29.6636 108.876 29.6636C110.809 29.6636 112.358 29.0018 113.523 27.6781C114.687 26.328 115.27 24.5278 115.27 22.2775V13.7001C115.27 12.9853 115.111 12.4823 114.793 12.1911C114.502 11.8734 113.8 11.6749 112.689 11.5954V10.9998L117.335 10.3247L117.652 10.6821C117.546 11.5293 117.494 12.4294 117.494 13.3824V26.5662C117.494 27.5457 117.679 28.2473 118.049 28.6709C118.447 29.0944 119.188 29.4121 120.273 29.6239V30.2196L115.985 30.577C115.561 29.8357 115.349 28.8827 115.349 27.7178V27.281C113.628 29.6636 111.299 30.8549 108.36 30.8549C106.136 30.8549 104.416 30.2063 103.198 28.9091C101.98 27.5854 101.371 25.7191 101.371 23.31Z" fill="#013D5B"/>
<path d="M64.5551 29.6239C65.667 29.4386 66.4082 29.1474 66.7789 28.7503C67.1495 28.3532 67.3348 27.6913 67.3348 26.7647V14.534C67.3348 13.528 67.1495 12.8397 66.7789 12.469C66.4347 12.0719 65.6934 11.7807 64.5551 11.5954V10.9998L68.8438 10.3247C69.082 10.8012 69.2409 11.2645 69.3203 11.7145C69.4262 12.1381 69.4792 12.6941 69.4792 13.3824C71.2264 11.0792 73.5693 9.92758 76.5079 9.92758C78.7846 9.92758 80.5451 10.5894 81.7893 11.9131C83.0601 13.2103 83.6954 15.0634 83.6954 17.4725V26.7647C83.6954 27.6913 83.8675 28.3532 84.2117 28.7503C84.5823 29.1474 85.3368 29.4386 86.4752 29.6239V30.2195H78.6522V29.6239C79.7906 29.4386 80.5451 29.1474 80.9157 28.7503C81.2863 28.3532 81.4717 27.6913 81.4717 26.7647V17.5917C81.4717 15.4738 81.0084 13.8721 80.0818 12.7867C79.1552 11.6748 77.8051 11.1189 76.0314 11.1189C74.0194 11.1189 72.431 11.8072 71.2661 13.1838C70.1278 14.5604 69.5586 16.3871 69.5586 18.6638V26.7647C69.5586 27.6913 69.7307 28.3532 70.0748 28.7503C70.4454 29.1474 71.1999 29.4386 72.3383 29.6239V30.2195H64.5551V29.6239Z" fill="#013D5B"/>
<path d="M47.0267 29.6239C48.1386 29.465 48.8799 29.1871 49.2505 28.79C49.6211 28.3929 49.8064 27.7178 49.8064 26.7647V14.4943C49.8064 13.5147 49.6343 12.8397 49.2902 12.469C48.946 12.0719 48.1915 11.7807 47.0267 11.5954V10.9998L51.3154 10.3247C51.5537 10.8277 51.7125 11.291 51.7919 11.7145C51.8978 12.1116 51.9508 12.6279 51.9508 13.2632C52.5597 12.2043 53.3274 11.3836 54.254 10.8012C55.207 10.2188 56.2527 9.92758 57.3911 9.92758C58.8207 9.92758 60.1708 10.4041 61.4415 11.3572L61.8386 16.3209L61.243 16.4401C60.687 14.6399 60.0384 13.3294 59.2972 12.5088C58.5559 11.6616 57.6426 11.238 56.5572 11.238C55.1805 11.238 54.0819 11.8734 53.2612 13.1441C52.4405 14.3884 52.0302 16.0827 52.0302 18.227V26.7647C52.0302 27.7178 52.2685 28.3929 52.745 28.79C53.248 29.1871 54.201 29.465 55.6041 29.6239V30.2195H47.0267V29.6239Z" fill="#013D5B"/>
<path d="M25.7091 25.5734C25.7091 23.6673 26.5827 22.1451 28.33 21.0068C30.0772 19.8419 32.3937 19.2595 35.2793 19.2595C35.9146 19.2595 36.55 19.2992 37.1854 19.3786C37.8207 19.4316 38.4561 19.5242 39.0915 19.6566V17.4725C39.0915 15.3811 38.615 13.7795 37.6619 12.6676C36.7353 11.5557 35.3719 10.9998 33.5717 10.9998C30.7126 10.9998 28.6477 12.8132 27.3769 16.4401L26.7813 16.2812L27.5358 11.3572C29.7596 10.4041 31.8774 9.92758 33.8894 9.92758C36.272 9.92758 38.0987 10.5762 39.3694 11.8734C40.6666 13.1706 41.3152 15.037 41.3152 17.4725V27.281C41.3152 28.6311 41.8182 29.3062 42.8242 29.3062C43.2743 29.3062 43.6846 29.1209 44.0553 28.7503L44.5318 29.1077C43.9494 30.0872 43.0757 30.5769 41.9109 30.5769C41.1432 30.5769 40.521 30.3387 40.0445 29.8621C39.5945 29.3591 39.3165 28.6841 39.2106 27.8369C37.4898 29.8489 35.3322 30.8549 32.7378 30.8549C30.567 30.8549 28.8462 30.3784 27.5755 29.4253C26.3312 28.4723 25.7091 27.1883 25.7091 25.5734ZM28.0917 25.3352C28.0917 26.6853 28.555 27.7443 29.4816 28.512C30.4082 29.2797 31.6789 29.6636 33.2938 29.6636C35.0145 29.6636 36.4044 29.0944 37.4633 27.9561C38.5488 26.8177 39.0915 25.1896 39.0915 23.0717V20.6891C38.562 20.5832 38.0193 20.5038 37.4633 20.4508C36.9339 20.3979 36.3647 20.3714 35.7558 20.3714C33.3202 20.3714 31.4274 20.8082 30.0772 21.6818C28.7536 22.5555 28.0917 23.7732 28.0917 25.3352Z" fill="#013D5B"/>
<path d="M1 29.5445C2.19131 29.3592 2.97228 29.068 3.34291 28.6709C3.74001 28.2473 3.93856 27.5325 3.93856 26.5265V6.11541C3.93856 5.10941 3.74001 4.40786 3.34291 4.01076C2.97228 3.58718 2.19131 3.28274 1 3.09743V2.42235H14.4221C15.6928 2.42235 16.712 2.40911 17.4798 2.38264C18.2475 2.32969 18.9888 2.25027 19.7035 2.14438L20.736 8.93484L20.0212 9.09368C19.5447 7.53174 19.0682 6.36691 18.5917 5.59917C18.1151 4.80497 17.5195 4.2755 16.8047 4.01076C16.1164 3.71955 15.1633 3.57395 13.9456 3.57395H6.32118V15.2885H13.1513C14.2897 15.2885 15.0707 15.0767 15.4943 14.6531C15.9443 14.2295 16.3017 13.3427 16.5664 11.9925H17.1621V19.6566H16.5664C16.4076 18.7565 16.1958 18.0814 15.9311 17.6314C15.6928 17.1549 15.3619 16.8372 14.9383 16.6783C14.5147 16.493 13.9191 16.4004 13.1513 16.4004H6.32118V26.4471C6.32118 27.4001 6.50649 28.0752 6.87712 28.4723C7.24775 28.8694 7.89635 29.068 8.82293 29.068H13.8661C15.2163 29.068 16.2885 28.9091 17.0827 28.5914C17.8769 28.2737 18.5519 27.6516 19.1079 26.725C19.6638 25.7985 20.233 24.4086 20.8154 22.5555L21.4905 22.6746L20.3786 30.2196H1V29.5445Z" fill="#013D5B"/>
</svg>
