<svg width="567" height="20" viewBox="0 0 567 20" fill="none" xmlns="http://www.w3.org/2000/svg">
<path d="M564.801 16.3357C564.801 15.6696 564.552 15.1118 564.052 14.6622C563.552 14.1959 562.67 13.7214 561.404 13.2384C559.889 12.6556 558.815 12.0728 558.182 11.49C557.549 10.8905 557.233 10.1911 557.233 9.3918C557.233 8.44263 557.616 7.68496 558.382 7.11879C559.148 6.53596 560.164 6.24455 561.429 6.24455C562.029 6.24455 562.67 6.31949 563.353 6.46936C564.052 6.60257 564.701 6.79407 565.301 7.04385L565.776 10.1661L565.401 10.266C564.935 9.08374 564.377 8.23448 563.727 7.71826C563.095 7.1854 562.287 6.91896 561.305 6.91896C560.439 6.91896 559.764 7.10214 559.281 7.46848C558.798 7.81818 558.557 8.31774 558.557 8.96717C558.557 9.5833 558.815 10.1078 559.331 10.5408C559.847 10.9571 560.763 11.4234 562.079 11.9396C563.111 12.3392 563.919 12.7222 564.502 13.0886C565.085 13.4549 565.501 13.8462 565.751 14.2625C566 14.6788 566.125 15.1618 566.125 15.7113C566.125 16.8103 565.717 17.7012 564.901 18.3839C564.102 19.0667 563.045 19.408 561.729 19.408C561.063 19.408 560.347 19.3081 559.581 19.1083C558.832 18.9251 558.132 18.667 557.483 18.334L557.008 15.1618L557.383 15.0618C558.299 17.5097 559.797 18.7336 561.879 18.7336C562.795 18.7336 563.511 18.5255 564.027 18.1092C564.543 17.6762 564.801 17.0851 564.801 16.3357Z" fill="#013D5B"/>
<path d="M553.044 16.3357C553.044 15.6696 552.794 15.1118 552.295 14.6622C551.795 14.1959 550.913 13.7214 549.647 13.2384C548.132 12.6556 547.058 12.0728 546.425 11.49C545.792 10.8905 545.476 10.1911 545.476 9.3918C545.476 8.44263 545.859 7.68496 546.625 7.11879C547.391 6.53596 548.406 6.24455 549.672 6.24455C550.272 6.24455 550.913 6.31949 551.595 6.46936C552.295 6.60257 552.944 6.79407 553.544 7.04385L554.018 10.1661L553.644 10.266C553.177 9.08374 552.619 8.23448 551.97 7.71826C551.337 7.1854 550.53 6.91896 549.547 6.91896C548.681 6.91896 548.007 7.10214 547.524 7.46848C547.041 7.81818 546.8 8.31774 546.8 8.96717C546.8 9.5833 547.058 10.1078 547.574 10.5408C548.09 10.9571 549.006 11.4234 550.321 11.9396C551.354 12.3392 552.162 12.7222 552.744 13.0886C553.327 13.4549 553.744 13.8462 553.993 14.2625C554.243 14.6788 554.368 15.1618 554.368 15.7113C554.368 16.8103 553.96 17.7012 553.144 18.3839C552.345 19.0667 551.287 19.408 549.972 19.408C549.306 19.408 548.59 19.3081 547.824 19.1083C547.074 18.9251 546.375 18.667 545.725 18.334L545.251 15.1618L545.626 15.0618C546.541 17.5097 548.04 18.7336 550.122 18.7336C551.038 18.7336 551.754 18.5255 552.27 18.1092C552.786 17.6762 553.044 17.0851 553.044 16.3357Z" fill="#013D5B"/>
<path d="M532.144 12.8388C532.144 11.5399 532.377 10.3993 532.844 9.41678C533.327 8.41765 533.993 7.64333 534.842 7.09381C535.691 6.52764 536.674 6.24455 537.789 6.24455C539.255 6.24455 540.445 6.73579 541.361 7.71826C542.294 8.68409 542.827 10.0079 542.96 11.6898H533.543C533.526 11.8896 533.518 12.0894 533.518 12.2893C533.518 14.1043 533.959 15.5448 534.842 16.6105C535.741 17.6762 536.957 18.2091 538.489 18.2091C540.204 18.2091 541.495 17.5347 542.36 16.1859L542.735 16.3857C541.786 18.4006 540.196 19.408 537.964 19.408C536.799 19.408 535.775 19.1333 534.892 18.5838C534.026 18.0342 533.352 17.2683 532.869 16.2858C532.386 15.2866 532.144 14.1377 532.144 12.8388ZM534.892 8.04298C534.209 8.77567 533.776 9.76647 533.593 11.0154H541.336C541.17 9.71652 540.754 8.71739 540.087 8.018C539.438 7.30196 538.597 6.94394 537.565 6.94394C536.482 6.94394 535.591 7.31029 534.892 8.04298Z" fill="#013D5B"/>
<path d="M516.465 18.6337C517.164 18.5172 517.63 18.334 517.863 18.0842C518.096 17.8344 518.213 17.4181 518.213 16.8353V9.14202C518.213 8.50924 518.096 8.07628 517.863 7.84316C517.647 7.59337 517.181 7.4102 516.465 7.29364V6.91896L519.162 6.49433C519.312 6.79407 519.412 7.08548 519.462 7.36857C519.529 7.635 519.562 7.9847 519.562 8.41765C520.661 6.96892 522.135 6.24455 523.983 6.24455C525.415 6.24455 526.522 6.66086 527.305 7.49346C528.104 8.30941 528.504 9.47506 528.504 10.9904V16.8353C528.504 17.4181 528.612 17.8344 528.829 18.0842C529.062 18.334 529.536 18.5172 530.253 18.6337V19.0084H525.332V18.6337C526.048 18.5172 526.522 18.334 526.756 18.0842C526.989 17.8344 527.105 17.4181 527.105 16.8353V11.0653C527.105 9.73317 526.814 8.72572 526.231 8.04298C525.648 7.34359 524.799 6.9939 523.683 6.9939C522.418 6.9939 521.419 7.42685 520.686 8.29276C519.97 9.15867 519.612 10.3077 519.612 11.7398V16.8353C519.612 17.4181 519.72 17.8344 519.937 18.0842C520.17 18.334 520.644 18.5172 521.36 18.6337V19.0084H516.465V18.6337Z" fill="#013D5B"/>
<path d="M509.464 18.6337C510.163 18.5172 510.63 18.334 510.863 18.0842C511.096 17.8344 511.212 17.4181 511.212 16.8353V9.01713C511.212 8.4343 511.087 8.02632 510.838 7.79319C510.605 7.54341 510.147 7.38522 509.464 7.31861V6.96891L512.486 6.49433L512.711 6.71913C512.644 7.252 512.611 7.80152 512.611 8.36769V16.8353C512.611 17.4181 512.719 17.8344 512.936 18.0842C513.169 18.334 513.644 18.5172 514.36 18.6337V19.0084H509.464V18.6337ZM510.588 2.298C510.588 1.96496 510.696 1.6902 510.913 1.47372C511.146 1.25724 511.421 1.149 511.737 1.149C512.07 1.149 512.336 1.25724 512.536 1.47372C512.753 1.6902 512.861 1.96496 512.861 2.298C512.861 2.63104 512.753 2.9058 512.536 3.12228C512.336 3.3221 512.07 3.42202 511.737 3.42202C511.421 3.42202 511.146 3.3221 510.913 3.12228C510.696 2.9058 510.588 2.63104 510.588 2.298Z" fill="#013D5B"/>
<path d="M505.625 16.3357C505.625 15.6696 505.375 15.1118 504.875 14.6622C504.376 14.1959 503.493 13.7214 502.228 13.2384C500.712 12.6556 499.638 12.0728 499.005 11.49C498.373 10.8905 498.056 10.1911 498.056 9.3918C498.056 8.44263 498.439 7.68496 499.205 7.11879C499.971 6.53596 500.987 6.24455 502.253 6.24455C502.852 6.24455 503.493 6.31949 504.176 6.46936C504.875 6.60257 505.525 6.79407 506.124 7.04385L506.599 10.1661L506.224 10.266C505.758 9.08374 505.2 8.23448 504.551 7.71826C503.918 7.1854 503.11 6.91896 502.128 6.91896C501.262 6.91896 500.587 7.10214 500.104 7.46848C499.622 7.81818 499.38 8.31774 499.38 8.96717C499.38 9.5833 499.638 10.1078 500.154 10.5408C500.671 10.9571 501.586 11.4234 502.902 11.9396C503.934 12.3392 504.742 12.7222 505.325 13.0886C505.908 13.4549 506.324 13.8462 506.574 14.2625C506.824 14.6788 506.948 15.1618 506.948 15.7113C506.948 16.8103 506.54 17.7012 505.725 18.3839C504.925 19.0667 503.868 19.408 502.552 19.408C501.886 19.408 501.17 19.3081 500.404 19.1083C499.655 18.9251 498.955 18.667 498.306 18.334L497.831 15.1618L498.206 15.0618C499.122 17.5097 500.621 18.7336 502.702 18.7336C503.618 18.7336 504.334 18.5255 504.85 18.1092C505.366 17.6762 505.625 17.0851 505.625 16.3357Z" fill="#013D5B"/>
<path d="M483.714 14.6622V9.01712C483.714 8.4676 483.606 8.06795 483.389 7.81817C483.173 7.55173 482.707 7.38521 481.991 7.3186V6.94393L484.988 6.49432L485.238 6.74411C485.171 7.26032 485.138 7.80984 485.138 8.39266V14.5872C485.138 15.9028 485.413 16.9102 485.962 17.6096C486.528 18.309 487.353 18.6587 488.435 18.6587C489.651 18.6587 490.625 18.2424 491.357 17.4098C492.09 16.5605 492.456 15.4282 492.456 14.0128V8.61747C492.456 8.16786 492.357 7.85147 492.157 7.6683C491.974 7.46847 491.532 7.34358 490.833 7.29363V6.91895L493.755 6.49432L493.955 6.71913C493.889 7.252 493.855 7.81817 493.855 8.41764V16.7104C493.855 17.3265 493.972 17.7678 494.205 18.0342C494.455 18.3007 494.921 18.5005 495.604 18.6337V19.0084L492.906 19.2332C492.64 18.7669 492.506 18.1675 492.506 17.4348V17.16C491.424 18.6587 489.959 19.408 488.11 19.408C486.711 19.408 485.629 19.0001 484.863 18.1841C484.097 17.3515 483.714 16.1775 483.714 14.6622Z" fill="#013D5B"/>
<path d="M467.17 18.5838C467.919 18.4672 468.41 18.284 468.643 18.0343C468.893 17.7678 469.018 17.3182 469.018 16.6854V3.84665C469.018 3.21387 468.893 2.77259 468.643 2.52281C468.41 2.25637 467.919 2.06488 467.17 1.94831V1.52368H472.665C474.863 1.52368 476.553 1.89003 477.736 2.62272C478.935 3.33876 479.534 4.37952 479.534 5.74499C479.534 7.7599 478.252 9.09207 475.687 9.7415C477.253 9.97463 478.452 10.4742 479.284 11.2402C480.133 12.0062 480.558 13.0053 480.558 14.2376C480.558 15.7696 479.892 16.9519 478.56 17.7845C477.244 18.6004 475.363 19.0084 472.915 19.0084H467.17V18.5838ZM470.517 16.6355C470.517 17.2349 470.625 17.6596 470.842 17.9094C471.075 18.1591 471.499 18.284 472.115 18.284H472.915C476.945 18.284 478.959 17.0018 478.959 14.4374C478.959 13.1385 478.46 12.1228 477.461 11.3901C476.478 10.6574 475.096 10.291 473.314 10.291H470.517V16.6355ZM477.985 6.01975C477.985 4.87076 477.502 3.95489 476.537 3.27215C475.571 2.58942 474.222 2.24805 472.49 2.24805H470.517V9.56665H471.916C473.947 9.56665 475.463 9.25859 476.462 8.64246C477.477 8.02633 477.985 7.1521 477.985 6.01975Z" fill="#013D5B"/>
<path d="M453.977 18.6087C454.876 18.5255 455.384 18.334 455.5 18.0343C455.634 17.7179 455.517 17.2766 455.151 16.7104L451.229 10.7406L447.208 16.7104C446.841 17.2766 446.733 17.7179 446.883 18.0343C447.033 18.334 447.491 18.5255 448.257 18.6087V19.0084H443.736V18.6087C444.319 18.5255 444.768 18.3673 445.085 18.1342C445.418 17.8844 445.759 17.5097 446.109 17.0101L450.805 10.0912L446.458 3.447C446.142 2.96409 445.834 2.6144 445.534 2.39792C445.251 2.16479 444.81 2.00659 444.21 1.92333V1.52368H449.631V1.92333C448.665 1.98994 448.132 2.18144 448.032 2.49783C447.932 2.79757 448.065 3.23885 448.432 3.82167L451.904 9.11704L455.451 3.82167C455.85 3.2222 455.967 2.77259 455.8 2.47285C455.65 2.15646 455.151 1.97329 454.302 1.92333V1.52368H458.947V1.92333C458.548 1.97329 458.223 2.04822 457.973 2.14814C457.724 2.24805 457.49 2.40624 457.274 2.62272C457.074 2.82255 456.833 3.12228 456.55 3.52194L452.328 9.76648L457.149 17.0851C457.482 17.568 457.79 17.9177 458.073 18.1342C458.356 18.334 458.798 18.4922 459.397 18.6087V19.0084H453.977V18.6087Z" fill="#013D5B"/>
<path d="M425.499 12.8388C425.499 11.5399 425.732 10.3993 426.199 9.41678C426.682 8.41765 427.348 7.64333 428.197 7.09381C429.046 6.52764 430.029 6.24455 431.144 6.24455C432.61 6.24455 433.8 6.73579 434.716 7.71826C435.649 8.68409 436.182 10.0079 436.315 11.6898H426.898C426.881 11.8896 426.873 12.0894 426.873 12.2893C426.873 14.1043 427.314 15.5448 428.197 16.6105C429.096 17.6762 430.312 18.2091 431.844 18.2091C433.559 18.2091 434.85 17.5347 435.715 16.1859L436.09 16.3857C435.141 18.4006 433.551 19.408 431.319 19.408C430.154 19.408 429.13 19.1333 428.247 18.5838C427.381 18.0342 426.707 17.2683 426.224 16.2858C425.741 15.2866 425.499 14.1377 425.499 12.8388ZM428.247 8.04298C427.564 8.77567 427.131 9.76647 426.948 11.0154H434.691C434.525 9.71652 434.108 8.71739 433.442 8.018C432.793 7.30196 431.952 6.94394 430.92 6.94394C429.837 6.94394 428.946 7.31029 428.247 8.04298Z" fill="#013D5B"/>
<path d="M414.674 18.6337C415.373 18.5338 415.839 18.359 416.072 18.1092C416.306 17.8594 416.422 17.4348 416.422 16.8353V9.11704C416.422 8.50091 416.314 8.07628 416.097 7.84316C415.881 7.59337 415.406 7.4102 414.674 7.29364V6.91896L417.371 6.49433C417.521 6.81072 417.621 7.10214 417.671 7.36857C417.738 7.61835 417.771 7.94307 417.771 8.34272C418.154 7.67663 418.637 7.16042 419.22 6.79407C419.819 6.42773 420.477 6.24455 421.193 6.24455C422.092 6.24455 422.941 6.54429 423.741 7.14377L423.991 10.266L423.616 10.341C423.266 9.20863 422.858 8.38435 422.392 7.86813C421.926 7.33527 421.351 7.06883 420.668 7.06883C419.803 7.06883 419.111 7.46848 418.595 8.26778C418.079 9.05043 417.821 10.1162 417.821 11.465V16.8353C417.821 17.4348 417.971 17.8594 418.271 18.1092C418.587 18.359 419.186 18.5338 420.069 18.6337V19.0084H414.674V18.6337Z" fill="#013D5B"/>
<path d="M400.681 14.6622V9.01712C400.681 8.4676 400.573 8.06795 400.357 7.81817C400.14 7.55173 399.674 7.38521 398.958 7.3186V6.94393L401.955 6.49432L402.205 6.74411C402.138 7.26032 402.105 7.80984 402.105 8.39266V14.5872C402.105 15.9028 402.38 16.9102 402.929 17.6096C403.495 18.309 404.32 18.6587 405.402 18.6587C406.618 18.6587 407.592 18.2424 408.325 17.4098C409.057 16.5605 409.424 15.4282 409.424 14.0128V8.61747C409.424 8.16786 409.324 7.85147 409.124 7.6683C408.941 7.46847 408.499 7.34358 407.8 7.29363V6.91895L410.722 6.49432L410.922 6.71913C410.856 7.252 410.822 7.81817 410.822 8.41764V16.7104C410.822 17.3265 410.939 17.7678 411.172 18.0342C411.422 18.3007 411.888 18.5005 412.571 18.6337V19.0084L409.873 19.2332C409.607 18.7669 409.474 18.1675 409.474 17.4348V17.16C408.391 18.6587 406.926 19.408 405.077 19.408C403.679 19.408 402.596 19.0001 401.83 18.1841C401.064 17.3515 400.681 16.1775 400.681 14.6622Z" fill="#013D5B"/>
<path d="M389.54 6.6442H391.289V4.04647L392.563 3.84665L392.788 4.07145C392.721 4.60432 392.688 5.15384 392.688 5.72001V6.6442H396.659V7.31861H392.688V16.1859C392.688 16.9019 392.846 17.4514 393.162 17.8344C393.495 18.2174 393.953 18.4089 394.536 18.4089C395.319 18.4089 395.985 18.0093 396.534 17.21L396.884 17.4098C396.234 18.742 395.277 19.408 394.011 19.408C393.146 19.408 392.471 19.1333 391.988 18.5838C391.522 18.0176 391.289 17.21 391.289 16.1609V7.31861H389.54V6.6442Z" fill="#013D5B"/>
<path d="M374.035 18.6337C374.735 18.5172 375.201 18.334 375.434 18.0842C375.667 17.8344 375.784 17.4181 375.784 16.8353V9.14202C375.784 8.50924 375.667 8.07628 375.434 7.84316C375.218 7.59337 374.751 7.4102 374.035 7.29364V6.91896L376.733 6.49433C376.883 6.79407 376.983 7.08548 377.033 7.36857C377.099 7.635 377.133 7.9847 377.133 8.41765C378.232 6.96892 379.705 6.24455 381.554 6.24455C382.986 6.24455 384.093 6.66086 384.876 7.49346C385.675 8.30941 386.075 9.47506 386.075 10.9904V16.8353C386.075 17.4181 386.183 17.8344 386.4 18.0842C386.633 18.334 387.107 18.5172 387.823 18.6337V19.0084H382.903V18.6337C383.619 18.5172 384.093 18.334 384.326 18.0842C384.559 17.8344 384.676 17.4181 384.676 16.8353V11.0653C384.676 9.73317 384.385 8.72572 383.802 8.04298C383.219 7.34359 382.37 6.9939 381.254 6.9939C379.988 6.9939 378.989 7.42685 378.257 8.29276C377.541 9.15867 377.183 10.3077 377.183 11.7398V16.8353C377.183 17.4181 377.291 17.8344 377.507 18.0842C377.74 18.334 378.215 18.5172 378.931 18.6337V19.0084H374.035V18.6337Z" fill="#013D5B"/>
<path d="M361.054 12.8388C361.054 11.5399 361.287 10.3993 361.753 9.41678C362.236 8.41765 362.902 7.64333 363.751 7.09381C364.601 6.52764 365.583 6.24455 366.699 6.24455C368.164 6.24455 369.355 6.73579 370.271 7.71826C371.203 8.68409 371.736 10.0079 371.869 11.6898H362.453C362.436 11.8896 362.428 12.0894 362.428 12.2893C362.428 14.1043 362.869 15.5448 363.751 16.6105C364.651 17.6762 365.866 18.2091 367.398 18.2091C369.113 18.2091 370.404 17.5347 371.27 16.1859L371.644 16.3857C370.695 18.4006 369.105 19.408 366.874 19.408C365.708 19.408 364.684 19.1333 363.801 18.5838C362.935 18.0342 362.261 17.2683 361.778 16.2858C361.295 15.2866 361.054 14.1377 361.054 12.8388ZM363.801 8.04298C363.119 8.77567 362.686 9.76647 362.502 11.0154H370.246C370.079 9.71652 369.663 8.71739 368.997 8.018C368.347 7.30196 367.506 6.94394 366.474 6.94394C365.392 6.94394 364.501 7.31029 363.801 8.04298Z" fill="#013D5B"/>
<path d="M344.482 1.52368H349.877V1.92333C349.011 1.98994 348.462 2.17311 348.228 2.47285C347.995 2.77259 347.987 3.18889 348.203 3.72176L353.424 16.9352L358.619 3.82167C358.852 3.23885 358.836 2.78924 358.569 2.47285C358.32 2.15646 357.77 1.97329 356.921 1.92333V1.52368H361.542V1.92333C360.959 1.98994 360.534 2.15646 360.268 2.4229C360.001 2.67268 359.743 3.11396 359.494 3.74674L353.224 19.2582H352.774L346.53 3.74674C346.263 3.11396 346.005 2.67268 345.756 2.4229C345.506 2.17311 345.081 2.00659 344.482 1.92333V1.52368Z" fill="#013D5B"/>
<path d="M323.344 18.6337C324.044 18.5171 324.51 18.334 324.743 18.0842C324.976 17.8344 325.093 17.4098 325.093 16.8103V2.54777C325.093 1.96495 324.968 1.55697 324.718 1.32384C324.485 1.07406 324.027 0.915866 323.344 0.849257V0.474585L326.367 0L326.591 0.224804C326.525 0.757671 326.492 1.31552 326.492 1.89834V8.34271C327.574 6.94393 329.031 6.24454 330.863 6.24454C332.295 6.24454 333.402 6.66084 334.185 7.49345C334.984 8.3094 335.384 9.47505 335.384 10.9904V16.8353C335.384 17.4181 335.492 17.8344 335.708 18.0842C335.942 18.334 336.416 18.5171 337.132 18.6337V19.0084H332.212V18.6337C332.928 18.5171 333.402 18.334 333.635 18.0842C333.868 17.8344 333.985 17.4181 333.985 16.8353V11.0653C333.985 9.73316 333.694 8.72571 333.111 8.04297C332.528 7.34358 331.679 6.99389 330.563 6.99389C329.297 6.99389 328.298 7.42684 327.566 8.29275C326.85 9.15866 326.492 10.3077 326.492 11.7397V16.8852C326.492 17.4681 326.6 17.8844 326.816 18.1342C327.049 18.3673 327.524 18.5338 328.24 18.6337V19.0084H323.344V18.6337Z" fill="#013D5B"/>
<path d="M313.752 6.6442H315.501V4.04647L316.774 3.84665L316.999 4.07145C316.933 4.60432 316.899 5.15384 316.899 5.72001V6.6442H320.871V7.31861H316.899V16.1859C316.899 16.9019 317.058 17.4514 317.374 17.8344C317.707 18.2174 318.165 18.4089 318.748 18.4089C319.53 18.4089 320.196 18.0093 320.746 17.21L321.096 17.4098C320.446 18.742 319.489 19.408 318.223 19.408C317.357 19.408 316.683 19.1333 316.2 18.5838C315.734 18.0176 315.501 17.21 315.501 16.1609V7.31861H313.752V6.6442Z" fill="#013D5B"/>
<path d="M307.126 18.6337C307.825 18.5172 308.292 18.334 308.525 18.0842C308.758 17.8344 308.875 17.4181 308.875 16.8353V9.01713C308.875 8.4343 308.75 8.02632 308.5 7.79319C308.267 7.54341 307.809 7.38522 307.126 7.31861V6.96891L310.148 6.49433L310.373 6.71913C310.307 7.252 310.273 7.80152 310.273 8.36769V16.8353C310.273 17.4181 310.382 17.8344 310.598 18.0842C310.831 18.334 311.306 18.5172 312.022 18.6337V19.0084H307.126V18.6337ZM308.25 2.298C308.25 1.96496 308.358 1.6902 308.575 1.47372C308.808 1.25724 309.083 1.149 309.399 1.149C309.732 1.149 309.999 1.25724 310.198 1.47372C310.415 1.6902 310.523 1.96496 310.523 2.298C310.523 2.63104 310.415 2.9058 310.198 3.12228C309.999 3.3221 309.732 3.42202 309.399 3.42202C309.083 3.42202 308.808 3.3221 308.575 3.12228C308.358 2.9058 308.25 2.63104 308.25 2.298Z" fill="#013D5B"/>
<path d="M284.398 6.6442H289.394V7.01887C288.595 7.08548 288.103 7.24367 287.92 7.49345C287.754 7.72658 287.779 8.13456 287.995 8.71738L291.242 17.0851L294.564 8.61747L294.415 8.21782C294.248 7.81817 294.04 7.53508 293.79 7.36856C293.54 7.20204 293.141 7.08548 292.591 7.01887V6.6442H297.587V7.01887C296.787 7.08548 296.296 7.24367 296.113 7.49345C295.947 7.72658 295.971 8.13456 296.188 8.71738L299.46 17.11L302.732 8.71738C302.965 8.13456 302.99 7.72658 302.807 7.49345C302.624 7.24367 302.133 7.08548 301.333 7.01887V6.6442H305.505V7.01887C304.972 7.08548 304.581 7.20204 304.331 7.36856C304.081 7.53508 303.873 7.81817 303.706 8.21782L299.26 19.2582H298.836L294.964 9.56664L291.067 19.2582H290.643L286.197 8.21782C286.047 7.81817 285.847 7.53508 285.597 7.36856C285.347 7.20204 284.948 7.08548 284.398 7.01887V6.6442Z" fill="#013D5B"/>
<path d="M275.479 16.3357C275.479 15.6696 275.229 15.1118 274.73 14.6622C274.23 14.1959 273.348 13.7214 272.082 13.2384C270.567 12.6556 269.493 12.0728 268.86 11.49C268.227 10.8905 267.911 10.1911 267.911 9.3918C267.911 8.44263 268.294 7.68496 269.06 7.11879C269.826 6.53596 270.841 6.24455 272.107 6.24455C272.707 6.24455 273.348 6.31949 274.03 6.46936C274.73 6.60257 275.379 6.79407 275.979 7.04385L276.453 10.1661L276.079 10.266C275.612 9.08374 275.054 8.23448 274.405 7.71826C273.772 7.1854 272.965 6.91896 271.982 6.91896C271.116 6.91896 270.442 7.10214 269.959 7.46848C269.476 7.81818 269.235 8.31774 269.235 8.96717C269.235 9.5833 269.493 10.1078 270.009 10.5408C270.525 10.9571 271.441 11.4234 272.756 11.9396C273.789 12.3392 274.597 12.7222 275.179 13.0886C275.762 13.4549 276.178 13.8462 276.428 14.2625C276.678 14.6788 276.803 15.1618 276.803 15.7113C276.803 16.8103 276.395 17.7012 275.579 18.3839C274.78 19.0667 273.722 19.408 272.407 19.408C271.741 19.408 271.025 19.3081 270.259 19.1083C269.509 18.9251 268.81 18.667 268.16 18.334L267.686 15.1618L268.061 15.0618C268.976 17.5097 270.475 18.7336 272.557 18.7336C273.473 18.7336 274.189 18.5255 274.705 18.1092C275.221 17.6762 275.479 17.0851 275.479 16.3357Z" fill="#013D5B"/>
<path d="M254.579 12.8388C254.579 11.5399 254.813 10.3993 255.279 9.41678C255.762 8.41765 256.428 7.64333 257.277 7.09381C258.126 6.52764 259.109 6.24455 260.224 6.24455C261.69 6.24455 262.88 6.73579 263.796 7.71826C264.729 8.68409 265.262 10.0079 265.395 11.6898H255.978C255.962 11.8896 255.953 12.0894 255.953 12.2893C255.953 14.1043 256.394 15.5448 257.277 16.6105C258.176 17.6762 259.392 18.2091 260.924 18.2091C262.639 18.2091 263.93 17.5347 264.795 16.1859L265.17 16.3857C264.221 18.4006 262.631 19.408 260.399 19.408C259.234 19.408 258.21 19.1333 257.327 18.5838C256.461 18.0342 255.787 17.2683 255.304 16.2858C254.821 15.2866 254.579 14.1377 254.579 12.8388ZM257.327 8.04298C256.644 8.77567 256.211 9.76647 256.028 11.0154H263.771C263.605 9.71652 263.189 8.71739 262.522 8.018C261.873 7.30196 261.032 6.94394 260 6.94394C258.917 6.94394 258.026 7.31029 257.327 8.04298Z" fill="#013D5B"/>
<path d="M247.776 18.6337C248.492 18.5171 248.958 18.334 249.174 18.0842C249.408 17.8344 249.524 17.4181 249.524 16.8353V2.54777C249.524 1.96495 249.399 1.55697 249.149 1.32384C248.916 1.07406 248.458 0.915866 247.776 0.849257V0.474585L250.798 0L251.023 0.224804C250.956 0.741019 250.923 1.29054 250.923 1.87336V16.8353C250.923 17.4181 251.031 17.8344 251.248 18.0842C251.481 18.334 251.955 18.5171 252.671 18.6337V19.0084H247.776V18.6337Z" fill="#013D5B"/>
<path d="M240.9 18.6337C241.599 18.5172 242.065 18.334 242.299 18.0842C242.532 17.8344 242.648 17.4181 242.648 16.8353V9.01713C242.648 8.4343 242.523 8.02632 242.274 7.79319C242.04 7.54341 241.583 7.38522 240.9 7.31861V6.96891L243.922 6.49433L244.147 6.71913C244.08 7.252 244.047 7.80152 244.047 8.36769V16.8353C244.047 17.4181 244.155 17.8344 244.372 18.0842C244.605 18.334 245.079 18.5172 245.795 18.6337V19.0084H240.9V18.6337ZM242.024 2.298C242.024 1.96496 242.132 1.6902 242.349 1.47372C242.582 1.25724 242.856 1.149 243.173 1.149C243.506 1.149 243.772 1.25724 243.972 1.47372C244.189 1.6902 244.297 1.96496 244.297 2.298C244.297 2.63104 244.189 2.9058 243.972 3.12228C243.772 3.3221 243.506 3.42202 243.173 3.42202C242.856 3.42202 242.582 3.3221 242.349 3.12228C242.132 2.9058 242.024 2.63104 242.024 2.298Z" fill="#013D5B"/>
<path d="M216.849 18.6337C217.548 18.5172 218.014 18.334 218.247 18.0842C218.48 17.8344 218.597 17.4181 218.597 16.8353V9.14202C218.597 8.50924 218.48 8.07628 218.247 7.84316C218.031 7.59337 217.565 7.4102 216.849 7.29364V6.91896L219.546 6.49433C219.696 6.77742 219.796 7.05218 219.846 7.31861C219.912 7.58505 219.946 7.93474 219.946 8.3677C220.978 6.95227 222.377 6.24455 224.142 6.24455C225.158 6.24455 226.007 6.47768 226.69 6.94394C227.389 7.4102 227.872 8.06796 228.139 8.91722C229.188 7.13544 230.703 6.24455 232.685 6.24455C234.083 6.24455 235.157 6.66086 235.907 7.49346C236.673 8.30941 237.056 9.47506 237.056 10.9904V16.8353C237.056 17.4181 237.172 17.8344 237.406 18.0842C237.639 18.334 238.105 18.5172 238.804 18.6337V19.0084H233.909V18.6337C234.625 18.5172 235.091 18.334 235.307 18.0842C235.541 17.8344 235.657 17.4181 235.657 16.8353V11.0653C235.657 9.73317 235.374 8.72572 234.808 8.04298C234.258 7.34359 233.442 6.9939 232.36 6.9939C231.161 6.9939 230.22 7.42685 229.537 8.29276C228.871 9.15867 228.538 10.3077 228.538 11.7398V16.8103C228.538 17.4098 228.647 17.8344 228.863 18.0842C229.096 18.334 229.571 18.5172 230.287 18.6337V19.0084H225.366V18.6337C226.082 18.5172 226.548 18.334 226.765 18.0842C226.998 17.8344 227.115 17.4181 227.115 16.8353V11.0653C227.115 9.73317 226.831 8.72572 226.265 8.04298C225.716 7.34359 224.9 6.9939 223.817 6.9939C222.635 6.9939 221.703 7.42685 221.02 8.29276C220.337 9.15867 219.996 10.3077 219.996 11.7398V16.8103C219.996 17.4098 220.104 17.8344 220.32 18.0842C220.554 18.334 221.028 18.5172 221.744 18.6337V19.0084H216.849V18.6337Z" fill="#013D5B"/>
<path d="M203.78 18.6087C204.68 18.5255 205.188 18.334 205.304 18.0343C205.437 17.7179 205.321 17.2766 204.954 16.7104L201.033 10.7406L197.011 16.7104C196.645 17.2766 196.537 17.7179 196.687 18.0343C196.837 18.334 197.294 18.5255 198.06 18.6087V19.0084H193.539V18.6087C194.122 18.5255 194.572 18.3673 194.888 18.1342C195.221 17.8844 195.563 17.5097 195.912 17.0101L200.608 10.0912L196.262 3.447C195.946 2.96409 195.638 2.6144 195.338 2.39792C195.055 2.16479 194.613 2.00659 194.014 1.92333V1.52368H199.434V1.92333C198.468 1.98994 197.936 2.18144 197.836 2.49783C197.736 2.79757 197.869 3.23885 198.235 3.82167L201.707 9.11704L205.254 3.82167C205.654 3.2222 205.77 2.77259 205.604 2.47285C205.454 2.15646 204.954 1.97329 204.105 1.92333V1.52368H208.751V1.92333C208.351 1.97329 208.027 2.04822 207.777 2.14814C207.527 2.24805 207.294 2.40624 207.078 2.62272C206.878 2.82255 206.636 3.12228 206.353 3.52194L202.132 9.76648L206.953 17.0851C207.286 17.568 207.594 17.9177 207.877 18.1342C208.16 18.334 208.601 18.4922 209.201 18.6087V19.0084H203.78V18.6087Z" fill="#013D5B"/>
<path d="M189.091 5.3953C189.091 4.36287 188.783 3.57189 188.167 3.02237C187.551 2.4562 186.776 2.17311 185.844 2.17311C184.745 2.17311 183.846 2.52281 183.146 3.2222C182.464 3.90493 181.897 5.00397 181.448 6.51932L181.048 6.44438L181.573 2.62272C182.305 2.27303 183.063 2.00659 183.846 1.82342C184.628 1.62359 185.378 1.52368 186.094 1.52368C187.526 1.52368 188.65 1.87338 189.466 2.57276C190.282 3.27215 190.69 4.26295 190.69 5.54517C190.69 6.16129 190.507 6.83571 190.14 7.5684C189.774 8.28444 189.191 9.1337 188.392 10.1162C187.592 11.082 186.543 12.2809 185.244 13.713L181.723 17.6846H188.542C189.174 17.6846 189.666 17.6179 190.015 17.4847C190.382 17.3515 190.681 17.0851 190.915 16.6854C191.148 16.2858 191.389 15.6946 191.639 14.912L192.039 14.9869L191.439 19.0084H180.324L180.149 18.6087L184.645 13.1385C185.711 11.8563 186.568 10.7823 187.218 9.91635C187.867 9.03378 188.342 8.24281 188.642 7.54342C188.941 6.84403 189.091 6.12799 189.091 5.3953Z" fill="#013D5B"/>
<path d="M159.618 13.0136C159.618 11.6815 159.868 10.5075 160.368 9.4917C160.867 8.47592 161.558 7.68495 162.441 7.11878C163.34 6.53595 164.364 6.24454 165.513 6.24454C166.279 6.24454 167.02 6.37776 167.736 6.64419C168.452 6.91063 169.077 7.27697 169.61 7.74323V2.5228C169.61 1.93997 169.485 1.53199 169.235 1.29886C169.002 1.04908 168.544 0.890888 167.861 0.824279V0.449607L170.884 0L171.108 0.224804C171.042 0.741019 171.008 1.29054 171.008 1.87336V16.7104C171.008 17.3265 171.125 17.7678 171.358 18.0342C171.608 18.3007 172.074 18.5005 172.757 18.6337V19.0084L170.059 19.2332C169.793 18.7669 169.66 18.1675 169.66 17.4348V17.2599C168.577 18.692 167.12 19.408 165.288 19.408C164.139 19.408 163.14 19.1416 162.291 18.6087C161.442 18.0592 160.784 17.3099 160.318 16.3607C159.852 15.3949 159.618 14.2792 159.618 13.0136ZM161.092 12.539C161.092 13.7546 161.284 14.8204 161.667 15.7362C162.05 16.6521 162.582 17.3682 163.265 17.8844C163.948 18.4006 164.739 18.6587 165.638 18.6587C166.82 18.6587 167.778 18.2257 168.511 17.3598C169.243 16.4939 169.61 15.3532 169.61 13.9378V11.0154C169.61 10.2494 169.418 9.56664 169.035 8.96716C168.669 8.35104 168.161 7.8598 167.512 7.49345C166.862 7.1271 166.138 6.94393 165.338 6.94393C164.04 6.94393 163.007 7.44349 162.241 8.44262C161.475 9.44175 161.092 10.8072 161.092 12.539Z" fill="#013D5B"/>
<path d="M146.837 12.8388C146.837 11.5399 147.07 10.3993 147.536 9.41678C148.019 8.41765 148.685 7.64333 149.534 7.09381C150.384 6.52764 151.366 6.24455 152.482 6.24455C153.947 6.24455 155.138 6.73579 156.054 7.71826C156.986 8.68409 157.519 10.0079 157.652 11.6898H148.235C148.219 11.8896 148.21 12.0894 148.21 12.2893C148.21 14.1043 148.652 15.5448 149.534 16.6105C150.434 17.6762 151.649 18.2091 153.181 18.2091C154.896 18.2091 156.187 17.5347 157.053 16.1859L157.427 16.3857C156.478 18.4006 154.888 19.408 152.657 19.408C151.491 19.408 150.467 19.1333 149.584 18.5838C148.718 18.0342 148.044 17.2683 147.561 16.2858C147.078 15.2866 146.837 14.1377 146.837 12.8388ZM149.584 8.04298C148.902 8.77567 148.469 9.76647 148.285 11.0154H156.029C155.862 9.71652 155.446 8.71739 154.78 8.018C154.13 7.30196 153.289 6.94394 152.257 6.94394C151.175 6.94394 150.284 7.31029 149.584 8.04298Z" fill="#013D5B"/>
<path d="M137.563 6.6442H139.312V4.04647L140.586 3.84665L140.811 4.07145C140.744 4.60432 140.711 5.15384 140.711 5.72001V6.6442H144.682V7.31861H140.711V16.1859C140.711 16.9019 140.869 17.4514 141.185 17.8344C141.518 18.2174 141.976 18.4089 142.559 18.4089C143.342 18.4089 144.008 18.0093 144.557 17.21L144.907 17.4098C144.258 18.742 143.3 19.408 142.034 19.408C141.169 19.408 140.494 19.1333 140.011 18.5838C139.545 18.0176 139.312 17.21 139.312 16.1609V7.31861H137.563V6.6442Z" fill="#013D5B"/>
<path d="M130.937 18.6337C131.637 18.5172 132.103 18.334 132.336 18.0842C132.569 17.8344 132.686 17.4181 132.686 16.8353V9.01713C132.686 8.4343 132.561 8.02632 132.311 7.79319C132.078 7.54341 131.62 7.38522 130.937 7.31861V6.96891L133.96 6.49433L134.184 6.71913C134.118 7.252 134.085 7.80152 134.085 8.36769V16.8353C134.085 17.4181 134.193 17.8344 134.409 18.0842C134.642 18.334 135.117 18.5172 135.833 18.6337V19.0084H130.937V18.6337ZM132.061 2.298C132.061 1.96496 132.17 1.6902 132.386 1.47372C132.619 1.25724 132.894 1.149 133.21 1.149C133.543 1.149 133.81 1.25724 134.01 1.47372C134.226 1.6902 134.334 1.96496 134.334 2.298C134.334 2.63104 134.226 2.9058 134.01 3.12228C133.81 3.3221 133.543 3.42202 133.21 3.42202C132.894 3.42202 132.619 3.3221 132.386 3.12228C132.17 2.9058 132.061 2.63104 132.061 2.298Z" fill="#013D5B"/>
<path d="M106.886 18.6337C107.585 18.5172 108.052 18.334 108.285 18.0842C108.518 17.8344 108.634 17.4181 108.634 16.8353V9.14202C108.634 8.50924 108.518 8.07628 108.285 7.84316C108.068 7.59337 107.602 7.4102 106.886 7.29364V6.91896L109.584 6.49433C109.733 6.77742 109.833 7.05218 109.883 7.31861C109.95 7.58505 109.983 7.93474 109.983 8.3677C111.016 6.95227 112.414 6.24455 114.18 6.24455C115.195 6.24455 116.045 6.47768 116.727 6.94394C117.427 7.4102 117.91 8.06796 118.176 8.91722C119.225 7.13544 120.741 6.24455 122.722 6.24455C124.121 6.24455 125.195 6.66086 125.944 7.49346C126.71 8.30941 127.093 9.47506 127.093 10.9904V16.8353C127.093 17.4181 127.21 17.8344 127.443 18.0842C127.676 18.334 128.142 18.5172 128.842 18.6337V19.0084H123.946V18.6337C124.662 18.5172 125.128 18.334 125.345 18.0842C125.578 17.8344 125.695 17.4181 125.695 16.8353V11.0653C125.695 9.73317 125.411 8.72572 124.845 8.04298C124.296 7.34359 123.48 6.9939 122.397 6.9939C121.198 6.9939 120.258 7.42685 119.575 8.29276C118.909 9.15867 118.576 10.3077 118.576 11.7398V16.8103C118.576 17.4098 118.684 17.8344 118.9 18.0842C119.134 18.334 119.608 18.5172 120.324 18.6337V19.0084H115.404V18.6337C116.12 18.5172 116.586 18.334 116.802 18.0842C117.035 17.8344 117.152 17.4181 117.152 16.8353V11.0653C117.152 9.73317 116.869 8.72572 116.303 8.04298C115.753 7.34359 114.937 6.9939 113.855 6.9939C112.673 6.9939 111.74 7.42685 111.057 8.29276C110.375 9.15867 110.033 10.3077 110.033 11.7398V16.8103C110.033 17.4098 110.141 17.8344 110.358 18.0842C110.591 18.334 111.066 18.5172 111.782 18.6337V19.0084H106.886V18.6337Z" fill="#013D5B"/>
<path d="M99.8854 18.6337C100.585 18.5172 101.051 18.334 101.284 18.0842C101.517 17.8344 101.634 17.4181 101.634 16.8353V9.01713C101.634 8.4343 101.509 8.02632 101.259 7.79319C101.026 7.54341 100.568 7.38522 99.8854 7.31861V6.96891L102.908 6.49433L103.133 6.71913C103.066 7.252 103.033 7.80152 103.033 8.36769V16.8353C103.033 17.4181 103.141 17.8344 103.357 18.0842C103.59 18.334 104.065 18.5172 104.781 18.6337V19.0084H99.8854V18.6337ZM101.009 2.298C101.009 1.96496 101.118 1.6902 101.334 1.47372C101.567 1.25724 101.842 1.149 102.158 1.149C102.491 1.149 102.758 1.25724 102.958 1.47372C103.174 1.6902 103.282 1.96496 103.282 2.298C103.282 2.63104 103.174 2.9058 102.958 3.12228C102.758 3.3221 102.491 3.42202 102.158 3.42202C101.842 3.42202 101.567 3.3221 101.334 3.12228C101.118 2.9058 101.009 2.63104 101.009 2.298Z" fill="#013D5B"/>
<path d="M92.8817 18.6337C93.5978 18.5171 94.064 18.334 94.2805 18.0842C94.5136 17.8344 94.6302 17.4181 94.6302 16.8353V2.54777C94.6302 1.96495 94.5053 1.55697 94.2555 1.32384C94.0224 1.07406 93.5645 0.915866 92.8817 0.849257V0.474585L95.9041 0L96.1289 0.224804C96.0623 0.741019 96.029 1.29054 96.029 1.87336V16.8353C96.029 17.4181 96.1372 17.8344 96.3537 18.0842C96.5868 18.334 97.0614 18.5171 97.7774 18.6337V19.0084H92.8817V18.6337Z" fill="#013D5B"/>
<path d="M77.127 18.6337C77.8263 18.5172 78.2926 18.334 78.5257 18.0842C78.7589 17.8344 78.8754 17.4181 78.8754 16.8353V9.14202C78.8754 8.50924 78.7589 8.07628 78.5257 7.84316C78.3093 7.59337 77.843 7.4102 77.127 7.29364V6.91896L79.8246 6.49433C79.9745 6.79407 80.0744 7.08548 80.1243 7.36857C80.1909 7.635 80.2242 7.9847 80.2242 8.41765C81.3233 6.96892 82.797 6.24455 84.6454 6.24455C86.0775 6.24455 87.1848 6.66086 87.9675 7.49346C88.7668 8.30941 89.1664 9.47506 89.1664 10.9904V16.8353C89.1664 17.4181 89.2747 17.8344 89.4911 18.0842C89.7243 18.334 90.1989 18.5172 90.9149 18.6337V19.0084H85.9942V18.6337C86.7102 18.5172 87.1848 18.334 87.418 18.0842C87.6511 17.8344 87.7677 17.4181 87.7677 16.8353V11.0653C87.7677 9.73317 87.4762 8.72572 86.8934 8.04298C86.3106 7.34359 85.4613 6.9939 84.3456 6.9939C83.0801 6.9939 82.081 7.42685 81.3483 8.29276C80.6322 9.15867 80.2742 10.3077 80.2742 11.7398V16.8353C80.2742 17.4181 80.3824 17.8344 80.5989 18.0842C80.832 18.334 81.3066 18.5172 82.0227 18.6337V19.0084H77.127V18.6337Z" fill="#013D5B"/>
<path d="M63.1344 14.6622V9.01712C63.1344 8.4676 63.0261 8.06795 62.8097 7.81817C62.5932 7.55173 62.1269 7.38521 61.4109 7.3186V6.94393L64.4083 6.49432L64.658 6.74411C64.5914 7.26032 64.5581 7.80984 64.5581 8.39266V14.5872C64.5581 15.9028 64.8329 16.9102 65.3824 17.6096C65.9486 18.309 66.7729 18.6587 67.8553 18.6587C69.0709 18.6587 70.045 18.2424 70.7777 17.4098C71.5104 16.5605 71.8767 15.4282 71.8767 14.0128V8.61747C71.8767 8.16786 71.7768 7.85147 71.577 7.6683C71.3938 7.46847 70.9525 7.34358 70.2532 7.29363V6.91895L73.1756 6.49432L73.3754 6.71913C73.3088 7.252 73.2755 7.81817 73.2755 8.41764V16.7104C73.2755 17.3265 73.3921 17.7678 73.6252 18.0342C73.875 18.3007 74.3413 18.5005 75.024 18.6337V19.0084L72.3263 19.2332C72.0599 18.7669 71.9267 18.1675 71.9267 17.4348V17.16C70.8443 18.6587 69.3789 19.408 67.5305 19.408C66.1318 19.408 65.0494 19.0001 64.2834 18.1841C63.5174 17.3515 63.1344 16.1775 63.1344 14.6622Z" fill="#013D5B"/>
<path d="M39.9768 18.6337C40.6762 18.5172 41.1425 18.334 41.3756 18.0842C41.6087 17.8344 41.7253 17.4181 41.7253 16.8353V9.14202C41.7253 8.50924 41.6087 8.07628 41.3756 7.84316C41.1591 7.59337 40.6928 7.4102 39.9768 7.29364V6.91896L42.6744 6.49433C42.8243 6.79407 42.9242 7.08548 42.9742 7.36857C43.0408 7.635 43.0741 7.9847 43.0741 8.41765C44.1731 6.96892 45.6469 6.24455 47.4952 6.24455C48.9273 6.24455 50.0347 6.66086 50.8173 7.49346C51.6166 8.30941 52.0163 9.47506 52.0163 10.9904V16.8353C52.0163 17.4181 52.1245 17.8344 52.341 18.0842C52.5741 18.334 53.0487 18.5172 53.7648 18.6337V19.0084H48.8441V18.6337C49.5601 18.5172 50.0347 18.334 50.2678 18.0842C50.5009 17.8344 50.6175 17.4181 50.6175 16.8353V11.0653C50.6175 9.73317 50.3261 8.72572 49.7433 8.04298C49.1604 7.34359 48.3112 6.9939 47.1955 6.9939C45.9299 6.9939 44.9308 7.42685 44.1981 8.29276C43.4821 9.15867 43.1241 10.3077 43.1241 11.7398V16.8353C43.1241 17.4181 43.2323 17.8344 43.4488 18.0842C43.6819 18.334 44.1565 18.5172 44.8725 18.6337V19.0084H39.9768V18.6337Z" fill="#013D5B"/>
<path d="M28.9512 18.6337C29.6506 18.5338 30.1168 18.359 30.3499 18.1092C30.5831 17.8594 30.6996 17.4348 30.6996 16.8353V9.11704C30.6996 8.50091 30.5914 8.07628 30.3749 7.84316C30.1585 7.59337 29.6839 7.4102 28.9512 7.29364V6.91896L31.6488 6.49433C31.7987 6.81072 31.8986 7.10214 31.9486 7.36857C32.0152 7.61835 32.0485 7.94307 32.0485 8.34272C32.4315 7.67663 32.9144 7.16042 33.4972 6.79407C34.0967 6.42773 34.7544 6.24455 35.4705 6.24455C36.3697 6.24455 37.2189 6.54429 38.0182 7.14377L38.268 10.266L37.8934 10.341C37.5437 9.20863 37.1357 8.38435 36.6694 7.86813C36.2032 7.33527 35.6287 7.06883 34.9459 7.06883C34.08 7.06883 33.389 7.46848 32.8727 8.26778C32.3565 9.05043 32.0984 10.1162 32.0984 11.465V16.8353C32.0984 17.4348 32.2483 17.8594 32.548 18.1092C32.8644 18.359 33.4639 18.5338 34.3465 18.6337V19.0084H28.9512V18.6337Z" fill="#013D5B"/>
<path d="M15.5422 16.086C15.5422 14.887 16.0918 13.9295 17.1908 13.2135C18.2898 12.4808 19.7469 12.1144 21.562 12.1144C21.9616 12.1144 22.3613 12.1394 22.7609 12.1894C23.1606 12.2227 23.5602 12.2809 23.9599 12.3642V10.9904C23.9599 9.67489 23.6601 8.66744 23.0607 7.96805C22.4778 7.26866 21.6203 6.91896 20.4879 6.91896C18.6895 6.91896 17.3906 8.05963 16.5913 10.341L16.2166 10.2411L16.6912 7.14377C18.09 6.54429 19.4222 6.24455 20.6877 6.24455C22.1864 6.24455 23.3354 6.65253 24.1347 7.46848C24.9507 8.28444 25.3587 9.45841 25.3587 10.9904V17.16C25.3587 18.0093 25.675 18.4339 26.3078 18.4339C26.5909 18.4339 26.849 18.3173 27.0821 18.0842L27.3819 18.309C27.0155 18.9251 26.466 19.2332 25.7333 19.2332C25.2504 19.2332 24.8591 19.0833 24.5594 18.7836C24.2763 18.4672 24.1014 18.0426 24.0348 17.5097C22.9524 18.7753 21.5953 19.408 19.9634 19.408C18.5979 19.408 17.5155 19.1083 16.7162 18.5088C15.9336 17.9094 15.5422 17.1017 15.5422 16.086ZM17.0409 15.9361C17.0409 16.7853 17.3323 17.4514 17.9152 17.9343C18.498 18.4172 19.2973 18.6587 20.3131 18.6587C21.3955 18.6587 22.2697 18.3007 22.9358 17.5846C23.6185 16.8686 23.9599 15.8445 23.9599 14.5123V13.0136C23.6268 12.947 23.2855 12.8971 22.9358 12.8638C22.6027 12.8305 22.2447 12.8138 21.8617 12.8138C20.3297 12.8138 19.1391 13.0886 18.2898 13.6381C17.4572 14.1876 17.0409 14.9536 17.0409 15.9361Z" fill="#013D5B"/>
<path d="M0 18.5838C0.749345 18.4672 1.24058 18.284 1.47371 18.0342C1.72349 17.7678 1.84838 17.3182 1.84838 16.6854V3.84665C1.84838 3.21387 1.72349 2.77259 1.47371 2.5228C1.24058 2.25637 0.749345 2.06487 0 1.94831V1.52368H8.44262C9.24192 1.52368 9.88303 1.51535 10.3659 1.4987C10.8489 1.4654 11.3151 1.41544 11.7647 1.34883L12.4141 5.6201L11.9645 5.72001C11.6648 4.73754 11.3651 4.00484 11.0653 3.52193C10.7656 3.02237 10.3909 2.68933 9.94131 2.5228C9.50836 2.33963 8.90888 2.24805 8.14288 2.24805H3.34707V9.6166H7.64332C8.35936 9.6166 8.8506 9.48339 9.11703 9.21695C9.40012 8.95052 9.62492 8.39267 9.79144 7.54342H10.1661V12.3642H9.79144C9.69153 11.798 9.55831 11.3734 9.39179 11.0903C9.24192 10.7906 9.03377 10.5908 8.76734 10.4908C8.5009 10.3743 8.12623 10.316 7.64332 10.316H3.34707V16.6355C3.34707 17.2349 3.46364 17.6596 3.69677 17.9094C3.9299 18.1591 4.33787 18.284 4.9207 18.284H8.09293C8.94218 18.284 9.6166 18.1841 10.1162 17.9843C10.6157 17.7845 11.0403 17.3931 11.39 16.8103C11.7397 16.2275 12.0978 15.3533 12.4641 14.1876L12.8887 14.2625L12.1893 19.0084H0V18.5838Z" fill="#013D5B"/>
</svg>
