<svg width="54" height="8" viewBox="0 0 54 8" fill="none" xmlns="http://www.w3.org/2000/svg">
<path d="M0 7.5092V0H1.0514V6.65101H4.54162V7.5092H0Z" fill="#013D5B"/>
<path d="M9.60876 7.30538C9.11016 7.54854 8.55375 7.67011 7.93953 7.67011C7.04349 7.67011 6.36062 7.42338 5.89092 6.92992C5.42122 6.43646 5.18638 5.71415 5.18638 4.76298C5.18638 4.17655 5.29115 3.66878 5.50071 3.23968C5.71027 2.80344 6.00293 2.47089 6.37869 2.24203C6.75444 2.01318 7.1844 1.89876 7.66855 1.89876C8.3478 1.89876 8.88253 2.099 9.27275 2.49949C9.66296 2.89998 9.85806 3.45423 9.85806 4.16224C9.85806 4.44116 9.83277 4.7165 9.78219 4.98826H6.19442C6.2161 6.25409 6.83754 6.88701 8.05876 6.88701C8.58626 6.88701 9.10293 6.77259 9.60876 6.54373V7.30538ZM7.66855 2.63895C7.24943 2.63895 6.90619 2.78556 6.63883 3.07877C6.37869 3.37199 6.23055 3.7689 6.19442 4.26952H8.91505C8.92228 4.23376 8.92589 4.198 8.92589 4.16224C8.92589 4.12649 8.92589 4.09073 8.92589 4.05497C8.92589 3.61157 8.81389 3.26472 8.58988 3.01441C8.37309 2.7641 8.06598 2.63895 7.66855 2.63895Z" fill="#013D5B"/>
<path d="M14.5778 7.53066L14.5128 7.1552C13.9058 7.49848 13.3169 7.67011 12.746 7.67011C12.1752 7.67011 11.7199 7.51993 11.3803 7.21956C11.0479 6.91204 10.8817 6.50082 10.8817 5.98591C10.8817 5.44954 11.0696 5.03474 11.4453 4.74153C11.8211 4.44116 12.3486 4.29097 13.0278 4.29097C13.4253 4.29097 13.8841 4.33746 14.4044 4.43043V3.86188C14.4044 3.46854 14.2888 3.17532 14.0576 2.98223C13.8336 2.78913 13.4867 2.69259 13.017 2.69259C12.4678 2.69259 11.8681 2.81774 11.2177 3.06805V2.28494C11.5212 2.16337 11.85 2.07039 12.2041 2.00603C12.5581 1.93451 12.8942 1.89876 13.2121 1.89876C13.9275 1.89876 14.4695 2.06324 14.838 2.39222C15.2137 2.72119 15.4016 3.20393 15.4016 3.84042V7.44484L14.5778 7.53066ZM13.0062 6.88701C13.2157 6.88701 13.4506 6.85125 13.7107 6.77974C13.9709 6.70822 14.2021 6.61525 14.4044 6.50082V5.12771C14.0648 5.04189 13.6637 4.99898 13.2013 4.99898C12.7677 4.99898 12.4461 5.08123 12.2366 5.24571C12.0343 5.40305 11.9331 5.64263 11.9331 5.96445C11.9331 6.57949 12.2908 6.88701 13.0062 6.88701Z" fill="#013D5B"/>
<path d="M16.9858 7.5092V2.12403L17.8096 2.03821L17.8963 2.53167C18.3732 2.13118 18.8827 1.93094 19.4247 1.93094C19.5909 1.93094 19.7571 1.95597 19.9233 2.00603V2.83204C19.7498 2.78913 19.5728 2.76768 19.3921 2.76768C18.8719 2.76768 18.4094 2.92859 18.0047 3.25041V7.5092H16.9858Z" fill="#013D5B"/>
<path d="M24.4674 7.5092V3.84042C24.4674 3.0752 24.0844 2.69259 23.3185 2.69259C23.1161 2.69259 22.8885 2.72834 22.6356 2.79986C22.3899 2.86423 22.1659 2.95362 21.9636 3.06805V7.5092H20.9447V2.12403L21.7685 2.03821L21.8335 2.41367C22.426 2.07039 23.015 1.89876 23.6003 1.89876C24.2 1.89876 24.6625 2.05609 24.9877 2.37076C25.3201 2.67828 25.4863 3.11811 25.4863 3.69024V7.5092H24.4674Z" fill="#013D5B"/>
<path d="M33.2084 6.85483L31.0948 1.46966L30.6829 7.5092H29.6857L30.2819 0H31.4633L33.642 5.55681L35.8207 0H37.0022L37.5983 7.5092H36.5903L36.1675 1.46966L34.0647 6.85483H33.2084Z" fill="#013D5B"/>
<path d="M41.3298 6.87629C41.8356 6.87629 42.2005 6.7118 42.4245 6.38282C42.6558 6.05385 42.7714 5.52105 42.7714 4.78444C42.7714 4.04782 42.6558 3.51502 42.4245 3.18605C42.2005 2.85707 41.8356 2.69259 41.3298 2.69259C40.8239 2.69259 40.4554 2.85707 40.2242 3.18605C40.0002 3.51502 39.8882 4.04782 39.8882 4.78444C39.8882 5.52105 40.0002 6.05385 40.2242 6.38282C40.4554 6.7118 40.8239 6.87629 41.3298 6.87629ZM41.3298 7.67011C40.506 7.67011 39.8809 7.42696 39.4546 6.94065C39.0355 6.44719 38.8259 5.72845 38.8259 4.78444C38.8259 3.84042 39.0355 3.12526 39.4546 2.63895C39.8809 2.14549 40.506 1.89876 41.3298 1.89876C42.1536 1.89876 42.775 2.14549 43.1941 2.63895C43.6205 3.12526 43.8336 3.84042 43.8336 4.78444C43.8336 5.72845 43.6205 6.44719 43.1941 6.94065C42.775 7.42696 42.1536 7.67011 41.3298 7.67011Z" fill="#013D5B"/>
<path d="M45.1529 7.5092V2.12403L45.9767 2.03821L46.0634 2.53167C46.5403 2.13118 47.0497 1.93094 47.5917 1.93094C47.7579 1.93094 47.9241 1.95597 48.0903 2.00603V2.83204C47.9169 2.78913 47.7398 2.76768 47.5592 2.76768C47.0389 2.76768 46.5764 2.92859 46.1718 3.25041V7.5092H45.1529Z" fill="#013D5B"/>
<path d="M53.1031 7.30538C52.6045 7.54854 52.0481 7.67011 51.4338 7.67011C50.5378 7.67011 49.8549 7.42338 49.3852 6.92992C48.9155 6.43646 48.6807 5.71415 48.6807 4.76298C48.6807 4.17655 48.7855 3.66878 48.995 3.23968C49.2046 2.80344 49.4972 2.47089 49.873 2.24203C50.2487 2.01318 50.6787 1.89876 51.1629 1.89876C51.8421 1.89876 52.3768 2.099 52.7671 2.49949C53.1573 2.89998 53.3524 3.45423 53.3524 4.16224C53.3524 4.44116 53.3271 4.7165 53.2765 4.98826H49.6887C49.7104 6.25409 50.3319 6.88701 51.5531 6.88701C52.0806 6.88701 52.5972 6.77259 53.1031 6.54373V7.30538ZM51.1629 2.63895C50.7437 2.63895 50.4005 2.78556 50.1331 3.07877C49.873 3.37199 49.7249 3.7689 49.6887 4.26952H52.4094C52.4166 4.23376 52.4202 4.198 52.4202 4.16224C52.4202 4.12649 52.4202 4.09073 52.4202 4.05497C52.4202 3.61157 52.3082 3.26472 52.0842 3.01441C51.8674 2.7641 51.5603 2.63895 51.1629 2.63895Z" fill="#013D5B"/>
</svg>
