<svg width="129" height="47" viewBox="0 0 129 47" fill="none" xmlns="http://www.w3.org/2000/svg">
<g clip-path="url(#clip0_6183_2004)">
<path d="M87.5481 33.4898C87.5481 33.4898 87.5358 33.4991 87.5296 33.5022C82.0365 37.3906 75.5311 41.4765 68.5319 45.763L68.2542 45.9235C68.1616 45.9914 68.1369 46.1179 68.2048 46.2136C68.2696 46.3093 68.3992 46.3309 68.4949 46.263L68.7294 46.1395C74.667 43.0411 81.4841 39.3626 88.3474 35.5883C88.3845 35.5667 88.4215 35.5482 88.4585 35.5266C88.082 34.9094 87.7703 34.2305 87.5512 33.4867L87.5481 33.4898ZM123.602 4.30195C114.943 -5.24938 59.2305 3.34218 35.5389 8.51749L34.9865 8.63785C34.8723 8.65945 34.7983 8.76746 34.8168 8.88165C34.8384 8.99583 34.9433 9.07298 35.0606 9.05138L35.6099 8.94337C55.2403 5.44996 96.0595 0.601772 104.842 9.31369C107.521 11.9708 106.882 15.3932 103.778 19.4329C105.453 20.5099 106.645 22.201 107.182 24.3212C119.313 16.2511 127.463 8.55761 123.606 4.30503L123.602 4.30195Z" fill="#CC2427"/>
<path d="M91.0539 30.9809C91.165 34.3416 93.2913 37.0912 96.0656 37.0912C101.438 37.0912 103.725 30.4933 103.568 26.0833C103.454 22.7164 101.272 19.9698 98.5036 19.9698C93.8807 19.9698 90.8965 26.54 91.0539 30.9778V30.9809ZM88.2147 30.8019C88.0141 25.068 92.5074 19.2045 99.0344 19.2045C103.398 19.2045 106.256 22.1115 106.416 26.5678C106.626 32.6165 102.429 38.1683 95.5965 38.1683C91.2298 38.1683 88.3752 35.2643 88.2147 30.8049V30.8019Z" fill="#013D5B"/>
<path d="M26.3918 29.2866C26.1572 29.373 25.8579 29.4625 25.4845 29.5397C25.111 29.623 24.4321 29.7433 23.4415 29.9007C22.7595 30.0087 22.2873 30.1507 22.0188 30.342C21.7627 30.5334 21.6084 30.7617 21.5652 31.0364C21.5127 31.3327 21.6084 31.5703 21.8645 31.7524C22.1238 31.9344 22.562 32.027 23.1792 32.027C23.6421 32.027 24.0957 31.953 24.534 31.811C24.9783 31.666 25.3518 31.4684 25.6418 31.2216C25.8548 31.0395 26.006 30.8049 26.1171 30.5272C26.1819 30.3451 26.2776 29.9316 26.3856 29.2804L26.3918 29.2866ZM32.067 25.7593C32.0423 26.287 31.9528 26.7468 31.8109 27.5522L30.8511 32.9405C30.7678 33.4188 30.9468 33.7953 31.3912 34.0515L31.3603 34.2613L25.864 34.2551L25.8147 32.8849C25.0154 33.3664 24.0494 33.7737 23.1761 34.0144C22.3058 34.2366 21.5991 34.3385 20.5437 34.3385C18.7692 34.3385 17.7508 34.1533 17.0503 33.5392C16.3374 32.9035 15.9918 32.4838 16.0257 31.6104C16.0535 31.1074 16.3127 30.4624 16.6892 30.0118C17.0688 29.552 17.5873 29.2557 18.152 28.9903C18.7198 28.7188 19.3864 28.5244 20.3585 28.3701C21.3306 28.2127 22.6854 28.0553 24.4969 27.9041C25.4505 27.8238 26.0307 27.6047 26.3023 27.4967C26.6818 27.3486 26.83 27.1881 26.8855 26.8795C26.9874 26.324 26.8084 26.0092 26.0739 25.8642C24.0927 25.4753 20.3832 26.1172 18.4699 26.5956L19.5099 23.7904C22.0312 23.4231 24.3982 23.1855 26.8855 23.1855C30.8418 23.1855 32.1071 24.315 32.067 25.7623V25.7593Z" fill="#013D5B"/>
<path d="M47.9973 34.2613L49.9045 23.4972H55.1662L53.259 34.2613H47.9973ZM50.1946 21.0037C50.352 20.118 51.75 19.402 53.3084 19.402C54.8669 19.402 56.0118 20.121 55.8606 21.0037C55.697 21.8893 54.3021 22.6053 52.7375 22.6053C51.1729 22.6053 50.0341 21.8893 50.1946 21.0037Z" fill="#013D5B"/>
<path d="M73.8522 29.3113C73.6177 29.3915 73.3091 29.478 72.9387 29.5644C72.5715 29.6539 71.8895 29.7619 70.8958 29.9223C70.2199 30.0304 69.7385 30.1723 69.4793 30.3667C69.2262 30.5519 69.0781 30.7803 69.0225 31.058C68.967 31.3574 69.075 31.595 69.3219 31.774C69.5873 31.956 70.0286 32.0455 70.6458 32.0455C71.1056 32.0455 71.5531 31.9776 71.9944 31.8388C72.4419 31.6876 72.8153 31.4962 73.1054 31.2493C73.306 31.0673 73.4634 30.8296 73.5745 30.5488C73.6424 30.3698 73.7349 29.9532 73.8491 29.3082L73.8522 29.3113ZM79.5244 25.7778C79.5028 26.3055 79.4102 26.7715 79.2651 27.5708L78.3115 32.9652C78.2282 33.4404 78.4041 33.8139 78.8485 34.0793L78.8146 34.2675L73.3214 34.2768L73.2782 32.9035C72.4758 33.3911 71.5037 33.7953 70.6365 34.0299C69.7601 34.2582 69.0565 34.3539 67.9918 34.3539C66.2173 34.3539 65.2082 34.1749 64.5046 33.5577C63.7886 32.922 63.443 32.5023 63.48 31.632C63.4985 31.1259 63.7639 30.4778 64.1435 30.0334C64.5231 29.5705 65.0415 29.2743 65.6094 29.0089C66.1772 28.7435 66.8469 28.546 67.8066 28.3855C68.7849 28.2343 70.1428 28.0707 71.9543 27.9195C72.8986 27.8393 73.4788 27.6263 73.7504 27.5214C74.133 27.3733 74.2842 27.2066 74.3429 26.898C74.4416 26.3549 74.2657 26.0308 73.5374 25.8827C71.5469 25.4908 67.8467 26.1358 65.9334 26.611L66.9672 23.8089C69.5009 23.4385 71.8524 23.204 74.3429 23.204C78.2961 23.204 79.5583 24.3366 79.5244 25.7839V25.7778Z" fill="#013D5B"/>
<path d="M15.3037 30.3914C13.5909 30.7309 12.6281 30.8605 10.9338 30.8605C8.41871 30.8605 6.42203 29.6137 6.53005 27.3239C6.6072 25.7994 8.41254 22.5837 12.9984 22.5837C14.4427 22.5837 15.5691 22.8399 17.0874 23.7039L17.754 19.9637C15.6894 19.1829 14.3223 19.0656 12.5509 19.0872C6.54239 19.152 0.765303 21.8863 0.0493396 27.4412C-0.678968 33.0886 6.21836 34.5082 9.27972 34.4959C11.048 34.4897 12.8873 34.4187 14.6032 34.2397L15.3006 30.3852L15.3037 30.3914Z" fill="#013D5B"/>
<path d="M58.0641 23.4355L58.4437 21.2444L63.9461 20.047L63.3597 23.4355H66.0539L65.5416 25.605L62.9277 25.5988L61.3384 34.2552C61.3384 34.2552 56.0396 34.2212 56.0211 34.2552L57.6043 25.6204H55.6045L56.0119 23.4386H58.0672L58.0641 23.4355Z" fill="#013D5B"/>
<path d="M84.8663 34.2521L79.5059 34.2613L82.2031 19.2415L87.4247 19.3896L84.8663 34.2521Z" fill="#013D5B"/>
<path d="M41.0352 26.0185C40.347 26.0185 39.7206 26.2253 39.1682 26.645C38.6188 27.0647 38.2701 27.6757 38.1282 28.4873C37.9615 29.4286 38.0603 30.1013 38.4306 30.518C38.8071 30.9315 39.3472 31.1383 40.0569 31.1383C40.5353 31.1383 41.0321 31.0518 41.3963 30.8729C41.8469 30.6352 42.1585 30.3822 42.427 29.9872C42.7171 29.5705 42.9085 29.1045 43.0072 28.5676C43.1584 27.7189 43.0319 27.0801 42.6369 26.6604C42.2542 26.2283 41.7265 26.0154 41.0383 26.0154L41.0352 26.0185ZM31.4561 37.9769L34.0175 23.5497H38.6374L38.2794 25.392C38.6806 24.8427 39.3225 24.3921 40.2051 24.0218C41.0969 23.6577 42.0999 23.3861 43.1893 23.3861C44.3959 23.3861 45.1397 23.4509 46.0408 23.92C46.9388 24.3921 47.5622 25.0742 47.9048 25.9629C48.2504 26.8394 48.3245 27.8238 48.1362 28.8947C47.8245 30.6723 46.9574 32.0764 45.5347 33.1041C44.1244 34.1348 42.856 34.4033 41.0414 34.4126C40.3995 34.4126 39.8625 34.3447 39.4181 34.2366C38.983 34.1225 38.6343 33.9836 38.3689 33.8169C38.1158 33.6472 37.8473 33.4127 37.5017 33.0331L36.6407 37.9769H31.45H31.4561Z" fill="#013D5B"/>
<path d="M126.985 27.3424C126.954 26.4752 126.519 25.892 125.624 25.892C123.467 25.892 121.171 30.1198 120.776 31.8233C124.315 31.8233 127.071 29.7156 126.988 27.3424H126.985ZM127.448 33.9682L127.864 34.2521C126.812 36.3969 124.667 38.122 122.149 38.122C120.091 38.122 118.403 36.7518 118.313 34.178C118.146 29.5644 122.47 25.2778 126.01 25.2778C127.528 25.2778 128.935 25.9413 128.997 27.5769C129.127 31.2463 123.976 32.3696 120.581 32.4436C120.47 32.8263 120.43 33.2121 120.449 33.7984C120.504 35.3198 121.427 36.6006 123.328 36.6006C124.973 36.6006 126.615 35.2766 127.448 33.9712V33.9682Z" fill="#013D5B"/>
<path d="M106.336 27.219C106.7 27.1696 107.289 27.1048 107.543 27.1048C107.931 27.1048 108.292 27.1788 108.311 27.5615C108.317 27.7899 107.907 29.4224 107.82 29.802L106.999 33.4219C106.669 34.9032 106.308 36.4524 105.99 37.6776H108.098L109.283 31.9437C112.9 28.1756 114.292 26.9474 115.147 26.9474C115.529 26.9474 115.795 27.148 115.813 27.6078C115.835 28.2713 115.424 29.7773 115.279 30.2063L114.07 34.3879C113.795 35.326 113.591 36.1747 113.61 36.7795C113.647 37.6992 114.202 38.1065 115.026 38.1065C116.566 38.1065 117.686 36.5018 118.665 34.9217L118.378 34.4033C117.983 35.039 117.069 36.4216 116.347 36.4216C116.119 36.4216 115.903 36.2703 115.896 35.8877C115.875 35.397 116.082 34.6687 116.224 34.1842L117.566 29.2866C117.927 27.938 118.1 27.0677 118.091 26.6079C118.057 25.6944 117.523 25.2655 116.705 25.2655C115.319 25.2655 113.474 26.2777 109.576 30.7679H109.521L110.011 28.5768C110.277 27.3794 110.539 26.1296 110.792 25.2655C109.444 25.7531 107.509 26.2962 106.314 26.5277L106.333 27.2159L106.336 27.219Z" fill="#013D5B"/>
</g>
<defs>
<clipPath id="clip0_6183_2004">
<rect width="129" height="46.3031" fill="white"/>
</clipPath>
</defs>
</svg>
