<svg width="282" height="53" viewBox="0 0 282 53" fill="none" xmlns="http://www.w3.org/2000/svg">
<path d="M280.648 49.35C280.648 48.6833 280.398 48.125 279.898 47.675C279.398 47.2083 278.515 46.7333 277.248 46.25C275.731 45.6667 274.656 45.0833 274.023 44.5C273.39 43.9 273.073 43.2 273.073 42.4C273.073 41.45 273.456 40.6917 274.223 40.125C274.99 39.5417 276.006 39.25 277.273 39.25C277.873 39.25 278.515 39.325 279.198 39.475C279.898 39.6083 280.548 39.8 281.148 40.05L281.623 43.175L281.248 43.275C280.781 42.0917 280.223 41.2417 279.573 40.725C278.94 40.1917 278.131 39.925 277.148 39.925C276.281 39.925 275.606 40.1083 275.123 40.475C274.64 40.825 274.398 41.325 274.398 41.975C274.398 42.5917 274.656 43.1167 275.173 43.55C275.69 43.9667 276.606 44.4333 277.923 44.95C278.956 45.35 279.765 45.7333 280.348 46.1C280.931 46.4667 281.348 46.8583 281.598 47.275C281.848 47.6917 281.973 48.175 281.973 48.725C281.973 49.825 281.565 50.7167 280.748 51.4C279.948 52.0833 278.89 52.425 277.573 52.425C276.906 52.425 276.19 52.325 275.423 52.125C274.673 51.9417 273.973 51.6833 273.323 51.35L272.848 48.175L273.223 48.075C274.14 50.525 275.64 51.75 277.723 51.75C278.64 51.75 279.356 51.5417 279.873 51.125C280.39 50.6917 280.648 50.1 280.648 49.35Z" fill="#013D5B"/>
<path d="M268.881 49.35C268.881 48.6833 268.631 48.125 268.131 47.675C267.631 47.2083 266.747 46.7333 265.481 46.25C263.964 45.6667 262.889 45.0833 262.256 44.5C261.622 43.9 261.306 43.2 261.306 42.4C261.306 41.45 261.689 40.6917 262.456 40.125C263.222 39.5417 264.239 39.25 265.506 39.25C266.106 39.25 266.747 39.325 267.431 39.475C268.131 39.6083 268.781 39.8 269.381 40.05L269.856 43.175L269.481 43.275C269.014 42.0917 268.456 41.2417 267.806 40.725C267.172 40.1917 266.364 39.925 265.381 39.925C264.514 39.925 263.839 40.1083 263.356 40.475C262.872 40.825 262.631 41.325 262.631 41.975C262.631 42.5917 262.889 43.1167 263.406 43.55C263.922 43.9667 264.839 44.4333 266.156 44.95C267.189 45.35 267.997 45.7333 268.581 46.1C269.164 46.4667 269.581 46.8583 269.831 47.275C270.081 47.6917 270.206 48.175 270.206 48.725C270.206 49.825 269.797 50.7167 268.981 51.4C268.181 52.0833 267.122 52.425 265.806 52.425C265.139 52.425 264.422 52.325 263.656 52.125C262.906 51.9417 262.206 51.6833 261.556 51.35L261.081 48.175L261.456 48.075C262.372 50.525 263.872 51.75 265.956 51.75C266.872 51.75 267.589 51.5417 268.106 51.125C268.622 50.6917 268.881 50.1 268.881 49.35Z" fill="#013D5B"/>
<path d="M247.963 45.85C247.963 44.55 248.196 43.4083 248.663 42.425C249.146 41.425 249.813 40.65 250.663 40.1C251.513 39.5333 252.496 39.25 253.613 39.25C255.079 39.25 256.271 39.7417 257.188 40.725C258.121 41.6917 258.654 43.0167 258.788 44.7H249.363C249.346 44.9 249.338 45.1 249.338 45.3C249.338 47.1167 249.779 48.5583 250.663 49.625C251.563 50.6917 252.779 51.225 254.313 51.225C256.029 51.225 257.321 50.55 258.188 49.2L258.563 49.4C257.613 51.4167 256.021 52.425 253.788 52.425C252.621 52.425 251.596 52.15 250.713 51.6C249.846 51.05 249.171 50.2833 248.688 49.3C248.204 48.3 247.963 47.15 247.963 45.85ZM250.713 41.05C250.029 41.7833 249.596 42.775 249.413 44.025H257.163C256.996 42.725 256.579 41.725 255.913 41.025C255.263 40.3083 254.421 39.95 253.388 39.95C252.304 39.95 251.413 40.3167 250.713 41.05Z" fill="#013D5B"/>
<path d="M232.269 51.65C232.969 51.5333 233.436 51.35 233.669 51.1C233.902 50.85 234.019 50.4333 234.019 49.85V42.15C234.019 41.5167 233.902 41.0833 233.669 40.85C233.452 40.6 232.986 40.4167 232.269 40.3V39.925L234.969 39.5C235.119 39.8 235.219 40.0917 235.269 40.375C235.336 40.6417 235.369 40.9917 235.369 41.425C236.469 39.975 237.944 39.25 239.794 39.25C241.227 39.25 242.336 39.6667 243.119 40.5C243.919 41.3167 244.319 42.4833 244.319 44V49.85C244.319 50.4333 244.427 50.85 244.644 51.1C244.877 51.35 245.352 51.5333 246.069 51.65V52.025H241.144V51.65C241.861 51.5333 242.336 51.35 242.569 51.1C242.802 50.85 242.919 50.4333 242.919 49.85V44.075C242.919 42.7417 242.627 41.7333 242.044 41.05C241.461 40.35 240.611 40 239.494 40C238.227 40 237.227 40.4333 236.494 41.3C235.777 42.1667 235.419 43.3167 235.419 44.75V49.85C235.419 50.4333 235.527 50.85 235.744 51.1C235.977 51.35 236.452 51.5333 237.169 51.65V52.025H232.269V51.65Z" fill="#013D5B"/>
<path d="M225.262 51.65C225.962 51.5333 226.429 51.35 226.662 51.1C226.896 50.85 227.012 50.4333 227.012 49.85V42.025C227.012 41.4417 226.887 41.0333 226.637 40.8C226.404 40.55 225.946 40.3917 225.262 40.325V39.975L228.287 39.5L228.512 39.725C228.446 40.2583 228.412 40.8083 228.412 41.375V49.85C228.412 50.4333 228.521 50.85 228.737 51.1C228.971 51.35 229.446 51.5333 230.162 51.65V52.025H225.262V51.65ZM226.387 35.3C226.387 34.9667 226.496 34.6917 226.712 34.475C226.946 34.2583 227.221 34.15 227.537 34.15C227.871 34.15 228.137 34.2583 228.337 34.475C228.554 34.6917 228.662 34.9667 228.662 35.3C228.662 35.6333 228.554 35.9083 228.337 36.125C228.137 36.325 227.871 36.425 227.537 36.425C227.221 36.425 226.946 36.325 226.712 36.125C226.496 35.9083 226.387 35.6333 226.387 35.3Z" fill="#013D5B"/>
<path d="M221.42 49.35C221.42 48.6833 221.17 48.125 220.67 47.675C220.17 47.2083 219.286 46.7333 218.02 46.25C216.503 45.6667 215.428 45.0833 214.795 44.5C214.161 43.9 213.845 43.2 213.845 42.4C213.845 41.45 214.228 40.6917 214.995 40.125C215.761 39.5417 216.778 39.25 218.045 39.25C218.645 39.25 219.286 39.325 219.97 39.475C220.67 39.6083 221.32 39.8 221.92 40.05L222.395 43.175L222.02 43.275C221.553 42.0917 220.995 41.2417 220.345 40.725C219.711 40.1917 218.903 39.925 217.92 39.925C217.053 39.925 216.378 40.1083 215.895 40.475C215.411 40.825 215.17 41.325 215.17 41.975C215.17 42.5917 215.428 43.1167 215.945 43.55C216.461 43.9667 217.378 44.4333 218.695 44.95C219.728 45.35 220.536 45.7333 221.12 46.1C221.703 46.4667 222.12 46.8583 222.37 47.275C222.62 47.6917 222.745 48.175 222.745 48.725C222.745 49.825 222.336 50.7167 221.52 51.4C220.72 52.0833 219.661 52.425 218.345 52.425C217.678 52.425 216.961 52.325 216.195 52.125C215.445 51.9417 214.745 51.6833 214.095 51.35L213.62 48.175L213.995 48.075C214.911 50.525 216.411 51.75 218.495 51.75C219.411 51.75 220.128 51.5417 220.645 51.125C221.161 50.6917 221.42 50.1 221.42 49.35Z" fill="#013D5B"/>
<path d="M199.49 47.675V42.025C199.49 41.475 199.382 41.075 199.165 40.825C198.948 40.5583 198.482 40.3917 197.765 40.325V39.95L200.765 39.5L201.015 39.75C200.948 40.2667 200.915 40.8167 200.915 41.4V47.6C200.915 48.9167 201.19 49.925 201.74 50.625C202.307 51.325 203.132 51.675 204.215 51.675C205.432 51.675 206.407 51.2583 207.14 50.425C207.873 49.575 208.24 48.4417 208.24 47.025V41.625C208.24 41.175 208.14 40.8583 207.94 40.675C207.757 40.475 207.315 40.35 206.615 40.3V39.925L209.54 39.5L209.74 39.725C209.673 40.2583 209.64 40.825 209.64 41.425V49.725C209.64 50.3417 209.757 50.7833 209.99 51.05C210.24 51.3167 210.707 51.5167 211.39 51.65V52.025L208.69 52.25C208.423 51.7833 208.29 51.1833 208.29 50.45V50.175C207.207 51.675 205.74 52.425 203.89 52.425C202.49 52.425 201.407 52.0167 200.64 51.2C199.873 50.3667 199.49 49.1917 199.49 47.675Z" fill="#013D5B"/>
<path d="M182.931 51.6C183.681 51.4833 184.173 51.3 184.406 51.05C184.656 50.7833 184.781 50.3333 184.781 49.7V36.85C184.781 36.2167 184.656 35.775 184.406 35.525C184.173 35.2583 183.681 35.0667 182.931 34.95V34.525H188.431C190.631 34.525 192.323 34.8917 193.506 35.625C194.706 36.3417 195.306 37.3833 195.306 38.75C195.306 40.7667 194.023 42.1 191.456 42.75C193.023 42.9833 194.223 43.4833 195.056 44.25C195.906 45.0167 196.331 46.0167 196.331 47.25C196.331 48.7833 195.664 49.9667 194.331 50.8C193.014 51.6167 191.131 52.025 188.681 52.025H182.931V51.6ZM186.281 49.65C186.281 50.25 186.389 50.675 186.606 50.925C186.839 51.175 187.264 51.3 187.881 51.3H188.681C192.714 51.3 194.731 50.0167 194.731 47.45C194.731 46.15 194.231 45.1333 193.231 44.4C192.248 43.6667 190.864 43.3 189.081 43.3H186.281V49.65ZM193.756 39.025C193.756 37.875 193.273 36.9583 192.306 36.275C191.339 35.5917 189.989 35.25 188.256 35.25H186.281V42.575H187.681C189.714 42.575 191.231 42.2667 192.231 41.65C193.248 41.0333 193.756 40.1583 193.756 39.025Z" fill="#013D5B"/>
<path d="M169.727 51.625C170.627 51.5417 171.135 51.35 171.252 51.05C171.385 50.7333 171.268 50.2917 170.902 49.725L166.977 43.75L162.952 49.725C162.585 50.2917 162.477 50.7333 162.627 51.05C162.777 51.35 163.235 51.5417 164.002 51.625V52.025H159.477V51.625C160.06 51.5417 160.51 51.3833 160.827 51.15C161.16 50.9 161.502 50.525 161.852 50.025L166.552 43.1L162.202 36.45C161.885 35.9667 161.577 35.6167 161.277 35.4C160.993 35.1667 160.552 35.0083 159.952 34.925V34.525H165.377V34.925C164.41 34.9917 163.877 35.1833 163.777 35.5C163.677 35.8 163.81 36.2417 164.177 36.825L167.652 42.125L171.202 36.825C171.602 36.225 171.718 35.775 171.552 35.475C171.402 35.1583 170.902 34.975 170.052 34.925V34.525H174.702V34.925C174.302 34.975 173.977 35.05 173.727 35.15C173.477 35.25 173.243 35.4083 173.027 35.625C172.827 35.825 172.585 36.125 172.302 36.525L168.077 42.775L172.902 50.1C173.235 50.5833 173.543 50.9333 173.827 51.15C174.11 51.35 174.552 51.5083 175.152 51.625V52.025H169.727V51.625Z" fill="#013D5B"/>
<path d="M141.224 45.85C141.224 44.55 141.458 43.4083 141.924 42.425C142.408 41.425 143.074 40.65 143.924 40.1C144.774 39.5333 145.758 39.25 146.874 39.25C148.341 39.25 149.533 39.7417 150.449 40.725C151.383 41.6917 151.916 43.0167 152.049 44.7H142.624C142.608 44.9 142.599 45.1 142.599 45.3C142.599 47.1167 143.041 48.5583 143.924 49.625C144.824 50.6917 146.041 51.225 147.574 51.225C149.291 51.225 150.583 50.55 151.449 49.2L151.824 49.4C150.874 51.4167 149.283 52.425 147.049 52.425C145.883 52.425 144.858 52.15 143.974 51.6C143.108 51.05 142.433 50.2833 141.949 49.3C141.466 48.3 141.224 47.15 141.224 45.85ZM143.974 41.05C143.291 41.7833 142.858 42.775 142.674 44.025H150.424C150.258 42.725 149.841 41.725 149.174 41.025C148.524 40.3083 147.683 39.95 146.649 39.95C145.566 39.95 144.674 40.3167 143.974 41.05Z" fill="#013D5B"/>
<path d="M130.389 51.65C131.089 51.55 131.556 51.375 131.789 51.125C132.023 50.875 132.139 50.45 132.139 49.85V42.125C132.139 41.5083 132.031 41.0833 131.814 40.85C131.597 40.6 131.122 40.4167 130.389 40.3V39.925L133.089 39.5C133.239 39.8167 133.339 40.1083 133.389 40.375C133.456 40.625 133.489 40.95 133.489 41.35C133.872 40.6833 134.356 40.1667 134.939 39.8C135.539 39.4333 136.198 39.25 136.914 39.25C137.814 39.25 138.664 39.55 139.464 40.15L139.714 43.275L139.339 43.35C138.989 42.2167 138.581 41.3917 138.114 40.875C137.647 40.3417 137.072 40.075 136.389 40.075C135.522 40.075 134.831 40.475 134.314 41.275C133.797 42.0583 133.539 43.125 133.539 44.475V49.85C133.539 50.45 133.689 50.875 133.989 51.125C134.306 51.375 134.906 51.55 135.789 51.65V52.025H130.389V51.65Z" fill="#013D5B"/>
<path d="M116.385 47.675V42.025C116.385 41.475 116.276 41.075 116.06 40.825C115.843 40.5583 115.376 40.3917 114.66 40.325V39.95L117.66 39.5L117.91 39.75C117.843 40.2667 117.81 40.8167 117.81 41.4V47.6C117.81 48.9167 118.085 49.925 118.635 50.625C119.201 51.325 120.026 51.675 121.11 51.675C122.326 51.675 123.301 51.2583 124.035 50.425C124.768 49.575 125.135 48.4417 125.135 47.025V41.625C125.135 41.175 125.035 40.8583 124.835 40.675C124.651 40.475 124.21 40.35 123.51 40.3V39.925L126.435 39.5L126.635 39.725C126.568 40.2583 126.535 40.825 126.535 41.425V49.725C126.535 50.3417 126.651 50.7833 126.885 51.05C127.135 51.3167 127.601 51.5167 128.285 51.65V52.025L125.585 52.25C125.318 51.7833 125.185 51.1833 125.185 50.45V50.175C124.101 51.675 122.635 52.425 120.785 52.425C119.385 52.425 118.301 52.0167 117.535 51.2C116.768 50.3667 116.385 49.1917 116.385 47.675Z" fill="#013D5B"/>
<path d="M105.234 39.65H106.984V37.05L108.259 36.85L108.484 37.075C108.417 37.6083 108.384 38.1583 108.384 38.725V39.65H112.359V40.325H108.384V49.2C108.384 49.9167 108.542 50.4667 108.859 50.85C109.192 51.2333 109.651 51.425 110.234 51.425C111.017 51.425 111.684 51.025 112.234 50.225L112.584 50.425C111.934 51.7583 110.976 52.425 109.709 52.425C108.842 52.425 108.167 52.15 107.684 51.6C107.217 51.0333 106.984 50.225 106.984 49.175V40.325H105.234V39.65Z" fill="#013D5B"/>
<path d="M89.7153 51.65C90.4153 51.5333 90.882 51.35 91.1153 51.1C91.3487 50.85 91.4653 50.4333 91.4653 49.85V42.15C91.4653 41.5167 91.3487 41.0833 91.1153 40.85C90.8987 40.6 90.432 40.4167 89.7153 40.3V39.925L92.4153 39.5C92.5653 39.8 92.6653 40.0917 92.7153 40.375C92.782 40.6417 92.8153 40.9917 92.8153 41.425C93.9153 39.975 95.3903 39.25 97.2403 39.25C98.6737 39.25 99.782 39.6667 100.565 40.5C101.365 41.3167 101.765 42.4833 101.765 44V49.85C101.765 50.4333 101.874 50.85 102.09 51.1C102.324 51.35 102.799 51.5333 103.515 51.65V52.025H98.5903V51.65C99.307 51.5333 99.782 51.35 100.015 51.1C100.249 50.85 100.365 50.4333 100.365 49.85V44.075C100.365 42.7417 100.074 41.7333 99.4903 41.05C98.907 40.35 98.057 40 96.9403 40C95.6737 40 94.6737 40.4333 93.9403 41.3C93.2237 42.1667 92.8653 43.3167 92.8653 44.75V49.85C92.8653 50.4333 92.9737 50.85 93.1903 51.1C93.4237 51.35 93.8987 51.5333 94.6153 51.65V52.025H89.7153V51.65Z" fill="#013D5B"/>
<path d="M76.7224 45.85C76.7224 44.55 76.9557 43.4083 77.4224 42.425C77.9057 41.425 78.5724 40.65 79.4224 40.1C80.2724 39.5333 81.2557 39.25 82.3724 39.25C83.8391 39.25 85.0307 39.7417 85.9474 40.725C86.8807 41.6917 87.4141 43.0167 87.5474 44.7H78.1224C78.1057 44.9 78.0974 45.1 78.0974 45.3C78.0974 47.1167 78.5391 48.5583 79.4224 49.625C80.3224 50.6917 81.5391 51.225 83.0724 51.225C84.7891 51.225 86.0807 50.55 86.9474 49.2L87.3224 49.4C86.3724 51.4167 84.7807 52.425 82.5474 52.425C81.3807 52.425 80.3557 52.15 79.4724 51.6C78.6057 51.05 77.9307 50.2833 77.4474 49.3C76.9641 48.3 76.7224 47.15 76.7224 45.85ZM79.4724 41.05C78.7891 41.7833 78.3557 42.775 78.1724 44.025H85.9224C85.7557 42.725 85.3391 41.725 84.6724 41.025C84.0224 40.3083 83.1807 39.95 82.1474 39.95C81.0641 39.95 80.1724 40.3167 79.4724 41.05Z" fill="#013D5B"/>
<path d="M60.1359 34.525H65.5359V34.925C64.6692 34.9917 64.1192 35.175 63.8859 35.475C63.6525 35.775 63.6442 36.1917 63.8609 36.725L69.0859 49.95L74.2859 36.825C74.5192 36.2417 74.5025 35.7917 74.2359 35.475C73.9859 35.1583 73.4359 34.975 72.5859 34.925V34.525H77.2109V34.925C76.6275 34.9917 76.2025 35.1583 75.9359 35.425C75.6692 35.675 75.4109 36.1167 75.1609 36.75L68.8859 52.275H68.4359L62.1859 36.75C61.9192 36.1167 61.6609 35.675 61.4109 35.425C61.1609 35.175 60.7359 35.0083 60.1359 34.925V34.525Z" fill="#013D5B"/>
<path d="M38.98 51.65C39.68 51.5333 40.1466 51.35 40.38 51.1C40.6133 50.85 40.73 50.425 40.73 49.825V35.55C40.73 34.9667 40.605 34.5583 40.355 34.325C40.1216 34.075 39.6633 33.9167 38.98 33.85V33.475L42.005 33L42.23 33.225C42.1633 33.7583 42.13 34.3167 42.13 34.9V41.35C43.2133 39.95 44.6716 39.25 46.505 39.25C47.9383 39.25 49.0466 39.6667 49.83 40.5C50.63 41.3167 51.03 42.4833 51.03 44V49.85C51.03 50.4333 51.1383 50.85 51.355 51.1C51.5883 51.35 52.0633 51.5333 52.78 51.65V52.025H47.855V51.65C48.5716 51.5333 49.0466 51.35 49.28 51.1C49.5133 50.85 49.63 50.4333 49.63 49.85V44.075C49.63 42.7417 49.3383 41.7333 48.755 41.05C48.1716 40.35 47.3216 40 46.205 40C44.9383 40 43.9383 40.4333 43.205 41.3C42.4883 42.1667 42.13 43.3167 42.13 44.75V49.9C42.13 50.4833 42.2383 50.9 42.455 51.15C42.6883 51.3833 43.1633 51.55 43.88 51.65V52.025H38.98V51.65Z" fill="#013D5B"/>
<path d="M29.3794 39.65H31.1294V37.05L32.4044 36.85L32.6294 37.075C32.5627 37.6083 32.5294 38.1583 32.5294 38.725V39.65H36.5044V40.325H32.5294V49.2C32.5294 49.9167 32.6877 50.4667 33.0044 50.85C33.3377 51.2333 33.7961 51.425 34.3794 51.425C35.1627 51.425 35.8294 51.025 36.3794 50.225L36.7294 50.425C36.0794 51.7583 35.1211 52.425 33.8544 52.425C32.9877 52.425 32.3127 52.15 31.8294 51.6C31.3627 51.0333 31.1294 50.225 31.1294 49.175V40.325H29.3794V39.65Z" fill="#013D5B"/>
<path d="M22.7476 51.65C23.4476 51.5333 23.9142 51.35 24.1476 51.1C24.3809 50.85 24.4976 50.4333 24.4976 49.85V42.025C24.4976 41.4417 24.3726 41.0333 24.1226 40.8C23.8892 40.55 23.4309 40.3917 22.7476 40.325V39.975L25.7726 39.5L25.9976 39.725C25.9309 40.2583 25.8976 40.8083 25.8976 41.375V49.85C25.8976 50.4333 26.0059 50.85 26.2226 51.1C26.4559 51.35 26.9309 51.5333 27.6476 51.65V52.025H22.7476V51.65ZM23.8726 35.3C23.8726 34.9667 23.9809 34.6917 24.1976 34.475C24.4309 34.2583 24.7059 34.15 25.0226 34.15C25.3559 34.15 25.6226 34.2583 25.8226 34.475C26.0392 34.6917 26.1476 34.9667 26.1476 35.3C26.1476 35.6333 26.0392 35.9083 25.8226 36.125C25.6226 36.325 25.3559 36.425 25.0226 36.425C24.7059 36.425 24.4309 36.325 24.1976 36.125C23.9809 35.9083 23.8726 35.6333 23.8726 35.3Z" fill="#013D5B"/>
<path d="M0 39.65H5V40.025C4.2 40.0917 3.70833 40.25 3.525 40.5C3.35833 40.7333 3.38333 41.1417 3.6 41.725L6.85 50.1L10.175 41.625L10.025 41.225C9.85833 40.825 9.65 40.5417 9.4 40.375C9.15 40.2083 8.75 40.0917 8.2 40.025V39.65H13.2V40.025C12.4 40.0917 11.9083 40.25 11.725 40.5C11.5583 40.7333 11.5833 41.1417 11.8 41.725L15.075 50.125L18.35 41.725C18.5833 41.1417 18.6083 40.7333 18.425 40.5C18.2417 40.25 17.75 40.0917 16.95 40.025V39.65H21.125V40.025C20.5917 40.0917 20.2 40.2083 19.95 40.375C19.7 40.5417 19.4917 40.825 19.325 41.225L14.875 52.275H14.45L10.575 42.575L6.675 52.275H6.25L1.8 41.225C1.65 40.825 1.45 40.5417 1.2 40.375C0.95 40.2083 0.55 40.0917 0 40.025V39.65Z" fill="#013D5B"/>
<path d="M276.72 16.35C276.72 15.6833 276.47 15.125 275.97 14.675C275.47 14.2083 274.587 13.7333 273.32 13.25C271.803 12.6667 270.728 12.0833 270.095 11.5C269.462 10.9 269.145 10.2 269.145 9.4C269.145 8.45 269.528 7.69167 270.295 7.125C271.062 6.54167 272.078 6.25 273.345 6.25C273.945 6.25 274.587 6.325 275.27 6.475C275.97 6.60833 276.62 6.8 277.22 7.05L277.695 10.175L277.32 10.275C276.853 9.09167 276.295 8.24167 275.645 7.725C275.012 7.19167 274.203 6.925 273.22 6.925C272.353 6.925 271.678 7.10833 271.195 7.475C270.712 7.825 270.47 8.325 270.47 8.975C270.47 9.59167 270.728 10.1167 271.245 10.55C271.762 10.9667 272.678 11.4333 273.995 11.95C275.028 12.35 275.837 12.7333 276.42 13.1C277.003 13.4667 277.42 13.8583 277.67 14.275C277.92 14.6917 278.045 15.175 278.045 15.725C278.045 16.825 277.637 17.7167 276.82 18.4C276.02 19.0833 274.962 19.425 273.645 19.425C272.978 19.425 272.262 19.325 271.495 19.125C270.745 18.9417 270.045 18.6833 269.395 18.35L268.92 15.175L269.295 15.075C270.212 17.525 271.712 18.75 273.795 18.75C274.712 18.75 275.428 18.5417 275.945 18.125C276.462 17.6917 276.72 17.1 276.72 16.35Z" fill="#013D5B"/>
<path d="M255.802 12.85C255.802 11.55 256.035 10.4083 256.502 9.425C256.985 8.425 257.652 7.65 258.502 7.1C259.352 6.53333 260.335 6.25 261.452 6.25C262.919 6.25 264.11 6.74167 265.027 7.725C265.96 8.69167 266.494 10.0167 266.627 11.7H257.202C257.185 11.9 257.177 12.1 257.177 12.3C257.177 14.1167 257.619 15.5583 258.502 16.625C259.402 17.6917 260.619 18.225 262.152 18.225C263.869 18.225 265.16 17.55 266.027 16.2L266.402 16.4C265.452 18.4167 263.86 19.425 261.627 19.425C260.46 19.425 259.435 19.15 258.552 18.6C257.685 18.05 257.01 17.2833 256.527 16.3C256.044 15.3 255.802 14.15 255.802 12.85ZM258.552 8.05C257.869 8.78333 257.435 9.775 257.252 11.025H265.002C264.835 9.725 264.419 8.725 263.752 8.025C263.102 7.30833 262.26 6.95 261.227 6.95C260.144 6.95 259.252 7.31667 258.552 8.05Z" fill="#013D5B"/>
<path d="M248.992 18.65C249.709 18.5333 250.176 18.35 250.392 18.1C250.626 17.85 250.742 17.4333 250.742 16.85V2.55C250.742 1.96667 250.617 1.55833 250.367 1.325C250.134 1.075 249.676 0.916666 248.992 0.849999V0.475L252.017 0L252.242 0.225C252.176 0.741667 252.142 1.29167 252.142 1.875V16.85C252.142 17.4333 252.251 17.85 252.467 18.1C252.701 18.35 253.176 18.5333 253.892 18.65V19.025H248.992V18.65Z" fill="#013D5B"/>
<path d="M242.11 18.65C242.81 18.5333 243.277 18.35 243.51 18.1C243.744 17.85 243.86 17.4333 243.86 16.85V9.02499C243.86 8.44166 243.735 8.03333 243.485 7.79999C243.252 7.54999 242.794 7.39166 242.11 7.32499V6.97499L245.135 6.49999L245.36 6.72499C245.294 7.25833 245.26 7.80833 245.26 8.37499V16.85C245.26 17.4333 245.369 17.85 245.585 18.1C245.819 18.35 246.294 18.5333 247.01 18.65V19.025H242.11V18.65ZM243.235 2.29999C243.235 1.96666 243.344 1.69166 243.56 1.47499C243.794 1.25833 244.069 1.14999 244.385 1.14999C244.719 1.14999 244.985 1.25833 245.185 1.47499C245.402 1.69166 245.51 1.96666 245.51 2.29999C245.51 2.63333 245.402 2.90833 245.185 3.12499C244.985 3.32499 244.719 3.42499 244.385 3.42499C244.069 3.42499 243.794 3.32499 243.56 3.12499C243.344 2.90833 243.235 2.63333 243.235 2.29999Z" fill="#013D5B"/>
<path d="M218.038 18.65C218.738 18.5333 219.205 18.35 219.438 18.1C219.671 17.85 219.788 17.4333 219.788 16.85V9.15C219.788 8.51667 219.671 8.08333 219.438 7.85C219.221 7.6 218.755 7.41667 218.038 7.3V6.925L220.738 6.5C220.888 6.78333 220.988 7.05833 221.038 7.325C221.105 7.59167 221.138 7.94167 221.138 8.375C222.171 6.95833 223.571 6.25 225.338 6.25C226.355 6.25 227.205 6.48333 227.888 6.95C228.588 7.41667 229.071 8.075 229.338 8.925C230.388 7.14167 231.905 6.25 233.888 6.25C235.288 6.25 236.363 6.66667 237.113 7.5C237.88 8.31667 238.263 9.48333 238.263 11V16.85C238.263 17.4333 238.38 17.85 238.613 18.1C238.846 18.35 239.313 18.5333 240.013 18.65V19.025H235.113V18.65C235.83 18.5333 236.296 18.35 236.513 18.1C236.746 17.85 236.863 17.4333 236.863 16.85V11.075C236.863 9.74167 236.58 8.73333 236.013 8.05C235.463 7.35 234.646 7 233.563 7C232.363 7 231.421 7.43333 230.738 8.3C230.071 9.16667 229.738 10.3167 229.738 11.75V16.825C229.738 17.425 229.846 17.85 230.063 18.1C230.296 18.35 230.771 18.5333 231.488 18.65V19.025H226.563V18.65C227.28 18.5333 227.746 18.35 227.963 18.1C228.196 17.85 228.313 17.4333 228.313 16.85V11.075C228.313 9.74167 228.03 8.73333 227.463 8.05C226.913 7.35 226.096 7 225.013 7C223.83 7 222.896 7.43333 222.213 8.3C221.53 9.16667 221.188 10.3167 221.188 11.75V16.825C221.188 17.425 221.296 17.85 221.513 18.1C221.746 18.35 222.221 18.5333 222.938 18.65V19.025H218.038V18.65Z" fill="#013D5B"/>
<path d="M204.959 18.625C205.859 18.5417 206.367 18.35 206.484 18.05C206.617 17.7333 206.5 17.2917 206.134 16.725L202.209 10.75L198.184 16.725C197.817 17.2917 197.709 17.7333 197.859 18.05C198.009 18.35 198.467 18.5417 199.234 18.625V19.025H194.709V18.625C195.292 18.5417 195.742 18.3833 196.059 18.15C196.392 17.9 196.734 17.525 197.084 17.025L201.784 10.1L197.434 3.44999C197.117 2.96666 196.809 2.61666 196.509 2.39999C196.225 2.16666 195.784 2.00833 195.184 1.92499V1.52499H200.609V1.92499C199.642 1.99166 199.109 2.18333 199.009 2.49999C198.909 2.79999 199.042 3.24166 199.409 3.82499L202.884 9.12499L206.434 3.82499C206.834 3.22499 206.95 2.77499 206.784 2.47499C206.634 2.15833 206.134 1.97499 205.284 1.92499V1.52499H209.934V1.92499C209.534 1.97499 209.209 2.04999 208.959 2.14999C208.709 2.24999 208.475 2.40833 208.259 2.62499C208.059 2.82499 207.817 3.12499 207.534 3.525L203.309 9.77499L208.134 17.1C208.467 17.5833 208.775 17.9333 209.059 18.15C209.342 18.35 209.784 18.5083 210.384 18.625V19.025H204.959V18.625Z" fill="#013D5B"/>
<path d="M190.257 5.39999C190.257 4.36666 189.948 3.57499 189.332 3.02499C188.715 2.45833 187.94 2.17499 187.007 2.17499C185.907 2.17499 185.007 2.52499 184.307 3.22499C183.623 3.90833 183.057 5.00833 182.607 6.52499L182.207 6.44999L182.732 2.62499C183.465 2.27499 184.223 2.00833 185.007 1.82499C185.79 1.62499 186.54 1.52499 187.257 1.52499C188.69 1.52499 189.815 1.87499 190.632 2.57499C191.448 3.27499 191.857 4.26666 191.857 5.54999C191.857 6.16666 191.673 6.84166 191.307 7.57499C190.94 8.29166 190.357 9.14166 189.557 10.125C188.757 11.0917 187.707 12.2917 186.407 13.725L182.882 17.7H189.707C190.34 17.7 190.832 17.6333 191.182 17.5C191.548 17.3667 191.848 17.1 192.082 16.7C192.315 16.3 192.557 15.7083 192.807 14.925L193.207 15L192.607 19.025H181.482L181.307 18.625L185.807 13.15C186.873 11.8667 187.732 10.7917 188.382 9.92499C189.032 9.04166 189.507 8.24999 189.807 7.54999C190.107 6.84999 190.257 6.13333 190.257 5.39999Z" fill="#013D5B"/>
<path d="M160.758 13.025C160.758 11.6917 161.008 10.5167 161.508 9.5C162.008 8.48333 162.7 7.69167 163.583 7.125C164.483 6.54167 165.508 6.25 166.658 6.25C167.425 6.25 168.166 6.38333 168.883 6.65C169.6 6.91667 170.225 7.28333 170.758 7.75V2.525C170.758 1.94167 170.633 1.53333 170.383 1.3C170.15 1.05 169.691 0.891667 169.008 0.825V0.45L172.033 0L172.258 0.225C172.191 0.741667 172.158 1.29167 172.158 1.875V16.725C172.158 17.3417 172.275 17.7833 172.508 18.05C172.758 18.3167 173.225 18.5167 173.908 18.65V19.025L171.208 19.25C170.941 18.7833 170.808 18.1833 170.808 17.45V17.275C169.725 18.7083 168.266 19.425 166.433 19.425C165.283 19.425 164.283 19.1583 163.433 18.625C162.583 18.075 161.925 17.325 161.458 16.375C160.991 15.4083 160.758 14.2917 160.758 13.025ZM162.233 12.55C162.233 13.7667 162.425 14.8333 162.808 15.75C163.191 16.6667 163.725 17.3833 164.408 17.9C165.091 18.4167 165.883 18.675 166.783 18.675C167.966 18.675 168.925 18.2417 169.658 17.375C170.391 16.5083 170.758 15.3667 170.758 13.95V11.025C170.758 10.2583 170.566 9.575 170.183 8.975C169.816 8.35833 169.308 7.86667 168.658 7.5C168.008 7.13333 167.283 6.95 166.483 6.95C165.183 6.95 164.15 7.45 163.383 8.45C162.616 9.45 162.233 10.8167 162.233 12.55Z" fill="#013D5B"/>
<path d="M147.965 12.85C147.965 11.55 148.198 10.4083 148.665 9.425C149.148 8.425 149.815 7.65 150.665 7.1C151.515 6.53333 152.498 6.25 153.615 6.25C155.082 6.25 156.273 6.74167 157.19 7.725C158.123 8.69167 158.657 10.0167 158.79 11.7H149.365C149.348 11.9 149.34 12.1 149.34 12.3C149.34 14.1167 149.782 15.5583 150.665 16.625C151.565 17.6917 152.782 18.225 154.315 18.225C156.032 18.225 157.323 17.55 158.19 16.2L158.565 16.4C157.615 18.4167 156.023 19.425 153.79 19.425C152.623 19.425 151.598 19.15 150.715 18.6C149.848 18.05 149.173 17.2833 148.69 16.3C148.207 15.3 147.965 14.15 147.965 12.85ZM150.715 8.05C150.032 8.78333 149.598 9.775 149.415 11.025H157.165C156.998 9.725 156.582 8.725 155.915 8.025C155.265 7.30833 154.423 6.95 153.39 6.95C152.307 6.95 151.415 7.31667 150.715 8.05Z" fill="#013D5B"/>
<path d="M138.684 6.64999H140.434V4.04999L141.709 3.84999L141.934 4.07499C141.867 4.60832 141.834 5.15832 141.834 5.72499V6.64999H145.809V7.32499H141.834V16.2C141.834 16.9167 141.992 17.4667 142.309 17.85C142.642 18.2333 143.1 18.425 143.684 18.425C144.467 18.425 145.134 18.025 145.684 17.225L146.034 17.425C145.384 18.7583 144.425 19.425 143.159 19.425C142.292 19.425 141.617 19.15 141.134 18.6C140.667 18.0333 140.434 17.225 140.434 16.175V7.32499H138.684V6.64999Z" fill="#013D5B"/>
<path d="M132.052 18.65C132.752 18.5333 133.218 18.35 133.452 18.1C133.685 17.85 133.802 17.4333 133.802 16.85V9.02499C133.802 8.44166 133.677 8.03333 133.427 7.79999C133.193 7.54999 132.735 7.39166 132.052 7.32499V6.97499L135.077 6.49999L135.302 6.72499C135.235 7.25833 135.202 7.80833 135.202 8.37499V16.85C135.202 17.4333 135.31 17.85 135.527 18.1C135.76 18.35 136.235 18.5333 136.952 18.65V19.025H132.052V18.65ZM133.177 2.29999C133.177 1.96666 133.285 1.69166 133.502 1.47499C133.735 1.25833 134.01 1.14999 134.327 1.14999C134.66 1.14999 134.927 1.25833 135.127 1.47499C135.343 1.69166 135.452 1.96666 135.452 2.29999C135.452 2.63333 135.343 2.90833 135.127 3.12499C134.927 3.32499 134.66 3.42499 134.327 3.42499C134.01 3.42499 133.735 3.32499 133.502 3.12499C133.285 2.90833 133.177 2.63333 133.177 2.29999Z" fill="#013D5B"/>
<path d="M107.979 18.65C108.679 18.5333 109.146 18.35 109.379 18.1C109.613 17.85 109.729 17.4333 109.729 16.85V9.15C109.729 8.51667 109.613 8.08333 109.379 7.85C109.163 7.6 108.696 7.41667 107.979 7.3V6.925L110.679 6.5C110.829 6.78333 110.929 7.05833 110.979 7.325C111.046 7.59167 111.079 7.94167 111.079 8.375C112.113 6.95833 113.513 6.25 115.279 6.25C116.296 6.25 117.146 6.48333 117.829 6.95C118.529 7.41667 119.013 8.075 119.279 8.925C120.329 7.14167 121.846 6.25 123.829 6.25C125.229 6.25 126.304 6.66667 127.054 7.5C127.821 8.31667 128.204 9.48333 128.204 11V16.85C128.204 17.4333 128.321 17.85 128.554 18.1C128.788 18.35 129.254 18.5333 129.954 18.65V19.025H125.054V18.65C125.771 18.5333 126.238 18.35 126.454 18.1C126.688 17.85 126.804 17.4333 126.804 16.85V11.075C126.804 9.74167 126.521 8.73333 125.954 8.05C125.404 7.35 124.588 7 123.504 7C122.304 7 121.363 7.43333 120.679 8.3C120.013 9.16667 119.679 10.3167 119.679 11.75V16.825C119.679 17.425 119.788 17.85 120.004 18.1C120.238 18.35 120.713 18.5333 121.429 18.65V19.025H116.504V18.65C117.221 18.5333 117.688 18.35 117.904 18.1C118.138 17.85 118.254 17.4333 118.254 16.85V11.075C118.254 9.74167 117.971 8.73333 117.404 8.05C116.854 7.35 116.038 7 114.954 7C113.771 7 112.838 7.43333 112.154 8.3C111.471 9.16667 111.129 10.3167 111.129 11.75V16.825C111.129 17.425 111.238 17.85 111.454 18.1C111.688 18.35 112.163 18.5333 112.879 18.65V19.025H107.979V18.65Z" fill="#013D5B"/>
<path d="M100.973 18.65C101.673 18.5333 102.139 18.35 102.373 18.1C102.606 17.85 102.723 17.4333 102.723 16.85V9.02499C102.723 8.44166 102.598 8.03333 102.348 7.79999C102.114 7.54999 101.656 7.39166 100.973 7.32499V6.97499L103.998 6.49999L104.223 6.72499C104.156 7.25833 104.123 7.80833 104.123 8.37499V16.85C104.123 17.4333 104.231 17.85 104.448 18.1C104.681 18.35 105.156 18.5333 105.873 18.65V19.025H100.973V18.65ZM102.098 2.29999C102.098 1.96666 102.206 1.69166 102.423 1.47499C102.656 1.25833 102.931 1.14999 103.248 1.14999C103.581 1.14999 103.848 1.25833 104.048 1.47499C104.264 1.69166 104.373 1.96666 104.373 2.29999C104.373 2.63333 104.264 2.90833 104.048 3.12499C103.848 3.32499 103.581 3.42499 103.248 3.42499C102.931 3.42499 102.656 3.32499 102.423 3.12499C102.206 2.90833 102.098 2.63333 102.098 2.29999Z" fill="#013D5B"/>
<path d="M93.9629 18.65C94.6796 18.5333 95.1462 18.35 95.3629 18.1C95.5962 17.85 95.7129 17.4333 95.7129 16.85V2.55C95.7129 1.96667 95.5879 1.55833 95.3379 1.325C95.1046 1.075 94.6462 0.916666 93.9629 0.849999V0.475L96.9879 0L97.2129 0.225C97.1462 0.741667 97.1129 1.29167 97.1129 1.875V16.85C97.1129 17.4333 97.2212 17.85 97.4379 18.1C97.6712 18.35 98.1462 18.5333 98.8629 18.65V19.025H93.9629V18.65Z" fill="#013D5B"/>
<path d="M78.1943 18.65C78.8943 18.5333 79.361 18.35 79.5943 18.1C79.8277 17.85 79.9443 17.4333 79.9443 16.85V9.15C79.9443 8.51667 79.8277 8.08333 79.5943 7.85C79.3777 7.6 78.911 7.41667 78.1943 7.3V6.925L80.8943 6.5C81.0443 6.8 81.1443 7.09167 81.1943 7.375C81.261 7.64167 81.2943 7.99167 81.2943 8.425C82.3943 6.975 83.8693 6.25 85.7193 6.25C87.1527 6.25 88.261 6.66667 89.0443 7.5C89.8443 8.31667 90.2443 9.48333 90.2443 11V16.85C90.2443 17.4333 90.3527 17.85 90.5693 18.1C90.8027 18.35 91.2777 18.5333 91.9943 18.65V19.025H87.0693V18.65C87.786 18.5333 88.261 18.35 88.4943 18.1C88.7277 17.85 88.8443 17.4333 88.8443 16.85V11.075C88.8443 9.74167 88.5527 8.73333 87.9693 8.05C87.386 7.35 86.536 7 85.4193 7C84.1527 7 83.1527 7.43333 82.4193 8.3C81.7027 9.16667 81.3443 10.3167 81.3443 11.75V16.85C81.3443 17.4333 81.4527 17.85 81.6693 18.1C81.9027 18.35 82.3777 18.5333 83.0943 18.65V19.025H78.1943V18.65Z" fill="#013D5B"/>
<path d="M64.1897 14.675V9.025C64.1897 8.475 64.0814 8.075 63.8647 7.825C63.6481 7.55833 63.1814 7.39167 62.4647 7.325V6.95L65.4647 6.5L65.7147 6.75C65.6481 7.26667 65.6147 7.81667 65.6147 8.4V14.6C65.6147 15.9167 65.8897 16.925 66.4397 17.625C67.0064 18.325 67.8314 18.675 68.9147 18.675C70.1314 18.675 71.1064 18.2583 71.8397 17.425C72.5731 16.575 72.9397 15.4417 72.9397 14.025V8.625C72.9397 8.175 72.8397 7.85833 72.6397 7.675C72.4564 7.475 72.0147 7.35 71.3147 7.3V6.925L74.2397 6.5L74.4397 6.725C74.3731 7.25833 74.3397 7.825 74.3397 8.425V16.725C74.3397 17.3417 74.4564 17.7833 74.6897 18.05C74.9397 18.3167 75.4064 18.5167 76.0897 18.65V19.025L73.3897 19.25C73.1231 18.7833 72.9897 18.1833 72.9897 17.45V17.175C71.9064 18.675 70.4397 19.425 68.5897 19.425C67.1897 19.425 66.1064 19.0167 65.3397 18.2C64.5731 17.3667 64.1897 16.1917 64.1897 14.675Z" fill="#013D5B"/>
<path d="M41.0117 18.65C41.7117 18.5333 42.1784 18.35 42.4117 18.1C42.645 17.85 42.7617 17.4333 42.7617 16.85V9.15C42.7617 8.51667 42.645 8.08333 42.4117 7.85C42.195 7.6 41.7284 7.41667 41.0117 7.3V6.925L43.7117 6.5C43.8617 6.8 43.9617 7.09167 44.0117 7.375C44.0784 7.64167 44.1117 7.99167 44.1117 8.425C45.2117 6.975 46.6867 6.25 48.5367 6.25C49.97 6.25 51.0784 6.66667 51.8617 7.5C52.6617 8.31667 53.0617 9.48333 53.0617 11V16.85C53.0617 17.4333 53.1701 17.85 53.3867 18.1C53.6201 18.35 54.0951 18.5333 54.8117 18.65V19.025H49.8867V18.65C50.6034 18.5333 51.0784 18.35 51.3117 18.1C51.5451 17.85 51.6617 17.4333 51.6617 16.85V11.075C51.6617 9.74167 51.3701 8.73333 50.7867 8.05C50.2034 7.35 49.3534 7 48.2367 7C46.9701 7 45.9701 7.43333 45.2367 8.3C44.5201 9.16667 44.1617 10.3167 44.1617 11.75V16.85C44.1617 17.4333 44.2701 17.85 44.4867 18.1C44.7201 18.35 45.1951 18.5333 45.9117 18.65V19.025H41.0117V18.65Z" fill="#013D5B"/>
<path d="M29.9766 18.65C30.6766 18.55 31.1432 18.375 31.3766 18.125C31.6099 17.875 31.7266 17.45 31.7266 16.85V9.125C31.7266 8.50833 31.6182 8.08333 31.4016 7.85C31.1849 7.6 30.7099 7.41667 29.9766 7.3V6.925L32.6766 6.5C32.8266 6.81667 32.9266 7.10833 32.9766 7.375C33.0432 7.625 33.0766 7.95 33.0766 8.35C33.4599 7.68333 33.9432 7.16667 34.5266 6.8C35.1266 6.43333 35.7849 6.25 36.5016 6.25C37.4016 6.25 38.2516 6.55 39.0516 7.15L39.3016 10.275L38.9266 10.35C38.5766 9.21667 38.1682 8.39167 37.7016 7.875C37.2349 7.34167 36.6599 7.075 35.9766 7.075C35.1099 7.075 34.4182 7.475 33.9016 8.275C33.3849 9.05833 33.1266 10.125 33.1266 11.475V16.85C33.1266 17.45 33.2766 17.875 33.5766 18.125C33.8932 18.375 34.4932 18.55 35.3766 18.65V19.025H29.9766V18.65Z" fill="#013D5B"/>
<path d="M16.5559 16.1C16.5559 14.9 17.1059 13.9417 18.2059 13.225C19.3059 12.4917 20.7642 12.125 22.5809 12.125C22.9809 12.125 23.3809 12.15 23.7809 12.2C24.1809 12.2333 24.5809 12.2917 24.9809 12.375V11C24.9809 9.68333 24.6809 8.675 24.0809 7.975C23.4976 7.275 22.6392 6.925 21.5059 6.925C19.7059 6.925 18.4059 8.06667 17.6059 10.35L17.2309 10.25L17.7059 7.15C19.1059 6.55 20.4392 6.25 21.7059 6.25C23.2059 6.25 24.3559 6.65833 25.1559 7.475C25.9726 8.29167 26.3809 9.46667 26.3809 11V17.175C26.3809 18.025 26.6976 18.45 27.3309 18.45C27.6142 18.45 27.8726 18.3333 28.1059 18.1L28.4059 18.325C28.0392 18.9417 27.4892 19.25 26.7559 19.25C26.2726 19.25 25.8809 19.1 25.5809 18.8C25.2976 18.4833 25.1226 18.0583 25.0559 17.525C23.9726 18.7917 22.6142 19.425 20.9809 19.425C19.6142 19.425 18.5309 19.125 17.7309 18.525C16.9476 17.925 16.5559 17.1167 16.5559 16.1ZM18.0559 15.95C18.0559 16.8 18.3476 17.4667 18.9309 17.95C19.5142 18.4333 20.3142 18.675 21.3309 18.675C22.4142 18.675 23.2892 18.3167 23.9559 17.6C24.6392 16.8833 24.9809 15.8583 24.9809 14.525V13.025C24.6476 12.9583 24.3059 12.9083 23.9559 12.875C23.6226 12.8417 23.2642 12.825 22.8809 12.825C21.3476 12.825 20.1559 13.1 19.3059 13.65C18.4726 14.2 18.0559 14.9667 18.0559 15.95Z" fill="#013D5B"/>
<path d="M1 18.6C1.75 18.4833 2.24167 18.3 2.475 18.05C2.725 17.7833 2.85 17.3333 2.85 16.7V3.84999C2.85 3.21666 2.725 2.77499 2.475 2.52499C2.24167 2.25832 1.75 2.06666 1 1.94999V1.52499H9.45C10.25 1.52499 10.8917 1.51666 11.375 1.49999C11.8583 1.46666 12.325 1.41666 12.775 1.34999L13.425 5.62499L12.975 5.72499C12.675 4.74166 12.375 4.00832 12.075 3.52499C11.775 3.02499 11.4 2.69166 10.95 2.52499C10.5167 2.34166 9.91667 2.24999 9.15 2.24999H4.35V9.62499H8.65C9.36667 9.62499 9.85833 9.49166 10.125 9.22499C10.4083 8.95832 10.6333 8.39999 10.8 7.54999H11.175V12.375H10.8C10.7 11.8083 10.5667 11.3833 10.4 11.1C10.25 10.8 10.0417 10.6 9.775 10.5C9.50833 10.3833 9.13333 10.325 8.65 10.325H4.35V16.65C4.35 17.25 4.46667 17.675 4.7 17.925C4.93333 18.175 5.34167 18.3 5.925 18.3H9.1C9.95 18.3 10.625 18.2 11.125 18C11.625 17.8 12.05 17.4083 12.4 16.825C12.75 16.2417 13.1083 15.3667 13.475 14.2L13.9 14.275L13.2 19.025H1V18.6Z" fill="#013D5B"/>
</svg>
