<svg width="213" height="37" viewBox="0 0 213 37" fill="none" xmlns="http://www.w3.org/2000/svg">
<path d="M211.833 34.341C211.833 33.8378 211.644 33.4163 211.267 33.0767C210.889 32.7244 210.223 32.3659 209.267 32.0011C208.122 31.5608 207.31 31.1205 206.832 30.6802C206.354 30.2273 206.115 29.699 206.115 29.0951C206.115 28.3781 206.405 27.8057 206.983 27.3779C207.562 26.9376 208.329 26.7175 209.285 26.7175C209.738 26.7175 210.223 26.7741 210.738 26.8873C211.267 26.988 211.757 27.1326 212.21 27.3213L212.569 29.6801L212.286 29.7556C211.934 28.8624 211.512 28.2208 211.021 27.8308C210.543 27.4283 209.933 27.227 209.191 27.227C208.537 27.227 208.027 27.3654 207.663 27.6421C207.298 27.9063 207.115 28.2837 207.115 28.7743C207.115 29.2398 207.31 29.6361 207.7 29.9631C208.09 30.2776 208.782 30.6299 209.776 31.0199C210.556 31.3218 211.166 31.6111 211.606 31.8879C212.047 32.1646 212.361 32.4603 212.55 32.7748C212.739 33.0893 212.833 33.4541 212.833 33.8692C212.833 34.6995 212.525 35.3725 211.908 35.8883C211.305 36.4041 210.506 36.662 209.512 36.662C209.009 36.662 208.468 36.5865 207.889 36.4355C207.323 36.2972 206.795 36.1022 206.304 35.8506L205.945 33.4541L206.228 33.3786C206.92 35.2279 208.053 36.1525 209.625 36.1525C210.317 36.1525 210.858 35.9952 211.248 35.6807C211.638 35.3537 211.833 34.9071 211.833 34.341Z" fill="#013D5B"/>
<path d="M202.951 34.341C202.951 33.8378 202.762 33.4163 202.385 33.0767C202.007 32.7244 201.34 32.3659 200.384 32.0011C199.24 31.5608 198.428 31.1205 197.95 30.6802C197.472 30.2273 197.233 29.699 197.233 29.0951C197.233 28.3781 197.522 27.8057 198.101 27.3779C198.68 26.9376 199.447 26.7175 200.403 26.7175C200.856 26.7175 201.34 26.7741 201.856 26.8873C202.385 26.988 202.875 27.1326 203.328 27.3213L203.687 29.6801L203.404 29.7556C203.051 28.8624 202.63 28.2208 202.139 27.8308C201.661 27.4283 201.051 27.227 200.309 27.227C199.655 27.227 199.145 27.3654 198.78 27.6421C198.416 27.9063 198.233 28.2837 198.233 28.7743C198.233 29.2398 198.428 29.6361 198.818 29.9631C199.208 30.2776 199.9 30.6299 200.894 31.0199C201.674 31.3218 202.284 31.6111 202.724 31.8879C203.165 32.1646 203.479 32.4603 203.668 32.7748C203.856 33.0893 203.951 33.4541 203.951 33.8692C203.951 34.6995 203.643 35.3725 203.026 35.8883C202.422 36.4041 201.623 36.662 200.63 36.662C200.126 36.662 199.586 36.5865 199.007 36.4355C198.441 36.2972 197.912 36.1022 197.422 35.8506L197.063 33.4541L197.346 33.3786C198.038 35.2279 199.17 36.1525 200.743 36.1525C201.435 36.1525 201.976 35.9952 202.366 35.6807C202.756 35.3537 202.951 34.9071 202.951 34.341Z" fill="#013D5B"/>
<path d="M187.162 31.6992C187.162 30.7179 187.338 29.8562 187.69 29.114C188.055 28.3592 188.558 27.7742 189.2 27.3591C189.841 26.9314 190.584 26.7175 191.426 26.7175C192.534 26.7175 193.433 27.0886 194.125 27.8308C194.829 28.5605 195.232 29.5606 195.333 30.8312H188.219C188.206 30.9821 188.2 31.1331 188.2 31.284C188.2 32.6552 188.533 33.7434 189.2 34.5485C189.879 35.3537 190.797 35.7562 191.955 35.7562C193.251 35.7562 194.226 35.2467 194.88 34.2277L195.163 34.3787C194.446 35.9009 193.244 36.662 191.559 36.662C190.678 36.662 189.904 36.4544 189.238 36.0393C188.583 35.6241 188.074 35.0454 187.709 34.3032C187.344 33.5484 187.162 32.6804 187.162 31.6992ZM189.238 28.0761C188.722 28.6297 188.395 29.3782 188.256 30.3217H194.106C193.98 29.3404 193.666 28.5856 193.163 28.0573C192.672 27.5163 192.037 27.2459 191.257 27.2459C190.439 27.2459 189.766 27.5226 189.238 28.0761Z" fill="#013D5B"/>
<path d="M175.316 36.077C175.845 35.9889 176.197 35.8506 176.373 35.6619C176.549 35.4732 176.637 35.1587 176.637 34.7184V28.9064C176.637 28.4284 176.549 28.1013 176.373 27.9252C176.21 27.7365 175.857 27.5981 175.316 27.51V27.227L177.354 26.9062C177.468 27.1326 177.543 27.3528 177.581 27.5666C177.631 27.7679 177.656 28.0321 177.656 28.3592C178.487 27.2647 179.6 26.7175 180.996 26.7175C182.078 26.7175 182.915 27.032 183.506 27.661C184.11 28.2774 184.412 29.158 184.412 30.3028V34.7184C184.412 35.1587 184.494 35.4732 184.657 35.6619C184.833 35.8506 185.192 35.9889 185.733 36.077V36.3601H182.015V36.077C182.556 35.9889 182.915 35.8506 183.091 35.6619C183.267 35.4732 183.355 35.1587 183.355 34.7184V30.3594C183.355 29.353 183.135 28.5919 182.695 28.0761C182.254 27.5478 181.613 27.2836 180.77 27.2836C179.814 27.2836 179.059 27.6107 178.505 28.2648C177.964 28.919 177.694 29.787 177.694 30.8689V34.7184C177.694 35.1587 177.776 35.4732 177.939 35.6619C178.115 35.8506 178.474 35.9889 179.015 36.077V36.3601H175.316V36.077Z" fill="#013D5B"/>
<path d="M170.028 36.077C170.556 35.9889 170.908 35.8505 171.084 35.6618C171.26 35.4731 171.348 35.1587 171.348 34.7184V28.8121C171.348 28.3718 171.254 28.0635 171.065 27.8874C170.889 27.6987 170.543 27.5792 170.028 27.5289V27.2647L172.311 26.9062L172.481 27.076C172.43 27.4786 172.405 27.8937 172.405 28.3214V34.7184C172.405 35.1587 172.487 35.4731 172.651 35.6618C172.827 35.8505 173.185 35.9889 173.726 36.077V36.36H170.028V36.077ZM170.877 23.736C170.877 23.4844 170.959 23.2769 171.122 23.1133C171.298 22.9498 171.506 22.868 171.745 22.868C171.996 22.868 172.198 22.9498 172.349 23.1133C172.512 23.2769 172.594 23.4844 172.594 23.736C172.594 23.9876 172.512 24.1952 172.349 24.3587C172.198 24.5097 171.996 24.5852 171.745 24.5852C171.506 24.5852 171.298 24.5097 171.122 24.3587C170.959 24.1952 170.877 23.9876 170.877 23.736Z" fill="#013D5B"/>
<path d="M167.127 34.341C167.127 33.8378 166.938 33.4163 166.561 33.0767C166.184 32.7244 165.517 32.3659 164.561 32.0011C163.416 31.5608 162.605 31.1205 162.127 30.6802C161.649 30.2273 161.41 29.699 161.41 29.0951C161.41 28.3781 161.699 27.8057 162.278 27.3779C162.856 26.9376 163.624 26.7175 164.58 26.7175C165.033 26.7175 165.517 26.7741 166.033 26.8873C166.561 26.988 167.052 27.1326 167.505 27.3213L167.863 29.6801L167.58 29.7556C167.228 28.8624 166.806 28.2208 166.316 27.8308C165.838 27.4283 165.228 27.227 164.485 27.227C163.831 27.227 163.322 27.3654 162.957 27.6421C162.592 27.9063 162.41 28.2837 162.41 28.7743C162.41 29.2398 162.605 29.6361 162.995 29.9631C163.385 30.2776 164.077 30.6299 165.07 31.0199C165.85 31.3218 166.46 31.6111 166.901 31.8879C167.341 32.1646 167.656 32.4603 167.844 32.7748C168.033 33.0893 168.127 33.4541 168.127 33.8692C168.127 34.6995 167.819 35.3725 167.203 35.8883C166.599 36.4041 165.8 36.662 164.806 36.662C164.303 36.662 163.762 36.5865 163.183 36.4355C162.617 36.2972 162.089 36.1022 161.598 35.8506L161.24 33.4541L161.523 33.3786C162.215 35.2279 163.347 36.1525 164.919 36.1525C165.611 36.1525 166.152 35.9952 166.542 35.6807C166.932 35.3537 167.127 34.9071 167.127 34.341Z" fill="#013D5B"/>
<path d="M150.575 33.0767V28.8121C150.575 28.3969 150.493 28.095 150.329 27.9063C150.166 27.705 149.814 27.5792 149.273 27.5289V27.2458L151.537 26.9062L151.726 27.0949C151.675 27.4849 151.65 27.9 151.65 28.3403V33.0201C151.65 34.0139 151.858 34.775 152.273 35.3033C152.701 35.8317 153.323 36.0959 154.141 36.0959C155.059 36.0959 155.795 35.7814 156.349 35.1524C156.902 34.5108 157.179 33.6553 157.179 32.5861V28.5101C157.179 28.1705 157.104 27.9315 156.953 27.7931C156.814 27.6421 156.481 27.5478 155.953 27.51V27.227L158.16 26.9062L158.311 27.076C158.261 27.4786 158.236 27.9063 158.236 28.3592V34.624C158.236 35.0895 158.324 35.4228 158.5 35.6241C158.689 35.8254 159.041 35.9764 159.557 36.077V36.36L157.519 36.5299C157.318 36.1776 157.217 35.7248 157.217 35.1712V34.9637C156.399 36.0959 155.292 36.662 153.896 36.662C152.839 36.662 152.021 36.3538 151.443 35.7373C150.864 35.1083 150.575 34.2214 150.575 33.0767Z" fill="#013D5B"/>
<path d="M138.076 36.0392C138.642 35.9512 139.013 35.8128 139.189 35.6241C139.378 35.4228 139.473 35.0832 139.473 34.6051V24.906C139.473 24.4279 139.378 24.0946 139.189 23.9059C139.013 23.7046 138.642 23.5599 138.076 23.4719V23.1511H142.228C143.888 23.1511 145.165 23.4278 146.058 23.9813C146.964 24.5223 147.417 25.3085 147.417 26.3401C147.417 27.8623 146.448 28.8687 144.511 29.3593C145.693 29.5354 146.599 29.9128 147.228 30.4915C147.87 31.0702 148.19 31.825 148.19 32.7559C148.19 33.9132 147.687 34.8064 146.681 35.4354C145.687 36.0518 144.266 36.36 142.416 36.36H138.076V36.0392ZM140.605 34.5674C140.605 35.0203 140.687 35.3411 140.85 35.5298C141.026 35.7185 141.347 35.8128 141.812 35.8128H142.416C145.461 35.8128 146.983 34.8442 146.983 32.9068C146.983 31.9256 146.605 31.1582 145.851 30.6047C145.108 30.0512 144.064 29.7744 142.718 29.7744H140.605V34.5674ZM146.247 26.5477C146.247 25.6796 145.882 24.9877 145.152 24.472C144.423 23.9562 143.404 23.6983 142.095 23.6983H140.605V29.2272H141.661C143.196 29.2272 144.341 28.9945 145.096 28.529C145.863 28.0635 146.247 27.4031 146.247 26.5477Z" fill="#013D5B"/>
<path d="M128.109 36.0581C128.789 35.9952 129.172 35.8506 129.261 35.6241C129.361 35.3851 129.273 35.0517 128.996 34.624L126.034 30.1141L122.996 34.624C122.719 35.0517 122.637 35.3851 122.75 35.6241C122.864 35.8506 123.21 35.9952 123.788 36.0581V36.36H120.373V36.0581C120.813 35.9952 121.153 35.8757 121.392 35.6996C121.643 35.5109 121.901 35.2278 122.165 34.8504L125.713 29.6235L122.43 24.604C122.191 24.2392 121.958 23.9751 121.731 23.8115C121.518 23.6354 121.184 23.5159 120.731 23.453V23.1511H124.826V23.453C124.096 23.5033 123.694 23.648 123.618 23.887C123.543 24.1134 123.644 24.4468 123.92 24.8871L126.543 28.8875L129.223 24.8871C129.525 24.4342 129.613 24.0946 129.487 23.8681C129.374 23.6291 128.996 23.4907 128.355 23.453V23.1511H131.865V23.453C131.563 23.4907 131.317 23.5473 131.129 23.6228C130.94 23.6983 130.764 23.8178 130.6 23.9813C130.449 24.1323 130.267 24.3587 130.053 24.6607L126.864 29.3782L130.506 34.9071C130.758 35.2719 130.99 35.536 131.204 35.6996C131.418 35.8505 131.751 35.9701 132.204 36.0581V36.36H128.109V36.0581Z" fill="#013D5B"/>
<path d="M106.596 31.6992C106.596 30.7179 106.772 29.8562 107.124 29.114C107.489 28.3592 107.992 27.7742 108.634 27.3591C109.275 26.9314 110.018 26.7175 110.861 26.7175C111.968 26.7175 112.867 27.0886 113.559 27.8308C114.263 28.5605 114.666 29.5606 114.767 30.8312H107.653C107.64 30.9821 107.634 31.1331 107.634 31.284C107.634 32.6552 107.967 33.7434 108.634 34.5485C109.313 35.3537 110.232 35.7562 111.389 35.7562C112.685 35.7562 113.66 35.2467 114.314 34.2277L114.597 34.3787C113.88 35.9009 112.678 36.662 110.993 36.662C110.112 36.662 109.338 36.4544 108.672 36.0393C108.017 35.6241 107.508 35.0454 107.143 34.3032C106.778 33.5484 106.596 32.6804 106.596 31.6992ZM108.672 28.0761C108.156 28.6297 107.829 29.3782 107.69 30.3217H113.54C113.414 29.3404 113.1 28.5856 112.597 28.0573C112.106 27.5163 111.471 27.2459 110.691 27.2459C109.873 27.2459 109.2 27.5226 108.672 28.0761Z" fill="#013D5B"/>
<path d="M98.4177 36.077C98.9461 36.0015 99.2983 35.8694 99.4744 35.6807C99.6506 35.492 99.7386 35.1712 99.7386 34.7184V28.8875C99.7386 28.4221 99.6568 28.1013 99.4933 27.9252C99.3298 27.7365 98.9712 27.5981 98.4177 27.51V27.227L100.456 26.9062C100.569 27.1452 100.644 27.3654 100.682 27.5666C100.732 27.7553 100.758 28.0007 100.758 28.3026C101.047 27.7994 101.412 27.4094 101.852 27.1326C102.305 26.8559 102.802 26.7175 103.343 26.7175C104.022 26.7175 104.664 26.9439 105.268 27.3968L105.456 29.7556L105.173 29.8122C104.909 28.9567 104.601 28.334 104.249 27.944C103.896 27.5415 103.462 27.3402 102.947 27.3402C102.292 27.3402 101.77 27.6421 101.38 28.246C100.99 28.8372 100.795 29.6423 100.795 30.6613V34.7184C100.795 35.1712 100.909 35.492 101.135 35.6807C101.374 35.8694 101.827 36.0015 102.494 36.077V36.3601H98.4177V36.077Z" fill="#013D5B"/>
<path d="M87.8469 33.0767V28.8121C87.8469 28.3969 87.7652 28.095 87.6016 27.9063C87.4381 27.705 87.0859 27.5792 86.5449 27.5289V27.2458L88.8093 26.9062L88.998 27.0949C88.9477 27.4849 88.9225 27.9 88.9225 28.3403V33.0201C88.9225 34.0139 89.1301 34.775 89.5452 35.3033C89.973 35.8317 90.5957 36.0959 91.4134 36.0959C92.3317 36.0959 93.0676 35.7814 93.6212 35.1524C94.1747 34.5108 94.4514 33.6553 94.4514 32.5861V28.5101C94.4514 28.1705 94.376 27.9315 94.225 27.7931C94.0866 27.6421 93.7532 27.5478 93.2249 27.51V27.227L95.4327 26.9062L95.5836 27.076C95.5333 27.4786 95.5082 27.9063 95.5082 28.3592V34.624C95.5082 35.0895 95.5962 35.4228 95.7723 35.6241C95.961 35.8254 96.3133 35.9764 96.829 36.077V36.36L94.7911 36.5299C94.5898 36.1776 94.4892 35.7248 94.4892 35.1712V34.9637C93.6715 36.0959 92.5644 36.662 91.1681 36.662C90.1113 36.662 89.2936 36.3538 88.715 35.7373C88.1363 35.1083 87.8469 34.2214 87.8469 33.0767Z" fill="#013D5B"/>
<path d="M79.4304 27.0194H80.7513V25.0569L81.7137 24.906L81.8835 25.0758C81.8332 25.4784 81.808 25.8935 81.808 26.3212V27.0194H84.8084V27.5289H81.808V34.2277C81.808 34.7687 81.9275 35.1838 82.1666 35.4732C82.4182 35.7625 82.7641 35.9072 83.2044 35.9072C83.7957 35.9072 84.2989 35.6052 84.714 35.0014L84.9782 35.1524C84.4876 36.1588 83.7642 36.662 82.8081 36.662C82.154 36.662 81.6445 36.4544 81.2797 36.0393C80.9274 35.6115 80.7513 35.0014 80.7513 34.2089V27.5289H79.4304V27.0194Z" fill="#013D5B"/>
<path d="M67.717 36.077C68.2454 35.9889 68.5976 35.8506 68.7738 35.6619C68.9499 35.4732 69.0379 35.1587 69.0379 34.7184V28.9064C69.0379 28.4284 68.9499 28.1013 68.7738 27.9252C68.6102 27.7365 68.258 27.5981 67.717 27.51V27.227L69.755 26.9062C69.8682 27.1326 69.9437 27.3528 69.9814 27.5666C70.0317 27.7679 70.0569 28.0321 70.0569 28.3592C70.8872 27.2647 72.0005 26.7175 73.3969 26.7175C74.4788 26.7175 75.3153 27.032 75.9066 27.661C76.5104 28.2774 76.8124 29.158 76.8124 30.3028V34.7184C76.8124 35.1587 76.8941 35.4732 77.0577 35.6619C77.2338 35.8506 77.5923 35.9889 78.1333 36.077V36.3601H74.4159V36.077C74.9568 35.9889 75.3153 35.8506 75.4915 35.6619C75.6676 35.4732 75.7556 35.1587 75.7556 34.7184V30.3594C75.7556 29.353 75.5355 28.5919 75.0952 28.0761C74.6549 27.5478 74.0133 27.2836 73.1705 27.2836C72.2144 27.2836 71.4596 27.6107 70.9061 28.2648C70.3651 28.919 70.0947 29.787 70.0947 30.8689V34.7184C70.0947 35.1587 70.1764 35.4732 70.34 35.6619C70.5161 35.8506 70.8746 35.9889 71.4156 36.077V36.3601H67.717V36.077Z" fill="#013D5B"/>
<path d="M57.9099 31.6992C57.9099 30.7179 58.086 29.8562 58.4383 29.114C58.8031 28.3592 59.3063 27.7742 59.9479 27.3591C60.5894 26.9314 61.3317 26.7175 62.1745 26.7175C63.2816 26.7175 64.181 27.0886 64.8729 27.8308C65.5774 28.5605 65.98 29.5606 66.0806 30.8312H58.9666C58.954 30.9821 58.9478 31.1331 58.9478 31.284C58.9478 32.6552 59.2811 33.7434 59.9479 34.5485C60.6272 35.3537 61.5455 35.7562 62.7029 35.7562C63.9986 35.7562 64.9736 35.2467 65.6277 34.2277L65.9108 34.3787C65.1937 35.9009 63.9923 36.662 62.3066 36.662C61.426 36.662 60.6523 36.4544 59.9856 36.0393C59.3314 35.6241 58.822 35.0454 58.4571 34.3032C58.0923 33.5484 57.9099 32.6804 57.9099 31.6992ZM59.9856 28.0761C59.4698 28.6297 59.1428 29.3782 59.0044 30.3217H64.8541C64.7283 29.3404 64.4138 28.5856 63.9106 28.0573C63.4199 27.5163 62.7847 27.2459 62.0047 27.2459C61.187 27.2459 60.514 27.5226 59.9856 28.0761Z" fill="#013D5B"/>
<path d="M45.3906 23.1511H49.4665V23.453C48.8124 23.5033 48.3972 23.6417 48.2211 23.8681C48.045 24.0946 48.0387 24.4091 48.2022 24.8116L52.1461 34.7938L56.071 24.8871C56.2471 24.4468 56.2346 24.1071 56.0333 23.8681C55.8446 23.6291 55.4294 23.4907 54.7879 23.453V23.1511H58.2788V23.453C57.8385 23.5033 57.5177 23.6291 57.3164 23.8304C57.1152 24.0191 56.9202 24.3525 56.7315 24.8305L51.9951 36.5487H51.6555L46.938 24.8305C46.7367 24.3525 46.5417 24.0191 46.353 23.8304C46.1643 23.6417 45.8435 23.5159 45.3906 23.453V23.1511Z" fill="#013D5B"/>
<path d="M29.4221 36.077C29.9505 35.9889 30.3027 35.8506 30.4788 35.6619C30.655 35.4732 30.743 35.1524 30.743 34.6995V23.9247C30.743 23.4844 30.6487 23.1762 30.46 23.0001C30.2838 22.8114 29.9379 22.6919 29.4221 22.6416V22.3585L31.7054 22L31.8752 22.1698C31.8249 22.5724 31.7997 22.9938 31.7997 23.4341V28.3026C32.6174 27.2459 33.7182 26.7175 35.102 26.7175C36.1839 26.7175 37.0204 27.032 37.6117 27.661C38.2155 28.2774 38.5174 29.158 38.5174 30.3028V34.7184C38.5174 35.1587 38.5992 35.4732 38.7628 35.6619C38.9389 35.8506 39.2974 35.9889 39.8383 36.077V36.36H36.121V36.077C36.6619 35.9889 37.0204 35.8506 37.1965 35.6619C37.3727 35.4732 37.4607 35.1587 37.4607 34.7184V30.3594C37.4607 29.353 37.2406 28.5919 36.8003 28.0761C36.36 27.5478 35.7184 27.2836 34.8755 27.2836C33.9195 27.2836 33.1647 27.6107 32.6111 28.2648C32.0702 28.919 31.7997 29.787 31.7997 30.8689V34.7561C31.7997 35.1964 31.8815 35.5109 32.045 35.6996C32.2212 35.8757 32.5797 36.0015 33.1206 36.077V36.36H29.4221V36.077Z" fill="#013D5B"/>
<path d="M22.1755 27.0194H23.4964V25.0569L24.4588 24.906L24.6286 25.0758C24.5783 25.4784 24.5532 25.8935 24.5532 26.3212V27.0194H27.5535V27.5289H24.5532V34.2277C24.5532 34.7687 24.6727 35.1838 24.9117 35.4732C25.1633 35.7625 25.5092 35.9072 25.9495 35.9072C26.5408 35.9072 27.044 35.6052 27.4591 35.0014L27.7233 35.1524C27.2327 36.1588 26.5093 36.662 25.5533 36.662C24.8991 36.662 24.3896 36.4544 24.0248 36.0393C23.6726 35.6115 23.4964 35.0014 23.4964 34.2089V27.5289H22.1755V27.0194Z" fill="#013D5B"/>
<path d="M17.1699 36.077C17.6983 35.9889 18.0505 35.8505 18.2266 35.6618C18.4028 35.4731 18.4908 35.1587 18.4908 34.7184V28.8121C18.4908 28.3718 18.3965 28.0635 18.2078 27.8874C18.0317 27.6987 17.6857 27.5792 17.1699 27.5289V27.2647L19.4532 26.9062L19.623 27.076C19.5727 27.4786 19.5475 27.8937 19.5475 28.3214V34.7184C19.5475 35.1587 19.6293 35.4731 19.7928 35.6618C19.969 35.8505 20.3275 35.9889 20.8684 36.077V36.36H17.1699V36.077ZM18.0191 23.736C18.0191 23.4844 18.1008 23.2769 18.2644 23.1133C18.4405 22.9498 18.6481 22.868 18.8871 22.868C19.1387 22.868 19.34 22.9498 19.4909 23.1133C19.6545 23.2769 19.7362 23.4844 19.7362 23.736C19.7362 23.9876 19.6545 24.1952 19.4909 24.3587C19.34 24.5097 19.1387 24.5852 18.8871 24.5852C18.6481 24.5852 18.4405 24.5097 18.2644 24.3587C18.1008 24.1952 18.0191 23.9876 18.0191 23.736Z" fill="#013D5B"/>
<path d="M0 27.0194H3.77399V27.3025C3.17015 27.3528 2.79905 27.4723 2.66067 27.661C2.53487 27.8371 2.55374 28.1453 2.71728 28.5856L5.17037 34.9071L7.68008 28.5101L7.56686 28.2082C7.44106 27.9063 7.28381 27.6924 7.09511 27.5666C6.90641 27.4408 6.60449 27.3528 6.18935 27.3025V27.0194H9.96334V27.3025C9.3595 27.3528 8.98839 27.4723 8.85001 27.661C8.72421 27.8371 8.74308 28.1453 8.90662 28.5856L11.3786 34.9259L13.8506 28.5856C14.0267 28.1453 14.0455 27.8371 13.9072 27.661C13.7688 27.4723 13.3977 27.3528 12.7938 27.3025V27.0194H15.9451V27.3025C15.5426 27.3528 15.2469 27.4408 15.0582 27.5666C14.8695 27.6924 14.7123 27.9063 14.5865 28.2082L11.2276 36.5487H10.9068L7.982 29.2272L5.03828 36.5487H4.71749L1.35864 28.2082C1.24542 27.9063 1.09446 27.6924 0.905758 27.5666C0.717059 27.4408 0.415139 27.3528 0 27.3025V27.0194Z" fill="#013D5B"/>
<path d="M209.113 12.341C209.113 11.8378 208.924 11.4163 208.547 11.0767C208.17 10.7244 207.503 10.3659 206.547 10.0011C205.402 9.56079 204.591 9.12049 204.113 8.68019C203.635 8.22731 203.396 7.69895 203.396 7.09511C203.396 6.37806 203.685 5.80567 204.264 5.37795C204.842 4.93765 205.61 4.7175 206.566 4.7175C207.019 4.7175 207.503 4.77411 208.019 4.88733C208.547 4.98797 209.038 5.13264 209.491 5.32134L209.849 7.68008L209.566 7.75556C209.214 6.86239 208.792 6.22081 208.302 5.83083C207.824 5.42827 207.214 5.22699 206.471 5.22699C205.817 5.22699 205.308 5.36537 204.943 5.64213C204.578 5.90631 204.396 6.28371 204.396 6.77433C204.396 7.23978 204.591 7.63605 204.981 7.96313C205.371 8.27763 206.062 8.62987 207.056 9.01985C207.836 9.32177 208.446 9.61111 208.887 9.88787C209.327 10.1646 209.642 10.4603 209.83 10.7748C210.019 11.0893 210.113 11.4541 210.113 11.8692C210.113 12.6995 209.805 13.3725 209.189 13.8883C208.585 14.4041 207.786 14.662 206.792 14.662C206.289 14.662 205.748 14.5865 205.169 14.4355C204.603 14.2972 204.075 14.1022 203.584 13.8506L203.226 11.4541L203.509 11.3786C204.201 13.2279 205.333 14.1525 206.905 14.1525C207.597 14.1525 208.138 13.9952 208.528 13.6807C208.918 13.3537 209.113 12.9071 209.113 12.341Z" fill="#013D5B"/>
<path d="M193.324 9.69917C193.324 8.71793 193.5 7.8562 193.853 7.11398C194.217 6.35919 194.721 5.77422 195.362 5.35908C196.004 4.93136 196.746 4.7175 197.589 4.7175C198.696 4.7175 199.595 5.08861 200.287 5.83083C200.992 6.56047 201.394 7.56057 201.495 8.83115H194.381C194.368 8.98211 194.362 9.13307 194.362 9.28403C194.362 10.6552 194.695 11.7434 195.362 12.5485C196.042 13.3537 196.96 13.7562 198.117 13.7562C199.413 13.7562 200.388 13.2467 201.042 12.2277L201.325 12.3787C200.608 13.9009 199.407 14.662 197.721 14.662C196.84 14.662 196.067 14.4544 195.4 14.0393C194.746 13.6241 194.236 13.0454 193.871 12.3032C193.507 11.5484 193.324 10.6804 193.324 9.69917ZM195.4 6.07614C194.884 6.62966 194.557 7.37816 194.419 8.32166H200.268C200.143 7.34042 199.828 6.58563 199.325 6.05727C198.834 5.51633 198.199 5.24586 197.419 5.24586C196.601 5.24586 195.928 5.52262 195.4 6.07614Z" fill="#013D5B"/>
<path d="M188.184 14.077C188.725 13.9889 189.078 13.8506 189.241 13.6619C189.417 13.4732 189.505 13.1587 189.505 12.7184V1.92474C189.505 1.48444 189.411 1.17623 189.222 1.00011C189.046 0.811409 188.7 0.691898 188.184 0.641578V0.358529L190.468 0L190.637 0.16983C190.587 0.559809 190.562 0.974948 190.562 1.41525V12.7184C190.562 13.1587 190.644 13.4732 190.807 13.6619C190.983 13.8506 191.342 13.9889 191.883 14.077V14.36H188.184V14.077Z" fill="#013D5B"/>
<path d="M182.99 14.077C183.518 13.9889 183.87 13.8505 184.046 13.6618C184.223 13.4731 184.311 13.1586 184.311 12.7183V6.81205C184.311 6.37175 184.216 6.06354 184.028 5.88742C183.851 5.69872 183.506 5.57921 182.99 5.52889V5.26471L185.273 4.90618L185.443 5.07601C185.393 5.47857 185.367 5.89371 185.367 6.32143V12.7183C185.367 13.1586 185.449 13.4731 185.613 13.6618C185.789 13.8505 186.147 13.9889 186.688 14.077V14.36H182.99V14.077ZM183.839 1.73603C183.839 1.48443 183.921 1.27686 184.084 1.11332C184.26 0.949781 184.468 0.868011 184.707 0.868011C184.959 0.868011 185.16 0.949781 185.311 1.11332C185.474 1.27686 185.556 1.48443 185.556 1.73603C185.556 1.98763 185.474 2.1952 185.311 2.35874C185.16 2.5097 184.959 2.58518 184.707 2.58518C184.468 2.58518 184.26 2.5097 184.084 2.35874C183.921 2.1952 183.839 1.98763 183.839 1.73603Z" fill="#013D5B"/>
<path d="M164.82 14.077C165.348 13.9889 165.701 13.8506 165.877 13.6619C166.053 13.4732 166.141 13.1587 166.141 12.7184V6.90642C166.141 6.42838 166.053 6.1013 165.877 5.92518C165.713 5.73648 165.361 5.5981 164.82 5.51004V5.22699L166.858 4.9062C166.971 5.12006 167.047 5.32763 167.084 5.52891C167.135 5.73019 167.16 5.99437 167.16 6.32145C167.94 5.25215 168.997 4.7175 170.33 4.7175C171.097 4.7175 171.739 4.89362 172.255 5.24586C172.783 5.5981 173.148 6.09501 173.349 6.73659C174.142 5.39053 175.287 4.7175 176.784 4.7175C177.84 4.7175 178.652 5.032 179.218 5.661C179.797 6.27742 180.086 7.15801 180.086 8.30279V12.7184C180.086 13.1587 180.174 13.4732 180.35 13.6619C180.526 13.8506 180.878 13.9889 181.407 14.077V14.3601H177.708V14.077C178.249 13.9889 178.601 13.8506 178.765 13.6619C178.941 13.4732 179.029 13.1587 179.029 12.7184V8.3594C179.029 7.353 178.815 6.59192 178.388 6.07614C177.972 5.54778 177.356 5.2836 176.538 5.2836C175.633 5.2836 174.922 5.61068 174.406 6.26484C173.903 6.91899 173.651 7.78701 173.651 8.86889V12.6995C173.651 13.1524 173.733 13.4732 173.897 13.6619C174.073 13.8506 174.431 13.9889 174.972 14.077V14.3601H171.255V14.077C171.796 13.9889 172.148 13.8506 172.311 13.6619C172.488 13.4732 172.576 13.1587 172.576 12.7184V8.3594C172.576 7.353 172.362 6.59192 171.934 6.07614C171.519 5.54778 170.902 5.2836 170.085 5.2836C169.192 5.2836 168.487 5.61068 167.971 6.26484C167.456 6.91899 167.198 7.78701 167.198 8.86889V12.6995C167.198 13.1524 167.279 13.4732 167.443 13.6619C167.619 13.8506 167.978 13.9889 168.519 14.077V14.3601H164.82V14.077Z" fill="#013D5B"/>
<path d="M154.948 14.0581C155.627 13.9952 156.011 13.8505 156.099 13.6241C156.2 13.3851 156.112 13.0517 155.835 12.624L152.872 8.11408L149.834 12.624C149.557 13.0517 149.476 13.3851 149.589 13.6241C149.702 13.8505 150.048 13.9952 150.627 14.0581V14.36H147.211V14.0581C147.651 13.9952 147.991 13.8757 148.23 13.6996C148.482 13.5109 148.74 13.2278 149.004 12.8504L152.551 7.62346L149.268 2.60405C149.029 2.23923 148.796 1.97505 148.57 1.81151C148.356 1.63539 148.023 1.51588 147.57 1.45298V1.15106H151.664V1.45298C150.935 1.5033 150.532 1.64797 150.457 1.88699C150.381 2.11343 150.482 2.4468 150.759 2.8871L153.382 6.88753L156.061 2.8871C156.363 2.43422 156.451 2.09456 156.325 1.86812C156.212 1.6291 155.835 1.49072 155.193 1.45298V1.15106H158.703V1.45298C158.401 1.49072 158.156 1.54733 157.967 1.62281C157.778 1.69829 157.602 1.8178 157.439 1.98134C157.288 2.1323 157.105 2.35874 156.891 2.66066L153.702 7.37815L157.344 12.9071C157.596 13.2719 157.829 13.536 158.043 13.6996C158.256 13.8505 158.59 13.9701 159.043 14.0581V14.36H154.948V14.0581Z" fill="#013D5B"/>
<path d="M143.851 4.07591C143.851 3.29595 143.618 2.6984 143.152 2.28326C142.687 1.85554 142.102 1.64168 141.398 1.64168C140.567 1.64168 139.888 1.90586 139.36 2.43422C138.844 2.95 138.416 3.78028 138.076 4.92506L137.775 4.86845L138.171 1.98134C138.724 1.71716 139.297 1.51588 139.888 1.3775C140.479 1.22654 141.045 1.15106 141.586 1.15106C142.668 1.15106 143.517 1.41524 144.134 1.9436C144.75 2.47196 145.058 3.22047 145.058 4.18913C145.058 4.65459 144.92 5.16407 144.643 5.71759C144.366 6.25853 143.926 6.90011 143.322 7.64233C142.718 8.37197 141.926 9.27773 140.945 10.3596L138.284 13.3599H143.436C143.914 13.3599 144.285 13.3096 144.549 13.209C144.826 13.1083 145.052 12.9071 145.228 12.6051C145.404 12.3032 145.587 11.8566 145.775 11.2654L146.077 11.322L145.624 14.36H137.227L137.095 14.0581L140.492 9.9256C141.297 8.95694 141.945 8.14553 142.435 7.49137C142.926 6.82463 143.285 6.22708 143.511 5.69872C143.737 5.17036 143.851 4.62943 143.851 4.07591Z" fill="#013D5B"/>
<path d="M121.585 9.83125C121.585 8.82485 121.774 7.93796 122.151 7.17059C122.529 6.40321 123.051 5.80566 123.718 5.37794C124.397 4.93764 125.17 4.71749 126.039 4.71749C126.617 4.71749 127.177 4.81813 127.718 5.01941C128.259 5.22069 128.731 5.49745 129.133 5.84969V1.90587C129.133 1.46557 129.039 1.15736 128.85 0.981238C128.674 0.792538 128.328 0.673029 127.812 0.622709V0.339659L130.096 0L130.265 0.16983C130.215 0.559809 130.19 0.974948 130.19 1.41525V12.624C130.19 13.0895 130.278 13.4228 130.454 13.6241C130.643 13.8254 130.995 13.9764 131.511 14.077V14.36L129.473 14.5299C129.272 14.1776 129.171 13.7248 129.171 13.1712V13.0391C128.353 14.121 127.252 14.662 125.869 14.662C125.001 14.662 124.246 14.4607 123.604 14.0581C122.963 13.643 122.466 13.0769 122.114 12.3598C121.761 11.6302 121.585 10.7873 121.585 9.83125ZM122.699 9.47272C122.699 10.3911 122.843 11.1962 123.133 11.8881C123.422 12.58 123.824 13.1209 124.34 13.5109C124.856 13.9009 125.454 14.0959 126.133 14.0959C127.026 14.0959 127.749 13.7688 128.303 13.1146C128.856 12.4605 129.133 11.5987 129.133 10.5294V8.32165C129.133 7.74298 128.989 7.2272 128.699 6.77432C128.422 6.30886 128.039 5.93775 127.548 5.66099C127.057 5.38423 126.51 5.24585 125.906 5.24585C124.925 5.24585 124.145 5.62325 123.567 6.37805C122.988 7.13285 122.699 8.16441 122.699 9.47272Z" fill="#013D5B"/>
<path d="M111.929 9.69917C111.929 8.71793 112.105 7.8562 112.458 7.11398C112.822 6.35919 113.326 5.77422 113.967 5.35908C114.609 4.93136 115.351 4.7175 116.194 4.7175C117.301 4.7175 118.2 5.08861 118.892 5.83083C119.597 6.56047 119.999 7.56057 120.1 8.83115H112.986C112.973 8.98211 112.967 9.13307 112.967 9.28403C112.967 10.6552 113.3 11.7434 113.967 12.5485C114.646 13.3537 115.565 13.7562 116.722 13.7562C118.018 13.7562 118.993 13.2467 119.647 12.2277L119.93 12.3787C119.213 13.9009 118.012 14.662 116.326 14.662C115.445 14.662 114.672 14.4544 114.005 14.0393C113.351 13.6241 112.841 13.0454 112.476 12.3032C112.112 11.5484 111.929 10.6804 111.929 9.69917ZM114.005 6.07614C113.489 6.62966 113.162 7.37816 113.024 8.32166H118.873C118.748 7.34042 118.433 6.58563 117.93 6.05727C117.439 5.51633 116.804 5.24586 116.024 5.24586C115.206 5.24586 114.533 5.52262 114.005 6.07614Z" fill="#013D5B"/>
<path d="M104.924 5.01941H106.244V3.05694L107.207 2.90598L107.377 3.07581C107.326 3.47836 107.301 3.8935 107.301 4.32122V5.01941H110.302V5.5289H107.301V12.2277C107.301 12.7687 107.421 13.1838 107.66 13.4732C107.911 13.7625 108.257 13.9072 108.698 13.9072C109.289 13.9072 109.792 13.6052 110.207 13.0014L110.471 13.1524C109.981 14.1588 109.257 14.662 108.301 14.662C107.647 14.662 107.138 14.4544 106.773 14.0393C106.421 13.6115 106.244 13.0014 106.244 12.2089V5.5289H104.924V5.01941Z" fill="#013D5B"/>
<path d="M99.9177 14.077C100.446 13.9889 100.798 13.8505 100.974 13.6618C101.151 13.4731 101.239 13.1586 101.239 12.7183V6.81205C101.239 6.37175 101.144 6.06354 100.956 5.88742C100.779 5.69872 100.434 5.57921 99.9177 5.52889V5.26471L102.201 4.90618L102.371 5.07601C102.32 5.47857 102.295 5.89371 102.295 6.32143V12.7183C102.295 13.1586 102.377 13.4731 102.541 13.6618C102.717 13.8505 103.075 13.9889 103.616 14.077V14.36H99.9177V14.077ZM100.767 1.73603C100.767 1.48443 100.849 1.27686 101.012 1.11332C101.188 0.949781 101.396 0.868011 101.635 0.868011C101.886 0.868011 102.088 0.949781 102.239 1.11332C102.402 1.27686 102.484 1.48443 102.484 1.73603C102.484 1.98763 102.402 2.1952 102.239 2.35874C102.088 2.5097 101.886 2.58518 101.635 2.58518C101.396 2.58518 101.188 2.5097 101.012 2.35874C100.849 2.1952 100.767 1.98763 100.767 1.73603Z" fill="#013D5B"/>
<path d="M81.748 14.077C82.2764 13.9889 82.6286 13.8506 82.8048 13.6619C82.9809 13.4732 83.0689 13.1587 83.0689 12.7184V6.90642C83.0689 6.42838 82.9809 6.1013 82.8048 5.92518C82.6412 5.73648 82.289 5.5981 81.748 5.51004V5.22699L83.786 4.9062C83.8992 5.12006 83.9747 5.32763 84.0124 5.52891C84.0628 5.73019 84.0879 5.99437 84.0879 6.32145C84.8679 5.25215 85.9246 4.7175 87.2581 4.7175C88.0255 4.7175 88.667 4.89362 89.1828 5.24586C89.7112 5.5981 90.076 6.09501 90.2773 6.73659C91.0698 5.39053 92.2146 4.7175 93.7116 4.7175C94.7683 4.7175 95.5797 5.032 96.1458 5.661C96.7245 6.27742 97.0138 7.15801 97.0138 8.30279V12.7184C97.0138 13.1587 97.1019 13.4732 97.278 13.6619C97.4541 13.8506 97.8064 13.9889 98.3347 14.077V14.3601H94.6362V14.077C95.1772 13.9889 95.5294 13.8506 95.6929 13.6619C95.8691 13.4732 95.9571 13.1587 95.9571 12.7184V8.3594C95.9571 7.353 95.7433 6.59192 95.3156 6.07614C94.9004 5.54778 94.284 5.2836 93.4663 5.2836C92.5605 5.2836 91.8498 5.61068 91.334 6.26484C90.8308 6.91899 90.5792 7.78701 90.5792 8.86889V12.6995C90.5792 13.1524 90.661 13.4732 90.8245 13.6619C91.0006 13.8506 91.3591 13.9889 91.9001 14.077V14.3601H88.1827V14.077C88.7236 13.9889 89.0759 13.8506 89.2394 13.6619C89.4155 13.4732 89.5036 13.1587 89.5036 12.7184V8.3594C89.5036 7.353 89.2897 6.59192 88.862 6.07614C88.4469 5.54778 87.8305 5.2836 87.0128 5.2836C86.1196 5.2836 85.4151 5.61068 84.8993 6.26484C84.3836 6.91899 84.1257 7.78701 84.1257 8.86889V12.6995C84.1257 13.1524 84.2074 13.4732 84.371 13.6619C84.5471 13.8506 84.9056 13.9889 85.4466 14.077V14.3601H81.748V14.077Z" fill="#013D5B"/>
<path d="M76.4592 14.077C76.9876 13.9889 77.3398 13.8505 77.5159 13.6618C77.6921 13.4731 77.7801 13.1586 77.7801 12.7183V6.81205C77.7801 6.37175 77.6858 6.06354 77.4971 5.88742C77.321 5.69872 76.975 5.57921 76.4592 5.52889V5.26471L78.7425 4.90618L78.9123 5.07601C78.862 5.47857 78.8368 5.89371 78.8368 6.32143V12.7183C78.8368 13.1586 78.9186 13.4731 79.0822 13.6618C79.2583 13.8505 79.6168 13.9889 80.1577 14.077V14.36H76.4592V14.077ZM77.3084 1.73603C77.3084 1.48443 77.3901 1.27686 77.5537 1.11332C77.7298 0.949781 77.9374 0.868011 78.1764 0.868011C78.428 0.868011 78.6293 0.949781 78.7802 1.11332C78.9438 1.27686 79.0255 1.48443 79.0255 1.73603C79.0255 1.98763 78.9438 2.1952 78.7802 2.35874C78.6293 2.5097 78.428 2.58518 78.1764 2.58518C77.9374 2.58518 77.7298 2.5097 77.5537 2.35874C77.3901 2.1952 77.3084 1.98763 77.3084 1.73603Z" fill="#013D5B"/>
<path d="M71.1685 14.077C71.7094 13.9889 72.0616 13.8506 72.2252 13.6619C72.4013 13.4732 72.4894 13.1587 72.4894 12.7184V1.92474C72.4894 1.48444 72.395 1.17623 72.2063 1.00011C72.0302 0.811409 71.6842 0.691898 71.1685 0.641578V0.358529L73.4517 0L73.6216 0.16983C73.5712 0.559809 73.5461 0.974948 73.5461 1.41525V12.7184C73.5461 13.1587 73.6278 13.4732 73.7914 13.6619C73.9675 13.8506 74.326 13.9889 74.867 14.077V14.36H71.1685V14.077Z" fill="#013D5B"/>
<path d="M59.2664 14.077C59.7947 13.9889 60.147 13.8506 60.3231 13.6619C60.4992 13.4732 60.5873 13.1587 60.5873 12.7184V6.90642C60.5873 6.42838 60.4992 6.1013 60.3231 5.92518C60.1595 5.73648 59.8073 5.5981 59.2664 5.51004V5.22699L61.3043 4.9062C61.4175 5.13264 61.493 5.35279 61.5308 5.56665C61.5811 5.76793 61.6062 6.03211 61.6062 6.35919C62.4365 5.26473 63.5498 4.7175 64.9462 4.7175C66.0281 4.7175 66.8647 5.032 67.4559 5.661C68.0598 6.27742 68.3617 7.15801 68.3617 8.30279V12.7184C68.3617 13.1587 68.4435 13.4732 68.607 13.6619C68.7831 13.8506 69.1416 13.9889 69.6826 14.077V14.3601H65.9652V14.077C66.5061 13.9889 66.8647 13.8506 67.0408 13.6619C67.2169 13.4732 67.305 13.1587 67.305 12.7184V8.3594C67.305 7.353 67.0848 6.59192 66.6445 6.07614C66.2042 5.54778 65.5626 5.2836 64.7198 5.2836C63.7637 5.2836 63.0089 5.61068 62.4554 6.26484C61.9144 6.91899 61.644 7.78701 61.644 8.86889V12.7184C61.644 13.1587 61.7257 13.4732 61.8893 13.6619C62.0654 13.8506 62.4239 13.9889 62.9649 14.077V14.3601H59.2664V14.077Z" fill="#013D5B"/>
<path d="M48.6956 11.0767V6.81206C48.6956 6.39692 48.6138 6.095 48.4503 5.9063C48.2867 5.70502 47.9345 5.57922 47.3936 5.5289V5.24585L49.658 4.90619L49.8467 5.09489C49.7963 5.48487 49.7712 5.90001 49.7712 6.34031V11.0201C49.7712 12.0139 49.9787 12.775 50.3939 13.3033C50.8216 13.8317 51.4443 14.0959 52.262 14.0959C53.1803 14.0959 53.9163 13.7814 54.4698 13.1524C55.0233 12.5108 55.3001 11.6553 55.3001 10.586V6.51014C55.3001 6.17048 55.2246 5.93146 55.0736 5.79308C54.9353 5.64212 54.6019 5.54777 54.0735 5.51003V5.22698L56.2813 4.90619L56.4323 5.07602C56.382 5.47858 56.3568 5.9063 56.3568 6.35918V12.624C56.3568 13.0895 56.4448 13.4228 56.621 13.6241C56.8097 13.8254 57.1619 13.9764 57.6777 14.077V14.36L55.6397 14.5299C55.4385 14.1776 55.3378 13.7248 55.3378 13.1712V12.9637C54.5201 14.0959 53.4131 14.662 52.0167 14.662C50.96 14.662 50.1423 14.3538 49.5636 13.7373C48.9849 13.1083 48.6956 12.2214 48.6956 11.0767Z" fill="#013D5B"/>
<path d="M31.2009 14.077C31.7293 13.9889 32.0815 13.8506 32.2576 13.6619C32.4338 13.4732 32.5218 13.1587 32.5218 12.7184V6.90642C32.5218 6.42838 32.4338 6.1013 32.2576 5.92518C32.0941 5.73648 31.7419 5.5981 31.2009 5.51004V5.22699L33.2389 4.9062C33.3521 5.13264 33.4276 5.35279 33.4653 5.56665C33.5156 5.76793 33.5408 6.03211 33.5408 6.35919C34.3711 5.26473 35.4844 4.7175 36.8808 4.7175C37.9627 4.7175 38.7992 5.032 39.3905 5.661C39.9943 6.27742 40.2963 7.15801 40.2963 8.30279V12.7184C40.2963 13.1587 40.378 13.4732 40.5416 13.6619C40.7177 13.8506 41.0762 13.9889 41.6171 14.077V14.3601H37.8998V14.077C38.4407 13.9889 38.7992 13.8506 38.9754 13.6619C39.1515 13.4732 39.2395 13.1587 39.2395 12.7184V8.3594C39.2395 7.353 39.0194 6.59192 38.5791 6.07614C38.1388 5.54778 37.4972 5.2836 36.6543 5.2836C35.6983 5.2836 34.9435 5.61068 34.39 6.26484C33.849 6.91899 33.5785 7.78701 33.5785 8.86889V12.7184C33.5785 13.1587 33.6603 13.4732 33.8239 13.6619C34 13.8506 34.3585 13.9889 34.8994 14.077V14.3601H31.2009V14.077Z" fill="#013D5B"/>
<path d="M22.8716 14.077C23.3999 14.0015 23.7522 13.8694 23.9283 13.6807C24.1044 13.492 24.1925 13.1712 24.1925 12.7184V6.88754C24.1925 6.42209 24.1107 6.1013 23.9472 5.92518C23.7836 5.73648 23.4251 5.5981 22.8716 5.51004V5.22699L24.9095 4.9062C25.0228 5.14522 25.0982 5.36537 25.136 5.56665C25.1863 5.75535 25.2115 6.00066 25.2115 6.30258C25.5008 5.79938 25.8656 5.4094 26.3059 5.13264C26.7588 4.85588 27.2557 4.7175 27.7966 4.7175C28.476 4.7175 29.1175 4.94394 29.7214 5.39682L29.9101 7.75556L29.627 7.81217C29.3629 6.95673 29.0546 6.33403 28.7024 5.94405C28.3502 5.54149 27.9162 5.34021 27.4004 5.34021C26.7462 5.34021 26.2241 5.64213 25.8342 6.24597C25.4442 6.83723 25.2492 7.64234 25.2492 8.66132V12.7184C25.2492 13.1712 25.3624 13.492 25.5889 13.6807C25.8279 13.8694 26.2808 14.0015 26.9475 14.077V14.3601H22.8716V14.077Z" fill="#013D5B"/>
<path d="M12.7417 12.1523C12.7417 11.2465 13.1568 10.5232 13.9871 9.98222C14.8174 9.4287 15.9181 9.15194 17.2894 9.15194C17.5913 9.15194 17.8932 9.17081 18.1951 9.20855C18.497 9.23371 18.799 9.27774 19.1009 9.34064V8.30279C19.1009 7.30897 18.8744 6.54789 18.4216 6.01953C17.9813 5.49117 17.3334 5.22699 16.478 5.22699C15.1193 5.22699 14.1381 6.08872 13.5342 7.81217L13.2512 7.73669L13.6097 5.39682C14.6664 4.94394 15.6728 4.7175 16.6289 4.7175C17.7611 4.7175 18.6291 5.02571 19.233 5.64213C19.8494 6.25855 20.1576 7.14543 20.1576 8.30279V12.9637C20.1576 13.6053 20.3966 13.926 20.8747 13.926C21.0885 13.926 21.2835 13.838 21.4596 13.6619L21.6861 13.8317C21.4093 14.2972 20.9942 14.5299 20.4406 14.5299C20.0758 14.5299 19.7802 14.4167 19.5538 14.1902C19.3399 13.9512 19.2078 13.6304 19.1575 13.2279C18.3398 14.1839 17.3145 14.662 16.0817 14.662C15.0501 14.662 14.2324 14.4355 13.6286 13.9827C13.0373 13.5298 12.7417 12.9196 12.7417 12.1523ZM13.8739 12.039C13.8739 12.6806 14.094 13.1838 14.5343 13.5486C14.9746 13.9135 15.5785 14.0959 16.3459 14.0959C17.1636 14.0959 17.824 13.8254 18.3272 13.2845C18.843 12.7435 19.1009 11.9699 19.1009 10.9635V9.83126C18.8493 9.78094 18.5914 9.7432 18.3272 9.71804C18.0756 9.69288 17.8051 9.6803 17.5158 9.6803C16.3584 9.6803 15.459 9.88787 14.8174 10.303C14.1884 10.7181 13.8739 11.2968 13.8739 12.039Z" fill="#013D5B"/>
<path d="M1 14.0393C1.5661 13.9512 1.93721 13.8128 2.11333 13.6241C2.30203 13.4228 2.39638 13.0832 2.39638 12.6051V2.90598C2.39638 2.42794 2.30203 2.09457 2.11333 1.90587C1.93721 1.70459 1.5661 1.55992 1 1.47186V1.15107H7.37805C7.98189 1.15107 8.46622 1.14478 8.83104 1.1322C9.19586 1.10704 9.54809 1.0693 9.88775 1.01898L10.3784 4.24575L10.0387 4.32123C9.81227 3.57901 9.58583 3.02549 9.3594 2.66067C9.13296 2.28327 8.84991 2.03167 8.51025 1.90587C8.18317 1.76749 7.73029 1.6983 7.15161 1.6983H3.52858V7.26494H6.77421C7.31515 7.26494 7.68626 7.1643 7.88754 6.96302C8.1014 6.76174 8.27123 6.34031 8.39703 5.69873H8.68008V9.34064H8.39703C8.32155 8.91292 8.22091 8.59213 8.09511 8.37827C7.98189 8.15183 7.82464 8.00087 7.62336 7.92539C7.42208 7.83733 7.13903 7.7933 6.77421 7.7933H3.52858V12.5674C3.52858 13.0203 3.61664 13.3411 3.79275 13.5298C3.96887 13.7185 4.27708 13.8128 4.71738 13.8128H7.11387C7.75545 13.8128 8.26494 13.7373 8.64234 13.5864C9.01974 13.4354 9.34052 13.1398 9.6047 12.6995C9.86888 12.2592 10.1394 11.5987 10.4161 10.7181L10.7369 10.7748L10.2085 14.36H1V14.0393Z" fill="#013D5B"/>
</svg>
