<svg width="194" height="70" viewBox="0 0 194 70" fill="none" xmlns="http://www.w3.org/2000/svg">
<g clip-path="url(#clip0_6172_1577)">
<path d="M131.662 50.3645C131.662 50.3645 131.643 50.3785 131.634 50.3831C123.373 56.2308 113.589 62.3755 103.064 68.8219L102.646 69.0633C102.507 69.1654 102.469 69.3557 102.572 69.4995C102.669 69.6434 102.864 69.6759 103.008 69.5738L103.361 69.3881C112.29 64.7285 122.542 59.1964 132.864 53.5204C132.919 53.4879 132.975 53.4601 133.031 53.4276C132.464 52.4994 131.996 51.4784 131.666 50.3599L131.662 50.3645ZM185.883 6.4696C172.86 -7.89441 89.0754 5.02624 53.4462 12.8093L52.6154 12.9903C52.4437 13.0227 52.3323 13.1852 52.3602 13.3569C52.3927 13.5286 52.5505 13.6446 52.7268 13.6122L53.5529 13.4497C83.0746 8.19607 144.462 0.904997 157.67 14.0066C161.698 18.0026 160.738 23.1495 156.069 29.2246C158.589 30.8443 160.38 33.3876 161.188 36.576C179.432 24.4397 191.689 12.8696 185.887 6.47424L185.883 6.4696Z" fill="#CC2427"/>
<path d="M136.934 46.5914C137.101 51.6455 140.299 55.7806 144.471 55.7806C152.551 55.7806 155.99 45.8581 155.753 39.226C155.581 34.1627 152.3 30.0321 148.137 30.0321C141.185 30.0321 136.697 39.9129 136.934 46.5867V46.5914ZM132.664 46.3222C132.362 37.6991 139.12 28.8812 148.935 28.8812C155.498 28.8812 159.796 33.253 160.037 39.9547C160.352 49.0511 154.041 57.4003 143.765 57.4003C137.198 57.4003 132.905 53.0331 132.664 46.3268V46.3222Z" fill="#013D5B"/>
<path d="M39.6901 44.0434C39.3374 44.1734 38.8872 44.308 38.3256 44.424C37.7641 44.5493 36.7431 44.7303 35.2533 44.967C34.2276 45.1294 33.5175 45.3429 33.1138 45.6307C32.7286 45.9184 32.4965 46.2618 32.4315 46.6749C32.3526 47.1204 32.4965 47.4778 32.8817 47.7516C33.2716 48.0254 33.9306 48.1647 34.8588 48.1647C35.5549 48.1647 36.2372 48.0533 36.8962 47.8398C37.5645 47.6217 38.1261 47.3246 38.5623 46.9533C38.8826 46.6795 39.11 46.3268 39.2771 45.9091C39.3745 45.6353 39.5184 45.0134 39.6808 44.0341L39.6901 44.0434ZM48.225 38.7387C48.1879 39.5323 48.0533 40.2238 47.8398 41.4352L46.3964 49.5384C46.2711 50.2578 46.5403 50.824 47.2086 51.2092L47.1622 51.5248L38.8965 51.5155L38.8222 49.4549C37.6202 50.1789 36.1676 50.7915 34.8541 51.1535C33.5454 51.4876 32.4826 51.6408 30.8953 51.6408C28.2267 51.6408 26.6952 51.3623 25.6417 50.4388C24.5696 49.4827 24.0498 48.8515 24.1009 47.5381C24.1426 46.7816 24.5325 45.8117 25.0987 45.1341C25.6695 44.4425 26.4492 43.997 27.2985 43.5979C28.1525 43.1895 29.155 42.8971 30.6169 42.665C32.0788 42.4283 34.1162 42.1916 36.8405 41.9642C38.2746 41.8436 39.1471 41.5141 39.5555 41.3516C40.1264 41.1288 40.3491 40.8875 40.4327 40.4234C40.5858 39.588 40.3167 39.1146 39.2121 38.8965C36.2325 38.3117 30.654 39.2771 27.7766 39.9964L29.3406 35.7777C33.1323 35.2254 36.692 34.8681 40.4327 34.8681C46.3825 34.8681 48.2853 36.5667 48.225 38.7434V38.7387Z" fill="#013D5B"/>
<path d="M72.182 51.5248L75.0502 35.3368H82.9631L80.095 51.5248H72.182ZM75.4864 31.5869C75.7231 30.2549 77.8255 29.1782 80.1692 29.1782C82.513 29.1782 84.2348 30.2596 84.0074 31.5869C83.7614 32.9189 81.6636 33.9956 79.3106 33.9956C76.9576 33.9956 75.2451 32.9189 75.4864 31.5869Z" fill="#013D5B"/>
<path d="M111.065 44.0806C110.712 44.2012 110.248 44.3312 109.691 44.4611C109.139 44.5957 108.113 44.7582 106.619 44.9995C105.602 45.1619 104.878 45.3754 104.488 45.6678C104.108 45.9463 103.885 46.2897 103.801 46.7074C103.718 47.1576 103.88 47.5149 104.252 47.7841C104.651 48.0579 105.314 48.1925 106.243 48.1925C106.934 48.1925 107.607 48.0904 108.271 47.8816C108.944 47.6542 109.505 47.3664 109.942 46.9951C110.243 46.7213 110.48 46.3639 110.647 45.9416C110.749 45.6724 110.888 45.0459 111.06 44.0759L111.065 44.0806ZM119.595 38.7666C119.562 39.5602 119.423 40.261 119.205 41.463L117.771 49.5755C117.646 50.2903 117.91 50.8518 118.579 51.251L118.527 51.5341L110.266 51.548L110.201 49.4827C108.995 50.216 107.533 50.824 106.229 51.1767C104.911 51.5201 103.853 51.664 102.251 51.664C99.5827 51.664 98.0651 51.3948 97.007 50.4666C95.9302 49.5106 95.4104 48.8794 95.4661 47.5706C95.494 46.8095 95.8931 45.8349 96.464 45.1666C97.0348 44.4704 97.8145 44.0249 98.6685 43.6257C99.5224 43.2266 100.53 42.9296 101.973 42.6883C103.444 42.4608 105.486 42.2149 108.21 41.9875C109.631 41.8668 110.503 41.5466 110.912 41.3888C111.487 41.166 111.714 40.9154 111.803 40.4513C111.951 39.6344 111.687 39.1471 110.591 38.9244C107.598 38.335 102.033 39.3049 99.1558 40.0197L100.711 35.8056C104.521 35.2487 108.057 34.896 111.803 34.896C117.748 34.896 119.646 36.5992 119.595 38.7759V38.7666Z" fill="#013D5B"/>
<path d="M23.0149 45.7049C20.4391 46.2154 18.9911 46.4104 16.4432 46.4104C12.6607 46.4104 9.65799 44.5354 9.82043 41.0917C9.93645 38.7991 12.6515 33.9631 19.548 33.9631C21.72 33.9631 23.414 34.3483 25.6974 35.6478L26.6999 30.0229C23.595 28.8487 21.539 28.6723 18.8751 28.7048C9.83899 28.8023 1.15097 32.9142 0.0742472 41.2681C-1.02104 49.7612 9.35168 51.8961 13.9556 51.8775C16.6149 51.8682 19.381 51.7615 21.9614 51.4923L23.0103 45.6956L23.0149 45.7049Z" fill="#013D5B"/>
<path d="M87.3211 35.244L87.892 31.9489L96.1669 30.1482L95.2851 35.244H99.3367L98.5663 38.5067L94.6354 38.4974L92.2452 51.5155C92.2452 51.5155 84.2766 51.4645 84.2487 51.5155L86.6296 38.5299H83.6222L84.2348 35.2487H87.3257L87.3211 35.244Z" fill="#013D5B"/>
<path d="M127.629 51.5109L119.567 51.5248L123.623 28.9369L131.476 29.1596L127.629 51.5109Z" fill="#013D5B"/>
<path d="M61.7119 39.1286C60.6769 39.1286 59.7348 39.4395 58.904 40.0707C58.0779 40.7019 57.5535 41.6208 57.34 42.8414C57.0894 44.2569 57.2379 45.2687 57.7948 45.8952C58.361 46.5171 59.1732 46.8281 60.2407 46.8281C60.96 46.8281 61.7072 46.6981 62.2549 46.4289C62.9325 46.0716 63.4012 45.691 63.805 45.097C64.2412 44.4704 64.529 43.7696 64.6775 42.9621C64.9049 41.6858 64.7146 40.7251 64.1206 40.0939C63.5451 39.4442 62.7515 39.124 61.7165 39.124L61.7119 39.1286ZM47.3061 57.1126L51.1582 35.4158H58.1058L57.5674 38.1865C58.1708 37.3604 59.1361 36.6828 60.4634 36.1258C61.8047 35.5782 63.313 35.1698 64.9513 35.1698C66.766 35.1698 67.8845 35.2672 69.2396 35.9727C70.5902 36.6828 71.5277 37.7084 72.0428 39.045C72.5626 40.3631 72.674 41.8436 72.3909 43.454C71.9222 46.1273 70.618 48.2389 68.4785 49.7844C66.3576 51.3345 64.4501 51.7383 61.7212 51.7522C60.7558 51.7522 59.9483 51.6501 59.28 51.4877C58.6256 51.316 58.1011 51.1071 57.702 50.8565C57.3215 50.6012 56.9177 50.2485 56.3979 49.6777L55.103 57.1126H47.2968H47.3061Z" fill="#013D5B"/>
<path d="M190.969 41.1196C190.923 39.8154 190.269 38.9383 188.923 38.9383C185.679 38.9383 182.226 45.2965 181.632 47.8584C186.955 47.8584 191.099 44.6885 190.974 41.1196H190.969ZM191.666 51.0839L192.292 51.5109C190.709 54.7364 187.484 57.3307 183.697 57.3307C180.601 57.3307 178.063 55.2701 177.928 51.3995C177.677 44.4611 184.18 38.0147 189.503 38.0147C191.786 38.0147 193.903 39.0125 193.995 41.4723C194.19 46.9905 186.444 48.6798 181.339 48.7912C181.172 49.3667 181.112 49.9468 181.14 50.8286C181.223 53.1167 182.611 55.0427 185.47 55.0427C187.943 55.0427 190.412 53.0517 191.666 51.0885V51.0839Z" fill="#013D5B"/>
<path d="M159.916 40.9339C160.464 40.8597 161.35 40.7622 161.731 40.7622C162.316 40.7622 162.859 40.8736 162.886 41.4491C162.896 41.7925 162.278 44.2476 162.149 44.8185L160.914 50.2624C160.417 52.4901 159.874 54.8199 159.396 56.6624H162.566L164.348 48.0394C169.788 42.3727 171.881 40.5255 173.166 40.5255C173.742 40.5255 174.141 40.8272 174.169 41.5187C174.201 42.5165 173.584 44.7813 173.366 45.4265L171.547 51.7151C171.134 53.1259 170.827 54.4022 170.855 55.3119C170.911 56.6949 171.746 57.3075 172.985 57.3075C175.301 57.3075 176.986 54.8942 178.457 52.518L178.026 51.7383C177.431 52.6943 176.058 54.7735 174.972 54.7735C174.628 54.7735 174.303 54.5461 174.294 53.9706C174.262 53.2327 174.573 52.1374 174.786 51.4087L176.805 44.0434C177.348 42.0153 177.608 40.7065 177.594 40.015C177.543 38.6413 176.74 37.9962 175.51 37.9962C173.426 37.9962 170.651 39.5184 164.789 46.2711H164.706L165.444 42.976C165.843 41.1753 166.237 39.2956 166.618 37.9962C164.59 38.7294 161.68 39.5463 159.884 39.8943L159.912 40.9293L159.916 40.9339Z" fill="#013D5B"/>
</g>
<defs>
<clipPath id="clip0_6172_1577">
<rect width="194" height="69.6341" fill="white"/>
</clipPath>
</defs>
</svg>
